<svg width="723" height="397" viewBox="0 0 723 397" fill="none" xmlns="http://www.w3.org/2000/svg">
<path d="M168.964 57.658L256.704 137.883L173.974 273.253L1 167.964L143.892 45.126L168.964 57.658Z" fill="#0875F7" stroke="#6FCFA1" stroke-width="0.768363" stroke-miterlimit="10"/>
<path d="M489.848 122.838L577.595 275.765L723 213.09L622.721 3.8147e-06L489.848 122.838Z" fill="#3EC221"/>
<path d="M256.704 137.883L289.298 147.91L326.901 130.36C326.901 130.36 326.901 100.279 341.946 107.801C356.99 115.324 372.027 122.846 372.027 122.846C372.027 122.846 412.136 125.351 419.658 127.863C427.18 130.368 437.207 132.881 429.685 145.413C422.163 157.945 434.703 160.457 452.244 152.935C469.794 145.413 482.326 137.89 482.326 137.89L560.046 255.711L509.91 275.765C509.91 275.765 514.927 315.874 509.91 333.423C504.893 350.973 477.316 343.451 477.316 343.451C477.316 343.451 487.343 363.505 474.811 363.505C462.279 363.505 444.73 358.487 444.73 358.487L429.685 366.01L397.091 350.965L387.064 338.433L389.569 363.505L372.02 378.549L346.948 376.045L321.876 388.577L294.3 381.054C294.3 381.054 264.218 383.559 261.706 373.532C259.201 363.505 254.183 353.478 254.183 353.478L231.624 323.396L211.57 303.342L219.092 275.765L173.966 250.694L256.704 137.883Z" fill="#FFF5E9"/>
<path d="M217.847 284.517C218.647 284.456 219.446 284.494 220.237 284.602C220.498 284.609 220.752 284.556 220.975 284.433C221.213 284.356 221.42 284.225 221.589 284.033C221.774 283.856 221.912 283.657 221.989 283.418C222.112 283.188 222.166 282.942 222.158 282.681C222.135 282.181 221.974 281.666 221.597 281.321C221.466 281.221 221.336 281.121 221.205 281.021C220.905 280.844 220.583 280.76 220.237 280.76C219.446 280.66 218.647 280.614 217.847 280.675C217.586 280.668 217.333 280.721 217.11 280.844C216.872 280.921 216.664 281.052 216.495 281.244C216.311 281.421 216.172 281.62 216.096 281.859C215.973 282.089 215.919 282.335 215.926 282.596C215.95 283.096 216.111 283.61 216.487 283.956C216.849 284.279 217.348 284.556 217.847 284.517Z" fill="#222221"/>
<path d="M228.52 280.614C232.331 279.054 235.697 276.703 239.416 274.966C241.352 274.06 243.519 273.514 245.532 272.792C247.614 272.054 249.681 271.294 251.748 270.518C260.038 267.398 268.206 263.979 276.358 260.521C280.239 258.877 284.111 256.941 288.137 255.68C291.549 254.612 295.275 253.629 298.871 254.213C304.826 255.181 308.514 260.252 308.86 265.9C309.037 268.712 308.576 271.532 307.377 274.098C305.856 277.356 303.305 280.053 300.762 282.535C297.957 285.278 294.96 287.821 292.31 290.726C289.705 293.576 286.501 295.827 283.374 298.048C280.231 300.284 277.035 302.512 274.253 305.194C273.654 305.77 273.131 306.469 272.417 306.907C271.525 307.453 270.626 307.983 269.712 308.498C267.991 309.466 266.224 310.373 264.426 311.202C257.349 314.483 249.642 316.604 241.867 317.296C239.853 317.472 237.84 317.449 235.827 317.564C234.037 317.672 232.323 317.803 230.556 317.434C227.245 316.742 223.549 314.952 221.651 312.063C220.76 310.711 220.291 309.297 219.684 307.783C218.9 305.839 218.17 303.88 217.525 301.89C216.265 298.01 215.327 293.999 215.104 289.911C215.058 289.089 214.928 288.067 215.128 287.345C215.335 286.592 215.735 285.869 215.957 285.086C216.641 282.704 212.938 281.69 212.254 284.064C212.023 284.871 211.608 285.624 211.393 286.43C211.124 287.445 211.201 288.528 211.247 289.558C211.347 291.801 211.639 294.037 212.069 296.242C212.907 300.553 214.351 304.725 215.988 308.797C216.664 310.472 217.233 312.224 218.193 313.761C219.315 315.551 220.798 316.973 222.558 318.125C225.938 320.346 229.888 321.644 233.96 321.545C242.458 321.329 250.81 320.3 258.886 317.534C262.889 316.166 266.785 314.453 270.503 312.447C272.301 311.479 274.468 310.519 275.874 309.02C277.234 307.568 278.74 306.262 280.3 305.025C283.496 302.505 286.931 300.299 290.143 297.802C293.462 295.213 296.19 292.093 299.256 289.227C304.711 284.118 310.858 278.831 312.333 271.125C313.516 264.955 312.041 257.886 306.962 253.79C303.881 251.308 300.078 250.094 296.128 250.225C292.018 250.356 287.822 251.508 284.057 253.106C275.575 256.702 267.123 260.344 258.563 263.764C254.26 265.485 249.927 267.144 245.562 268.712C243.357 269.503 241.098 270.18 238.908 271.017C236.865 271.801 234.944 272.938 233.046 274.021C231.24 275.059 229.427 276.111 227.498 276.903C226.538 277.295 225.862 278.178 226.154 279.269C226.407 280.184 227.552 281.013 228.52 280.614Z" fill="#222221"/>
<path d="M233.43 319.916C233.66 323.604 233.683 327.33 234.375 330.972C235.082 334.691 236.711 338.08 239.193 340.946C241.613 343.743 244.763 345.833 248.313 346.87C251.586 347.83 255.067 347.907 258.448 347.73C262.151 347.531 265.832 347.1 269.535 346.954C273.899 346.785 278.279 346.801 282.62 346.232C286.969 345.663 291.042 344.473 294.96 342.482C298.556 340.661 301.86 338.341 305.049 335.89C308.261 333.423 311.373 330.826 314.653 328.452C317.612 326.301 320.309 323.988 322.583 321.107C324.996 318.041 327.032 314.698 329.298 311.533C331.765 308.091 334.308 304.679 336.221 300.883C337.681 297.987 339.149 295.028 340.232 291.963C341.27 289.035 341.953 285.708 341.077 282.65C339.541 277.256 333.893 275.128 328.86 274.429C323.474 273.676 317.858 274.09 312.625 275.573C307.976 276.895 303.013 279.254 300.4 283.534C299.824 284.479 299.378 285.539 299.117 286.615C298.525 289.012 302.237 290.042 302.821 287.637C302.882 287.399 302.944 287.16 303.02 286.93C303.051 286.845 303.251 286.3 303.182 286.476C303.113 286.638 303.374 286.085 303.435 285.969C303.566 285.731 303.704 285.493 303.85 285.262C303.973 285.078 304.096 284.894 304.227 284.717C304.004 285.017 304.373 284.548 304.45 284.448C304.788 284.056 305.149 283.687 305.533 283.342C306.032 282.888 306.079 282.857 306.47 282.573C306.947 282.227 307.446 281.905 307.961 281.613C308.407 281.351 308.86 281.113 309.329 280.883C309.897 280.606 310.297 280.429 310.696 280.268C315.36 278.416 320.07 277.748 325.019 277.917C325.633 277.94 326.248 277.971 326.863 278.024C327.547 278.086 327.892 278.124 328.323 278.194C329.368 278.355 330.397 278.57 331.411 278.862C331.911 279.008 332.395 279.169 332.879 279.354C332.979 279.392 333.086 279.431 333.186 279.477C333.117 279.446 332.848 279.323 333.179 279.477C333.417 279.584 333.655 279.7 333.893 279.815C334.815 280.291 335.66 280.875 336.329 281.682C337.943 283.61 337.82 286.208 337.228 288.62C336.536 291.432 335.276 294.045 334.016 296.634C332.403 299.969 330.582 303.104 328.446 306.139C326.21 309.312 323.989 312.486 321.799 315.69C320.001 318.317 318.034 320.776 315.629 322.874C312.832 325.317 309.682 327.392 306.77 329.697C300.961 334.292 294.914 339.209 287.676 341.322C280.116 343.527 272.032 342.797 264.264 343.435C258.217 343.935 251.456 344.957 245.962 341.706C243.034 339.97 240.637 337.204 239.277 334.084C238.032 331.234 237.717 328.083 237.533 325.01C237.433 323.312 237.364 321.606 237.256 319.908C237.118 317.457 233.276 317.441 233.43 319.916Z" fill="#222221"/>
<path d="M248.697 352.786C249.166 359.164 250.457 365.456 254.322 370.697C258.632 376.536 264.764 380.893 271.556 383.382C278.986 386.102 286.969 385.111 294.407 382.944C298.003 381.899 301.476 380.493 305.011 379.272C308.653 378.012 311.949 376.452 314.653 373.64C317.097 371.089 318.972 368.046 321.5 365.572C323.305 363.805 325.249 362.16 327.086 360.424C331.442 356.29 335.637 351.979 339.556 347.431C343.751 342.567 347.708 337.419 350.936 331.848C353.863 326.8 356.23 321.329 356.96 315.505C357.613 310.288 356.837 304.072 352.226 300.822C348.423 298.148 343.206 298.517 338.818 298.832C337.689 298.916 336.56 299.001 335.43 299.062C332.971 299.201 332.956 303.042 335.43 302.904C337.643 302.781 339.848 302.558 342.061 302.489C344.312 302.42 346.041 302.451 347.993 303.027C348.223 303.096 348.446 303.173 348.669 303.25C348.776 303.288 348.892 303.334 348.999 303.373C348.684 303.242 348.961 303.357 349.022 303.388C349.468 303.611 349.883 303.849 350.298 304.126C350.644 304.356 350.29 304.08 350.59 304.364C350.759 304.525 350.936 304.687 351.097 304.856C351.189 304.948 351.512 305.34 351.473 305.286C351.473 305.294 351.758 305.709 351.858 305.878C353.018 307.814 353.348 310.426 353.31 312.854C353.233 317.764 351.389 322.766 349.068 327.253C346.348 332.501 342.898 337.365 339.164 341.937C335.438 346.493 331.411 350.804 327.224 354.93C323.413 358.68 319.141 362.053 315.814 366.248C313.808 368.776 311.864 371.573 309.075 373.309C306.163 375.122 302.698 375.96 299.509 377.166C292.747 379.725 285.31 381.899 278.003 381.047C271.518 380.286 265.102 376.536 260.522 372.011C258.432 369.944 256.65 367.639 255.344 364.995C254.122 362.529 253.438 359.824 253.008 357.112C252.777 355.675 252.647 354.223 252.539 352.771C252.462 351.734 251.709 350.85 250.618 350.85C249.642 350.865 248.62 351.749 248.697 352.786Z" fill="#222221"/>
<path d="M288.491 382.084C288.137 385.18 289.067 388.331 291.48 390.398C293.754 392.357 296.72 393.302 299.64 393.755C306.401 394.823 313.816 394.531 320.14 391.819C324.181 390.083 327.746 387.424 330.981 384.473C334.623 381.139 338.073 377.489 341.339 373.778C344.689 369.967 347.309 365.649 350.475 361.699C352.027 359.763 353.602 357.834 354.946 355.752C356.183 353.839 357.167 351.78 358.012 349.667C359.856 345.049 360.755 339.947 358.635 335.275C356.821 331.28 352.926 327.338 348.223 327.576C345.764 327.707 345.749 331.549 348.223 331.418C351.358 331.257 353.848 334.138 355.154 336.873C356.76 340.239 355.953 344.073 354.747 347.469C353.325 351.465 351.012 354.899 348.377 358.195C346.902 360.047 345.388 361.876 344.059 363.843C342.814 365.672 341.608 367.493 340.194 369.206C337.197 372.84 333.878 376.237 330.543 379.564C327.723 382.384 324.704 385.011 321.231 386.994C317.904 388.892 314.208 390.083 310.374 390.305C307.892 390.451 305.387 390.482 302.905 390.298C300.3 390.106 297.258 389.591 295.06 388.277C294.768 388.1 294.469 387.908 294.2 387.701C294.484 387.923 294.192 387.685 294.13 387.624C293.985 387.493 293.839 387.363 293.7 387.224C293.623 387.147 293.547 387.063 293.47 386.978C293.393 386.894 293.324 386.809 293.255 386.725C293.385 386.894 293.385 386.894 293.255 386.717C293.078 386.464 292.932 386.195 292.778 385.926C292.732 385.849 292.578 385.503 292.724 385.841C292.655 385.68 292.601 385.511 292.548 385.342C292.44 384.996 292.348 384.635 292.294 384.274C292.348 384.612 292.286 384.197 292.286 384.112C292.271 383.874 292.256 383.636 292.256 383.398C292.256 382.96 292.286 382.522 292.34 382.084C292.455 381.054 291.372 380.163 290.419 380.163C289.274 380.163 288.606 381.047 288.491 382.084Z" fill="#222221"/>
<path d="M343.913 152.989C341.638 147.088 337.12 142.439 334.308 136.815C331.573 131.352 330.259 125.212 330.343 119.104C330.351 118.62 330.382 118.136 330.428 117.652C330.466 117.298 330.405 117.729 330.466 117.383C330.512 117.137 330.559 116.891 330.612 116.645C330.705 116.238 330.82 115.838 330.958 115.439C330.997 115.331 331.173 114.886 331.112 115.032C331.05 115.17 331.273 114.701 331.335 114.586C331.511 114.248 331.711 113.941 331.919 113.626C332.157 113.257 331.834 113.695 332.042 113.449C332.172 113.287 332.31 113.134 332.449 112.98C332.679 112.734 332.925 112.519 333.179 112.289C333.524 111.974 333.063 112.358 333.332 112.158C333.501 112.035 333.67 111.92 333.847 111.812C334.155 111.62 334.477 111.436 334.8 111.274C334.938 111.205 335.084 111.136 335.23 111.075C335.561 110.921 335.276 111.052 335.215 111.082C335.315 111.044 335.415 111.005 335.515 110.967C336.275 110.698 337.044 110.483 337.835 110.329C338.035 110.291 338.227 110.26 338.427 110.229C338.765 110.176 338.211 110.245 338.696 110.191C339.141 110.145 339.579 110.106 340.025 110.083C340.885 110.045 341.738 110.053 342.599 110.099C344.458 110.199 345.749 110.406 347.701 110.859C349.499 111.274 351.266 111.828 352.979 112.496C353.187 112.573 353.394 112.657 353.594 112.742C353.963 112.888 353.648 112.757 353.917 112.88C354.309 113.057 354.701 113.234 355.092 113.418C355.868 113.787 356.621 114.186 357.367 114.617C358.028 115.001 358.681 115.416 359.303 115.861C359.449 115.969 359.595 116.077 359.741 116.184C360.01 116.384 359.557 116.023 359.887 116.299C360.425 116.76 360.963 117.214 361.485 117.698C366.349 122.177 370.252 127.571 375.216 131.959C380.08 136.254 385.635 139.696 390.476 144.014C394.978 148.04 398.935 152.843 404.152 156.001C406.012 157.13 408.04 157.937 409.961 158.944C411.759 159.889 413.35 160.903 414.318 162.547C414.863 163.469 415.132 164.476 415.294 165.582C415.447 166.612 416.746 167.173 417.66 166.927C418.759 166.627 419.151 165.598 419.005 164.56C418.636 162.048 417.43 159.727 415.516 158.045C413.78 156.516 411.721 155.501 409.654 154.51C407.403 153.434 405.251 152.274 403.3 150.707C400.779 148.686 398.513 146.373 396.208 144.122C393.872 141.84 391.428 139.742 388.839 137.752C386.188 135.724 383.476 133.78 380.871 131.69C378.166 129.523 375.631 127.187 373.272 124.652C370.928 122.131 368.723 119.488 366.326 117.029C363.306 113.941 360.071 111.42 356.122 109.668C352.411 108.024 348.531 106.902 344.497 106.426C340.816 105.988 336.959 106.18 333.524 107.671C330.259 109.092 327.869 111.897 326.993 115.362C326.363 117.852 326.463 120.479 326.671 123.015C326.94 126.334 327.539 129.638 328.569 132.812C329.59 135.954 330.981 138.989 332.702 141.809C334.408 144.606 336.414 147.211 338.135 150C338.926 151.283 339.687 152.605 340.232 154.018C340.609 154.987 341.523 155.655 342.599 155.363C343.498 155.102 344.289 153.965 343.913 152.989Z" fill="#222221"/>
<path d="M406.834 157.776C414.664 158.198 422.486 157.653 430.208 156.3C436.9 155.132 443.431 153.45 449.716 150.845C461.595 145.92 472.114 138.474 481.719 129.992C491.385 121.455 500.152 111.966 509.126 102.722C514.812 96.8675 520.306 90.8128 525.946 84.9118C531.609 79.0031 537.294 73.1097 542.927 67.1703C545.754 64.1967 548.559 61.2078 551.356 58.1958C554.168 55.1608 556.65 51.8184 559.239 48.5836C559.761 47.9305 560.192 47.4772 560.883 47.0085C561.775 46.4014 562.428 45.7944 563.065 44.9262C564.118 43.497 565.224 42.1063 566.369 40.754C568.659 38.0417 571.11 35.4753 573.653 33.0089C574.898 31.8025 576.174 30.6116 577.449 29.436C579.27 27.761 576.55 25.0486 574.729 26.716C569.458 31.572 564.479 36.674 560.169 42.4136C559.692 43.0437 559.346 43.4048 558.693 43.8428C557.948 44.3499 557.318 44.8494 556.749 45.5562C555.436 47.2005 554.122 48.8448 552.808 50.4891C551.494 52.1334 550.195 53.7777 548.758 55.3298C547.383 56.8128 546 58.2957 544.609 59.771C533.499 71.6038 522.119 83.1753 511.04 95.0311C502.004 104.697 492.891 114.386 483.217 123.422C474.12 131.913 464.254 139.688 453.013 145.159C440.488 151.26 426.266 154.041 412.382 154.064C410.53 154.064 408.678 154.011 406.826 153.911C404.36 153.803 404.368 157.645 406.834 157.776Z" fill="#222221"/>
<path d="M280.884 147.172C283.904 146.996 286.931 146.711 289.904 146.143C291.38 145.858 292.84 145.505 294.269 145.052C294.96 144.836 295.667 144.621 296.336 144.322C297.127 143.968 297.872 143.469 298.648 143.069C304.05 140.272 309.966 138.628 315.668 136.553C319.018 135.332 322.36 134.072 325.679 132.765C326.648 132.389 327.316 131.475 327.024 130.399C326.771 129.477 325.633 128.678 324.657 129.054C318.956 131.29 313.217 133.411 307.423 135.393C304.496 136.392 301.614 137.445 298.794 138.736C297.442 139.35 296.182 140.119 294.853 140.779C293.6 141.402 292.094 141.717 290.742 142.04C287.507 142.816 284.203 143.138 280.892 143.33C278.433 143.476 278.41 147.318 280.884 147.172Z" fill="#222221"/>
<path d="M363.583 118.989C366.057 118.989 366.057 115.147 363.583 115.147C361.116 115.147 361.109 118.989 363.583 118.989Z" fill="#222221"/>
<path d="M367.809 124.636C371.528 124.413 375.223 123.799 378.958 123.791C382.807 123.783 386.488 124.959 390.237 125.697C394.271 126.496 398.244 126.911 402.354 126.718C406.035 126.542 409.831 126.073 413.488 126.757C416.116 127.249 418.659 128.386 421.126 129.392C423.139 130.222 425.559 131.375 427.511 132.742C428.302 133.296 429.163 134.026 429.908 134.871C430.254 135.255 430.377 135.416 430.707 135.946C430.853 136.177 430.984 136.407 431.107 136.653C431.291 137.022 431.283 136.999 431.36 137.214C432.213 139.581 431.936 142.024 430.315 144.229C429.216 145.728 427.833 147.057 426.527 148.379C425.451 149.462 424.084 149.961 422.624 150.307C419.251 151.099 415.77 151.368 413.265 154.072C411.59 155.885 414.295 158.605 415.985 156.792C418.037 154.579 421.279 154.625 424.022 153.918C425.659 153.496 427.196 152.82 428.517 151.752C429.854 150.668 431.053 149.27 432.182 147.979C434.495 145.336 436.001 142.332 435.609 138.743C435.309 136.008 434.049 133.58 432.113 131.636C428.44 127.932 423.277 126.127 418.521 124.283C414.825 122.854 411.045 122.469 407.103 122.623C403.023 122.784 398.966 123.207 394.894 122.631C392.519 122.293 390.168 121.786 387.825 121.271C385.589 120.771 383.368 120.195 381.078 120.026C376.637 119.688 372.219 120.541 367.793 120.802C365.35 120.94 365.335 124.79 367.809 124.636Z" fill="#222221"/>
<path d="M277.964 151.022C285.563 152.097 293.277 152.251 300.854 153.511C304.872 154.18 308.868 154.887 312.925 155.355C316.951 155.824 321 156.139 325.049 156.354C332.833 156.761 340.632 156.784 348.431 156.831C352.365 156.854 356.291 156.884 360.225 156.969C363.898 157.053 367.54 157.284 371.213 157.514C373.057 157.63 374.885 157.66 376.722 157.845C378.504 158.022 380.279 158.237 382.046 158.49C385.904 159.043 389.73 159.758 393.533 160.58C399.803 161.94 405.92 163.531 411.759 166.243C422.555 171.268 431.806 178.875 440.035 187.381C448.379 196.009 455.748 205.514 463.324 214.811C464.246 215.941 465.176 217.07 466.105 218.2C466.766 218.999 468.134 218.884 468.825 218.2C469.617 217.408 469.486 216.287 468.825 215.48C461.126 206.183 453.796 196.57 445.613 187.696C437.453 178.844 428.325 170.669 417.675 164.921C412.205 161.963 406.357 159.658 400.318 158.16C392.965 156.339 385.45 154.948 377.92 154.118C374.225 153.711 370.49 153.588 366.771 153.335C362.968 153.073 359.134 153.073 355.315 153.027C347.47 152.935 339.625 152.981 331.78 152.758C323.782 152.528 315.767 152.021 307.853 150.814C303.866 150.207 299.916 149.416 295.905 148.963C292.04 148.525 288.168 148.263 284.295 147.895C282.52 147.725 280.753 147.541 278.994 147.288C277.964 147.142 276.927 147.541 276.627 148.632C276.381 149.562 276.934 150.876 277.964 151.022Z" fill="#222221"/>
<path d="M468.157 219.475C467.42 219.022 467.074 218.569 467.074 217.739C466.113 218.292 465.145 218.845 464.185 219.398C467.381 221.596 469.725 224.954 471.868 228.119C474.158 231.492 476.363 234.904 478.753 238.2C481.68 242.234 484.155 246.568 486.598 250.901C488.98 255.135 491.431 259.307 494.005 263.426C496.587 267.552 499.107 271.816 500.72 276.434C502.411 281.275 503.079 286.407 504.339 291.356C504.977 293.868 505.861 296.304 506.606 298.786C507.344 301.244 507.989 303.734 508.581 306.231C509.779 311.341 510.74 316.504 511.839 321.637C512.738 325.832 513.944 329.973 514.712 334.199C515.258 337.211 515.481 340.477 513.929 343.013C512.184 345.863 508.327 347.262 505.108 348.015C501.596 348.829 497.716 348.745 494.489 347.008C492.906 346.155 491.408 344.957 490.371 343.474C489.303 341.945 488.649 340.2 488.127 338.418C486.982 334.491 486.421 330.442 484.954 326.608C481.488 317.557 475.756 309.666 471.208 301.168C466.282 291.97 461.957 282.473 456.901 273.353C451.937 264.401 445.928 256.172 439.828 247.974C438.337 245.968 436.846 243.963 435.371 241.95C434.756 241.112 433.704 240.697 432.743 241.258C431.837 241.788 431.537 242.979 432.052 243.886C436.531 251.723 442.171 258.8 447.396 266.146C449.993 269.803 452.498 273.537 454.68 277.464C457.047 281.72 458.937 286.231 460.865 290.695C464.876 299.984 468.657 309.381 472.867 318.586C474.734 322.666 476.786 326.662 478.576 330.773C480.267 334.645 481.78 338.802 482.134 343.036C482.441 346.724 481.642 350.074 480.213 353.447C479.921 354.131 479.606 354.799 479.252 355.452C479.091 355.752 478.922 356.044 478.73 356.328C478.407 356.805 479.114 355.983 478.553 356.543C478.369 356.728 478.192 356.928 477.985 357.081C476.678 358.049 474.834 358.242 473.274 358.472C468.903 359.11 464.761 360.723 460.305 360.839C458.284 360.892 456.178 360.793 454.281 360.04C452.951 359.509 451.899 358.641 450.884 357.565C448.134 354.661 445.644 351.372 443.401 348.068C440.78 344.211 438.475 340.154 436.193 336.097C431.706 328.099 426.95 320.254 422.347 312.324C417.768 304.425 413.019 296.58 407.157 289.55C404.26 286.077 401.202 282.773 398.421 279.2C395.639 275.635 392.934 272.001 389.915 268.62C388.447 266.968 386.903 265.393 385.259 263.91C383.729 262.519 380.933 264.355 382.239 266.238C384.851 270.003 388.063 273.238 391.375 276.388C394.763 279.623 398.036 282.934 401.141 286.446C407.579 293.722 413.619 301.383 419.466 309.143C425.259 316.819 430.769 324.726 435.594 333.055C440.012 340.684 444.876 349.175 445.329 358.195C445.506 361.73 445.014 365.925 442.601 368.568C440.619 370.735 437.83 371.726 434.856 372.164C431.867 372.602 428.318 372.41 425.352 371.965C421.418 371.381 417.53 370.351 414.003 368.484C410.607 366.686 407.403 364.219 404.813 361.376C403.553 359.993 402.831 358.365 402.132 356.651C401.24 354.461 400.242 352.325 399.158 350.22C396.976 346.002 394.609 341.845 392.181 337.765C389.73 333.654 386.903 329.789 384.029 325.97C377.997 317.933 372.335 309.696 366.849 301.283C364.267 297.326 361.693 293.361 359.096 289.412C356.614 285.631 354.04 281.897 351.105 278.455C349.737 276.849 348.285 275.32 346.717 273.914C345.941 274.92 345.165 275.927 344.389 276.933C347.347 279.069 349.414 282.75 351.258 285.9C352.273 287.629 353.241 289.381 354.278 291.094C355.469 293.054 356.775 294.944 357.951 296.919C360.579 301.337 362.891 305.947 365.066 310.603C367.279 315.336 369.507 320.085 371.551 324.895C373.556 329.612 375.17 334.491 377.114 339.232C378.113 341.66 379.173 344.05 380.395 346.37C381.501 348.476 382.684 350.543 383.729 352.686C384.767 354.807 385.558 356.989 386.165 359.271C386.688 361.215 387.487 363.067 388.117 364.972C388.393 365.818 388.678 366.686 388.808 367.569C388.916 368.292 388.893 368.714 388.593 369.49C388.163 370.605 386.88 371.926 385.696 372.856C382.369 375.484 378.797 376.844 374.84 377.904C369.461 379.341 363.906 379.602 358.373 379.909C355.915 380.04 355.899 383.882 358.373 383.751C367.709 383.244 377.414 382.576 385.597 377.574C388.785 375.622 392.251 372.794 392.666 368.822C392.873 366.816 392.105 364.719 391.444 362.867C390.699 360.777 390.053 358.703 389.4 356.582C387.894 351.71 385.151 347.431 382.907 342.89C380.533 338.08 378.812 332.993 376.891 327.999C374.932 322.897 372.611 317.949 370.352 312.977C368.132 308.09 365.85 303.219 363.26 298.509C360.725 293.883 357.766 289.519 355.123 284.947C352.749 280.837 350.229 276.457 346.31 273.622C344.543 272.346 342.368 275.189 343.982 276.641C350.713 282.704 355.346 290.741 360.256 298.24C365.942 306.923 371.52 315.667 377.736 323.988C380.664 327.914 383.676 331.779 386.396 335.859C389.131 339.947 391.49 344.288 393.88 348.583C395.04 350.666 396.169 352.779 397.183 354.938C398.159 357.02 398.851 359.263 399.988 361.269C401.947 364.727 405.443 367.493 408.64 369.736C415.156 374.3 423.423 376.306 431.322 376.252C434.81 376.229 438.375 375.691 441.518 374.116C444.714 372.518 447.027 369.713 448.149 366.332C451.13 357.335 447.419 347.508 443.401 339.47C438.99 330.657 433.681 322.328 427.964 314.307C422.194 306.208 416.062 298.34 409.731 290.672C406.504 286.761 403.2 282.911 399.711 279.238C396.538 275.888 393.034 272.869 389.846 269.526C388.286 267.89 386.818 266.176 385.527 264.317C384.521 265.093 383.514 265.869 382.508 266.645C389.461 272.946 394.448 280.967 400.603 287.975C403.653 291.455 406.627 294.905 409.285 298.709C411.959 302.535 414.418 306.508 416.8 310.526C419.174 314.537 421.471 318.602 423.83 322.628C426.205 326.685 428.686 330.68 430.999 334.776C433.343 338.94 435.632 343.136 438.183 347.177C440.65 351.088 443.454 354.692 446.374 358.272C448.618 361.023 451.115 363.374 454.68 364.212C459.482 365.341 464.669 364.519 469.356 363.221C471.3 362.683 473.228 362.383 475.211 362.053C477.185 361.722 479.114 361.131 480.666 359.824C481.988 358.71 482.756 357.097 483.44 355.545C484.147 353.931 484.8 352.271 485.284 350.573C487.789 341.745 483.686 332.532 479.944 324.695C475.626 315.651 471.646 306.485 467.75 297.249C463.908 288.136 460.281 278.854 454.934 270.502C449.947 262.711 444.054 255.55 438.952 247.835C437.684 245.922 436.478 243.971 435.333 241.981C434.226 242.626 433.12 243.271 432.013 243.917C438.214 252.407 444.753 260.683 450.254 269.665C455.879 278.847 460.381 288.666 465.284 298.24C467.589 302.735 470.024 307.138 472.629 311.464C475.195 315.736 477.785 320 479.882 324.533C480.835 326.6 481.696 328.729 482.303 330.919C482.856 332.909 483.248 334.945 483.724 336.958C484.708 341.099 486.106 345.21 489.372 348.13C495.795 353.87 505.676 353.332 512.807 349.167C516.203 347.185 518.308 344.027 518.792 340.131C519.246 336.458 518.339 332.686 517.478 329.136C515.004 318.971 513.429 308.567 510.479 298.524C509.733 295.973 508.811 293.484 508.135 290.918C507.459 288.328 506.936 285.708 506.368 283.096C505.822 280.583 505.269 278.055 504.432 275.619C503.586 273.161 502.511 270.779 501.304 268.474C498.945 263.956 496.049 259.76 493.475 255.365C490.901 250.963 488.511 246.445 485.853 242.096C483.448 238.162 480.605 234.535 478.077 230.686C475.695 227.067 473.382 223.355 470.501 220.105C469.179 218.607 467.719 217.262 466.075 216.133C464.846 215.288 463.186 216.417 463.186 217.793C463.178 219.998 464.323 221.711 466.167 222.841C468.334 224.085 470.263 220.758 468.157 219.475Z" fill="#222221"/>
<path d="M506.053 288.451C513.698 289.22 518.324 282.081 523.779 278.186C531.455 272.7 540.045 268.643 548.351 264.232C553.422 261.543 558.494 258.854 563.595 256.226C565.793 255.089 563.849 251.777 561.659 252.907C553.046 257.355 544.463 261.866 535.911 266.43C531.901 268.574 527.928 270.802 524.132 273.307C520.99 275.381 518.316 277.84 515.504 280.33C512.814 282.719 509.779 284.986 506.053 284.617C505.015 284.509 504.132 285.577 504.132 286.538C504.132 287.652 505.015 288.344 506.053 288.451Z" fill="#222221"/>
<path d="M344.189 371.227C344.489 373.424 345.934 375.253 347.401 376.828C348.085 377.558 348.792 378.265 349.445 379.026C349.522 379.118 349.606 379.21 349.683 379.31C349.706 379.341 349.737 379.372 349.76 379.402C349.891 379.564 349.86 379.525 349.683 379.302C349.691 379.425 349.998 379.74 350.067 379.84C350.344 380.255 350.582 380.685 350.774 381.139C351.166 382.069 352.611 382.337 353.402 381.83C354.37 381.208 354.516 380.194 354.094 379.203C353.294 377.32 351.758 375.852 350.375 374.393C350.044 374.047 349.722 373.693 349.414 373.332C349.353 373.263 349.076 372.825 348.984 372.81C349.161 373.04 349.184 373.071 349.061 372.91C349.038 372.879 349.015 372.84 348.992 372.81C348.922 372.71 348.853 372.61 348.784 372.51C348.654 372.31 348.531 372.111 348.415 371.895C348.362 371.788 348.308 371.688 348.254 371.58C348.231 371.527 348.2 371.473 348.177 371.419C348.116 371.288 348.146 371.35 348.254 371.603C348.285 371.465 348.07 371.081 348.031 370.927C347.97 370.689 347.924 370.451 347.893 370.213C347.755 369.214 346.425 368.584 345.526 368.868C344.428 369.221 344.043 370.151 344.189 371.227Z" fill="#222221"/>
<path d="M301.914 278.985C301.968 279.415 302.029 279.838 302.083 280.268C303.274 279.945 304.473 279.623 305.663 279.3C302.636 273.906 299.017 268.551 293.861 264.978C289.897 262.227 284.203 261.366 279.593 262.819C268.575 266.284 271.172 282.297 277.065 289.227C278.825 291.302 281.23 292.877 283.896 293.507C286.892 294.214 290.012 293.822 292.909 292.885C293.493 292.693 294.153 292.201 294.253 291.54C294.338 290.994 294.415 290.449 294.499 289.903C294.653 288.881 294.246 287.836 293.155 287.537C292.248 287.291 290.949 287.844 290.788 288.881C290.703 289.427 290.627 289.973 290.542 290.518C290.988 290.072 291.433 289.627 291.887 289.173C289.912 289.811 287.638 290.234 285.709 289.957C283.796 289.681 282.159 288.874 280.784 287.575C277.764 284.725 276.358 280.629 275.997 276.549C275.651 272.677 276.212 268.289 279.946 266.753C283.366 265.346 287.96 265.877 290.995 267.69C296.082 270.733 299.509 276.196 302.336 281.236C303.205 282.781 306.178 282.227 305.917 280.268C305.863 279.838 305.802 279.415 305.748 278.985C305.61 277.955 304.964 277.064 303.827 277.064C302.905 277.064 301.776 277.948 301.914 278.985Z" fill="#222221"/>
<path d="M333.916 301.529C330.951 298.855 328.138 296.012 324.927 293.622C322.022 291.463 318.434 289.504 314.692 290.218C310.205 291.071 307.877 295.666 306.394 299.523C304.519 304.387 304.035 310.595 307.7 314.791C310.666 318.179 315.53 317.426 319.525 317.272C321.991 317.173 321.999 313.331 319.525 313.431C317.819 313.5 316.113 313.661 314.4 313.607C313.117 313.569 312.072 313.423 311.058 312.708C311.334 312.908 310.835 312.524 310.835 312.516C310.735 312.424 310.643 312.332 310.551 312.232C310.282 311.948 310.22 311.848 309.997 311.479C309.49 310.641 309.183 309.719 308.968 308.767C308.453 306.454 308.899 304.057 309.628 301.844C310.282 299.846 311.142 297.725 312.456 296.058C312.863 295.543 313.509 294.921 313.885 294.667C314.577 294.206 314.707 294.152 315.53 293.96C315.898 293.876 315.652 293.93 315.56 293.937C315.745 293.914 315.929 293.907 316.113 293.899C316.421 293.891 316.736 293.907 317.043 293.937C316.728 293.899 317.527 294.045 317.666 294.076C318.057 294.175 318.434 294.298 318.81 294.444C319.195 294.59 320.001 294.998 320.57 295.328C321.308 295.758 322.007 296.227 322.698 296.726C325.741 298.939 328.4 301.713 331.204 304.241C333.033 305.901 335.753 303.188 333.916 301.529Z" fill="#222221"/>
<path d="M349.752 319.716C348.569 319.516 347.616 318.848 346.648 318.164C345.58 317.418 344.551 316.712 343.383 316.135C342.499 315.697 341.769 314.698 340.724 314.26C339.518 313.753 338.296 314.015 337.151 314.537C335.146 315.451 333.478 317.203 332.042 318.832C330.958 320.062 329.859 321.345 329.053 322.782C327.431 325.671 326.594 328.99 326.21 332.263C325.833 335.452 325.987 338.948 327.508 341.845C329.445 345.541 333.409 346.478 337.251 345.656C339.664 345.141 338.642 341.437 336.229 341.952C335.453 342.121 335.169 342.175 334.247 342.144C334.078 342.137 333.909 342.129 333.74 342.114C334.208 342.16 333.694 342.106 333.609 342.091C333.263 342.014 332.925 341.922 332.595 341.791C333.064 341.975 332.341 341.63 332.226 341.568C332.126 341.514 332.026 341.437 331.934 341.376C332.334 341.653 331.965 341.399 331.888 341.33C331.688 341.138 331.488 340.938 331.304 340.731C330.997 340.369 331.519 341.069 331.266 340.669C331.158 340.508 331.058 340.346 330.958 340.185C330.812 339.931 330.682 339.663 330.559 339.394C330.743 339.824 330.428 338.979 330.382 338.84C330.19 338.218 330.059 337.573 329.967 336.927C330.028 337.388 329.959 336.82 329.959 336.758C329.944 336.589 329.929 336.412 329.921 336.243C329.898 335.89 329.883 335.536 329.883 335.183C329.875 334.461 329.906 333.731 329.975 333.016C330.052 332.133 330.059 332.094 330.228 331.157C330.367 330.381 330.543 329.612 330.758 328.859C330.927 328.245 331.12 327.63 331.335 327.031C331.45 326.716 331.565 326.408 331.696 326.101C331.519 326.516 331.734 326.032 331.757 325.97C331.842 325.786 331.934 325.594 332.026 325.409C332.264 324.933 332.518 324.472 332.81 324.034C333.302 323.281 333.302 323.327 333.878 322.628C335.038 321.214 336.337 319.708 337.789 318.656C337.973 318.525 338.158 318.402 338.35 318.279C338.419 318.241 339.057 317.903 338.811 318.01C338.98 317.941 339.172 317.918 339.341 317.841C339.111 317.941 339.333 317.91 339.218 317.803C339.917 318.44 340.786 319.163 341.685 319.585C344.105 320.738 345.987 322.981 348.723 323.45C349.745 323.627 350.79 323.181 351.089 322.105C351.351 321.16 350.782 319.893 349.752 319.716Z" fill="#222221"/>
<path d="M340.678 343.481C340.87 346.247 341.2 349.052 342.399 351.58C343.475 353.854 345.48 355.499 347.893 356.182C349.537 356.651 351.297 356.705 352.995 356.582C353.994 356.513 354.962 355.752 354.916 354.661C354.87 353.685 354.071 352.663 352.995 352.74C352.273 352.794 351.55 352.817 350.828 352.779C350.528 352.763 350.236 352.725 349.937 352.702C349.814 352.694 350.321 352.771 349.929 352.694C349.768 352.663 349.599 352.633 349.437 352.602C349.184 352.548 348.938 352.479 348.692 352.402C348.561 352.364 348.438 352.317 348.315 352.271C347.916 352.133 348.592 352.41 348.315 352.279C348.093 352.172 347.87 352.064 347.655 351.933C347.562 351.88 347.478 351.826 347.393 351.772C347.347 351.741 347.309 351.71 347.263 351.687C346.994 351.511 347.309 351.68 347.363 351.772C347.263 351.611 347.009 351.472 346.871 351.342C346.702 351.18 346.556 350.988 346.395 350.819C346.233 350.65 346.64 351.165 346.51 350.965C346.479 350.927 346.448 350.881 346.418 350.842C346.356 350.758 346.302 350.673 346.241 350.589C346.095 350.374 345.964 350.143 345.849 349.913C345.803 349.82 345.749 349.72 345.703 349.628C345.488 349.175 345.726 349.621 345.695 349.636C345.711 349.628 345.449 348.975 345.419 348.898C345.242 348.368 345.104 347.83 344.981 347.285C344.912 346.977 344.858 346.662 344.804 346.347C344.773 346.171 344.75 346.002 344.72 345.825C344.65 345.371 344.75 346.071 344.704 345.733C344.62 344.98 344.543 344.219 344.489 343.458C344.42 342.459 343.659 341.491 342.568 341.537C341.615 341.599 340.601 342.406 340.678 343.481Z" fill="#222221"/>
<path d="M278.295 151.621C290.665 152.582 303.059 152.036 315.445 151.936C321.707 151.89 327.977 151.959 334.224 152.412C340.363 152.858 346.379 153.872 352.442 154.902C364.244 156.9 376.053 158.882 387.725 161.571C393.687 162.947 399.604 164.507 405.451 166.312C410.261 167.803 414.802 169.516 419.105 172.159C427.357 177.215 434.088 184.323 440.665 191.33C442.34 193.12 444.015 194.911 445.705 196.686C446.482 197.5 447.265 198.307 448.057 199.114C449.079 200.151 449.855 201.326 450.7 202.517C453.996 207.135 457.508 211.599 461.188 215.925C465.014 220.42 469.025 224.754 473.151 228.972C475.095 230.962 476.955 232.783 478.253 235.28C479.398 237.486 480.167 239.852 481.035 242.173C481.957 244.631 482.971 247.098 484.515 249.242C486.121 251.462 488.081 253.329 490.025 255.25C490.824 256.042 491.8 256.864 492.43 257.793C493.183 258.908 493.813 260.076 494.666 261.136C496.387 263.272 497.808 265.615 499.153 268.02C504.839 278.201 506.852 290.165 508.427 301.59C509.234 307.437 509.818 313.315 510.44 319.186C510.763 322.228 511.093 325.263 511.454 328.306C511.623 329.743 511.739 331.211 512.077 332.624C512.438 334.13 512.745 335.659 512.953 337.196C513.344 340.101 513.36 343.051 513.006 345.963C512.883 346.993 513.982 347.884 514.927 347.884C516.072 347.884 516.725 347 516.848 345.963C517.225 342.844 517.14 339.724 516.718 336.612C516.318 333.669 515.596 330.811 515.242 327.861C514.52 321.767 513.928 315.651 513.245 309.558C512.568 303.588 511.8 297.625 510.717 291.717C509.626 285.77 508.342 279.692 506.183 274.029C505.192 271.424 504.009 268.904 502.664 266.461C501.266 263.917 499.798 261.205 497.877 259.031C497.109 258.162 496.494 257.186 495.91 256.188C495.226 255.02 494.22 254.044 493.275 253.083C491.423 251.209 489.387 249.457 487.827 247.313C484.715 243.041 483.885 237.616 481.388 233.014C480.036 230.509 478.146 228.596 476.171 226.583C474.035 224.4 471.93 222.195 469.87 219.952C465.929 215.664 462.125 211.238 458.529 206.651C456.762 204.392 455.049 202.079 453.397 199.728C452.636 198.653 451.945 197.608 451.015 196.67C450.101 195.74 449.194 194.803 448.295 193.866C441.518 186.766 435.041 179.298 427.272 173.235C423.385 170.2 419.22 167.511 414.687 165.536C409.423 163.239 403.768 161.74 398.228 160.25C386.465 157.084 374.494 154.825 362.499 152.758C356.399 151.706 350.298 150.553 344.166 149.669C337.827 148.755 331.442 148.317 325.042 148.163C312.533 147.871 300.016 148.617 287.507 148.271C284.426 148.186 281.353 148.033 278.287 147.795C275.836 147.587 275.843 151.429 278.295 151.621Z" fill="#222221"/>
<path d="M217.179 283.288C217.194 284.048 217.194 284.801 217.148 285.562C217.102 286.246 217.102 286.384 216.925 287.037C216.879 287.222 216.818 287.406 216.749 287.583C216.657 287.852 216.895 287.299 216.764 287.537C216.733 287.598 216.703 287.667 216.664 287.729C216.572 287.89 216.472 288.044 216.38 288.198C216.119 288.613 216.488 288.113 216.219 288.405C214.751 290.057 213.276 291.794 212.454 293.868C211.509 296.25 211.462 299.032 211.578 301.552C211.693 304.003 211.97 306.569 212.73 308.913C214.252 313.577 217.694 316.896 222.181 318.74C226.438 320.492 231.225 320.845 235.781 320.868C240.192 320.884 244.594 320.515 248.997 320.346C255.313 320.1 261.106 318.133 266.416 314.737C269.374 312.839 272.171 310.703 275.114 308.782C278.187 306.769 281.291 304.802 284.257 302.635C285.617 301.644 286.962 300.622 288.245 299.539C288.575 299.262 287.945 299.754 288.222 299.554C288.345 299.462 288.468 299.37 288.591 299.277C288.875 299.07 289.159 298.87 289.444 298.67C290.942 297.625 292.463 296.611 293.977 295.589C297.788 292.992 301.591 290.318 305.018 287.222C307.792 284.717 310.996 281.497 311.403 277.587C311.488 276.81 311.411 276.011 311.188 275.266C310.489 272.9 306.778 273.906 307.485 276.288C307.531 276.449 307.554 276.618 307.608 276.772C307.515 276.449 307.6 276.526 307.6 276.818C307.6 276.964 307.6 277.11 307.592 277.264C307.592 277.348 307.577 277.433 307.569 277.517C307.577 277.394 307.654 277.156 307.577 277.394C307.477 277.725 307.4 278.063 307.293 278.386C307.162 278.801 307.385 278.232 307.231 278.539C307.139 278.724 307.054 278.908 306.955 279.085C306.063 280.729 305.195 281.674 303.797 283.073C300.715 286.154 297.373 288.566 293.816 291.041C291.042 292.969 288.122 294.736 285.479 296.849C280.108 301.145 274.192 304.594 268.59 308.567C263.773 311.986 258.963 315.06 253.054 316.105C250.687 316.519 248.275 316.519 245.877 316.65C243.78 316.765 241.682 316.896 239.577 316.973C235.159 317.134 230.725 317.119 226.576 316.128C224.486 315.628 222.888 315.06 221.144 313.953C219.615 312.993 218.332 311.702 217.394 310.065C216.426 308.383 215.934 306.369 215.665 304.402C215.335 302.028 215.204 299.27 215.573 297.034C215.665 296.504 215.781 295.973 215.95 295.459C215.98 295.374 216.203 294.821 216.065 295.113C216.196 294.836 216.349 294.567 216.511 294.306C217.102 293.307 217.509 292.762 218.186 291.986C219.369 290.633 220.391 289.342 220.729 287.529C220.99 286.131 221.029 284.709 220.998 283.295C220.982 280.814 217.141 280.806 217.179 283.288Z" fill="#222221"/>
<path d="M230.656 277.433C233.722 277.74 236.818 278.24 239.638 276.672C240.768 276.042 241.759 275.235 243.042 274.928C244.271 274.636 245.555 274.705 246.807 274.636C248.298 274.551 249.734 274.313 251.102 273.699C252.332 273.145 253.415 272.254 254.475 271.432C256.396 269.934 258.156 268.251 260 266.66C261.729 265.17 263.557 263.81 265.624 262.834C268.144 261.651 271.026 261.351 273.746 260.944C276.758 260.49 279.785 260.052 282.697 259.123C285.702 258.162 288.575 256.841 291.595 255.919C294.1 255.158 297.127 254.328 299.517 254.697C299.962 254.766 300.639 254.951 300.923 255.081C301.238 255.227 301.561 255.465 301.783 255.696C301.929 255.85 302.145 256.195 302.229 256.449C302.429 257.04 302.444 257.571 302.421 258.208C302.337 260.683 306.178 260.675 306.263 258.208C306.347 255.719 305.441 253.345 303.259 251.985C301.361 250.809 298.917 250.632 296.758 250.878C293.585 251.232 290.519 252.146 287.53 253.229C284.449 254.344 281.476 255.627 278.256 256.303C275.09 256.971 271.863 257.294 268.69 257.901C266.008 258.416 263.488 259.415 261.198 260.913C259.062 262.319 257.149 264.033 255.244 265.738C254.314 266.568 253.384 267.398 252.416 268.182C251.471 268.95 250.441 269.841 249.312 270.31C247.952 270.879 246.407 270.787 244.963 270.856C243.203 270.933 241.505 271.201 239.922 272.016C238.716 272.638 237.648 273.637 236.28 273.875C234.452 274.19 232.469 273.768 230.656 273.583C229.619 273.483 228.735 274.536 228.735 275.504C228.735 276.634 229.619 277.325 230.656 277.433Z" fill="#222221"/>
<path d="M213.437 291.317C213.629 290.787 213.829 290.272 214.044 289.75C213.982 289.903 213.913 290.057 213.852 290.211C214.52 288.628 215.319 287.107 216.257 285.67C216.802 284.824 216.457 283.511 215.565 283.042C214.613 282.535 213.521 282.827 212.938 283.733C211.608 285.785 210.556 288.005 209.733 290.303C209.395 291.248 210.118 292.447 211.078 292.669C212.146 292.9 213.068 292.331 213.437 291.317Z" fill="#222221"/>
<path d="M237.302 326.416C238.225 332.747 241.459 338.034 245.754 342.659C247.806 344.864 249.95 347.047 252.239 349.014C254.022 350.543 256.012 351.979 258.348 352.51C264.418 353.9 270.342 349.828 275.329 346.993C276.935 346.078 278.556 345.279 280.315 344.718C282.006 344.181 283.742 343.819 285.471 343.428C288.744 342.69 291.918 341.753 294.715 339.832C299.501 336.543 302.905 331.602 308.107 328.875C314.17 325.701 319.825 321.729 324.619 316.819C326.41 314.983 328.077 313.016 329.79 311.103C331.596 309.089 333.379 307.061 335.069 304.956C336.759 302.85 338.419 300.684 339.741 298.317C340.909 296.235 341.838 293.937 341.654 291.509C341.193 285.539 336.122 280.821 331.396 277.756C328.861 276.111 326.079 274.859 323.098 274.267C319.51 273.553 315.845 273.583 312.21 273.699C310.428 273.76 308.637 273.829 306.855 273.829C304.381 273.837 304.381 277.679 306.855 277.671C313.255 277.656 320.355 276.465 326.356 279.315C328.607 280.383 330.728 281.789 332.603 283.434C334.462 285.07 336.26 286.999 337.236 289.304C337.697 290.403 337.904 291.44 337.835 292.577C337.812 292.9 337.735 293.3 337.62 293.691C337.558 293.899 337.497 294.099 337.42 294.298C337.374 294.421 337.336 294.537 337.29 294.652C337.174 294.936 337.29 294.66 337.213 294.836C336.237 296.995 334.862 298.97 333.44 300.853C330.636 304.571 327.408 307.929 324.358 311.433C320.14 316.266 315.23 320.323 309.713 323.588C307.039 325.164 304.288 326.454 301.868 328.421C299.747 330.135 297.88 332.125 295.882 333.977C293.992 335.721 291.918 337.388 289.482 338.318C286.309 339.532 282.889 339.916 279.647 340.9C273.439 342.79 268.452 347.846 261.944 348.86C260.307 349.113 258.709 348.783 257.218 347.915C255.213 346.739 253.507 344.98 251.778 343.274C247.806 339.34 243.818 335.214 242.036 329.781C241.567 328.352 241.244 326.877 241.029 325.386C240.875 324.357 239.577 323.796 238.662 324.042C237.548 324.349 237.156 325.379 237.302 326.416Z" fill="#222221"/>
<path d="M258.555 356.497C259.254 352.586 257.733 349.029 255.728 345.748C254.79 344.211 252.009 344.734 252.147 346.716C252.37 349.843 252.516 352.994 253.061 356.09C253.576 359.002 254.614 361.776 256.012 364.381C256.826 365.894 257.787 367.316 258.655 368.799C259.462 370.19 260.215 371.603 261.045 372.979C262.735 375.776 264.817 378.35 267.691 379.979C280.277 387.124 295.36 382.545 306.509 374.877C309.283 372.963 311.926 370.85 314.4 368.568C315.622 367.439 316.797 366.271 318.134 365.272C319.525 364.242 320.985 363.29 322.414 362.322C325.364 360.324 328.33 358.165 330.274 355.107C332.049 352.31 332.702 348.983 334.508 346.186C337.973 340.823 343.598 337.288 347.171 331.994C348.63 329.827 349.706 327.353 350.92 325.041C352.319 322.382 353.686 319.693 354.839 316.911C355.807 314.568 356.752 311.994 356.721 309.427C356.691 306.615 355.692 303.772 353.917 301.598C350.713 297.687 345.257 296.796 340.501 296.519C339.31 296.45 338.119 296.419 336.921 296.396C334.446 296.35 334.446 300.192 336.921 300.238C341.246 300.315 345.872 300.338 349.422 302.666C350.966 303.68 352.073 305.317 352.572 307.337C352.833 308.398 352.949 309.474 352.81 310.557C352.849 310.257 352.749 310.887 352.733 310.964C352.68 311.248 352.611 311.533 352.541 311.817C352.388 312.424 352.203 313.031 351.996 313.623C350.336 318.479 347.601 322.889 345.334 327.476C342.668 332.863 337.697 336.351 333.824 340.784C331.634 343.297 330.051 345.986 328.845 349.09C328.323 350.443 327.808 351.787 327.039 353.024C326.171 354.423 324.98 355.575 323.72 356.62C321.277 358.649 318.472 360.216 315.937 362.129C313.363 364.073 311.15 366.417 308.66 368.461C299.332 376.129 286.478 382.345 274.253 378.603C271.318 377.704 268.529 376.375 266.477 374.047C264.541 371.842 263.281 369.099 261.805 366.586C260.315 364.043 258.67 361.63 257.71 358.826C256.873 356.39 256.527 353.908 256.312 351.372C256.181 349.82 256.089 348.261 255.974 346.708C254.783 347.031 253.584 347.354 252.393 347.677C253.784 349.959 255.328 352.686 254.836 355.468C254.652 356.49 255.113 357.535 256.181 357.834C257.126 358.096 258.378 357.519 258.555 356.497Z" fill="#222221"/>
<path d="M294.899 381.054C294.845 384.105 295.367 387.286 297.027 389.906C298.502 392.234 300.685 393.878 303.228 394.885C308.476 396.967 314.707 396.145 319.963 394.539C325.418 392.872 330.758 390.121 334.738 385.972C340.501 379.979 347.816 375.253 351.65 367.639C352.841 365.28 353.479 362.767 354.447 360.332C355.461 357.773 356.875 355.383 357.897 352.825C360.087 347.331 358.934 341.653 358.903 335.928C358.888 333.454 355.046 333.454 355.062 335.928C355.092 340.569 356.183 345.471 354.823 350.005C354.17 352.187 353.079 354.192 352.096 356.236C351.066 358.372 350.359 360.547 349.575 362.767C348.3 366.363 346.225 369.552 343.613 372.318C340.924 375.169 337.866 377.635 335.015 380.309C333.693 381.546 332.464 382.883 331.15 384.135C330.136 385.104 329.513 385.572 328.568 386.233C327.477 386.986 326.34 387.662 325.172 388.285C323.904 388.953 322.752 389.468 321.668 389.89C319.118 390.882 316.459 391.612 313.754 392.011C313.147 392.103 314.131 391.973 313.524 392.042C313.339 392.065 313.155 392.088 312.971 392.103C312.663 392.134 312.364 392.157 312.056 392.18C311.403 392.226 310.742 392.249 310.082 392.242C309.444 392.234 308.806 392.203 308.168 392.142C308.053 392.134 307.946 392.119 307.83 392.103C307.269 392.042 308.222 392.172 307.669 392.08C307.339 392.026 307.016 391.973 306.685 391.904C306.055 391.773 305.425 391.604 304.818 391.389C304.672 391.335 304.519 391.281 304.373 391.227C303.881 391.043 304.726 391.396 304.257 391.181C303.973 391.051 303.696 390.92 303.428 390.774C303.159 390.628 302.897 390.474 302.636 390.305C302.506 390.221 302.383 390.136 302.26 390.044C301.952 389.829 302.475 390.252 302.106 389.929C301.622 389.506 301.169 389.076 300.754 388.584C300.523 388.315 300.723 388.554 300.769 388.607C300.646 388.438 300.523 388.269 300.408 388.092C300.231 387.824 300.07 387.547 299.916 387.263C299.855 387.14 299.793 387.017 299.732 386.894C299.693 386.817 299.463 386.271 299.624 386.663C299.494 386.341 299.378 386.01 299.278 385.68C298.771 383.997 298.687 382.868 298.717 381.047C298.779 378.58 294.937 378.58 294.899 381.054Z" fill="#222221"/>
<path d="M347.609 374.047C349.245 380.555 356.437 381.17 362.038 380.893C364.659 380.762 367.256 380.524 369.876 380.463C373.157 380.386 376.399 379.302 379.357 377.958C382.438 376.559 385.474 374.623 387.556 371.918C389.738 369.083 389.784 365.702 389.523 362.268C389.384 360.493 389.162 358.726 389.046 356.943C388.908 354.915 389.008 352.871 388.97 350.835C388.87 346.055 388.101 341.491 386.695 336.919C385.896 334.307 384.974 331.725 384.037 329.151C383.145 326.693 382.362 324.165 381.117 321.86C379.019 317.956 375.746 314.852 373.449 311.072C372.45 309.435 369.914 310.134 369.868 312.04C369.591 323.727 377.782 332.932 380.203 343.958C380.733 346.37 384.436 345.348 383.906 342.936C381.578 332.332 373.449 323.235 373.71 312.04C372.519 312.363 371.32 312.685 370.129 313.008C372.058 316.174 374.64 318.84 376.676 321.921C378.989 325.417 380.156 329.597 381.532 333.523C382.976 337.649 384.405 341.891 384.859 346.255C385.258 350.135 384.943 354.031 385.281 357.911C385.55 360.977 386.296 364.696 385.566 367.539C385.297 368.591 384.667 369.498 383.822 370.382C382.83 371.411 381.709 372.249 380.495 372.994C377.905 374.592 375.016 375.76 372.027 376.352C370.014 376.751 367.34 376.659 365.02 376.836C363.514 376.951 362.008 377.059 360.502 377.089C359.142 377.12 357.382 377.059 356.368 376.882C354.885 376.628 353.994 376.352 352.895 375.599C352.618 375.414 353.21 375.891 352.795 375.522C352.664 375.407 352.534 375.284 352.411 375.161C352.326 375.076 352.25 374.992 352.173 374.9C351.812 374.485 352.342 375.184 352.034 374.715C351.581 374.008 351.52 373.847 351.312 373.017C350.713 370.628 347.002 371.642 347.609 374.047Z" fill="#222221"/>
<path d="M381.401 331.426C381.593 330.872 381.778 330.327 381.97 329.774C380.902 330.058 379.826 330.342 378.758 330.619C381.601 334.253 384.536 337.811 387.402 341.422C389.991 344.68 392.427 348.045 394.917 351.388C397.245 354.515 399.711 357.55 402.477 360.308C405.036 362.859 407.91 365.326 411.198 366.87C415.732 368.999 420.941 369.913 425.882 370.489C431.222 371.112 436.823 371.127 442.056 369.721C447.619 368.223 452.482 364.734 454.104 358.995C454.772 356.613 451.069 355.591 450.4 357.973C450.062 359.179 449.847 359.701 449.171 360.777C448.656 361.592 448.172 362.16 447.265 362.959C446.758 363.405 446.789 363.382 446.228 363.751C445.767 364.058 445.29 364.335 444.806 364.596C443.761 365.149 443.139 365.387 441.902 365.772C437.161 367.231 432.151 367.262 427.073 366.77C422.877 366.363 418.229 365.472 414.026 363.912C411.014 362.798 408.394 360.639 406.089 358.449C403.476 355.967 401.117 353.209 398.927 350.35C396.192 346.77 393.603 343.097 390.806 339.563C387.717 335.659 384.551 331.818 381.478 327.899C380.517 326.67 378.681 327.53 378.266 328.744C378.074 329.297 377.89 329.843 377.698 330.396C377.359 331.38 378.082 332.494 379.042 332.763C380.087 333.055 381.063 332.409 381.401 331.426Z" fill="#222221"/>
<path d="M452.244 362.921C454.25 362.89 455.395 363.144 457.362 363.551C459.359 363.966 461.342 364.465 463.339 364.873C467.327 365.687 471.699 366.348 475.564 364.665C480.412 362.552 481.772 357.335 482.694 352.594C483.394 348.998 483.824 345.348 484.054 341.699C484.262 338.318 484.377 334.922 483.893 331.564C483.056 325.778 479.99 320.599 477.339 315.49C474.289 309.604 470.531 304.133 466.651 298.778C459.067 288.305 450.892 278.017 446.474 265.708C445.506 263.003 444.568 260.237 443.846 257.455C443.393 255.68 443.032 253.89 442.532 252.123C441.51 248.519 439.705 243.94 435.402 243.525C434.395 243.425 433.366 243.633 432.428 243.994C431.253 244.455 430.653 245.63 431.283 246.814C432.643 249.388 434.18 251.854 435.571 254.405C436.946 256.918 438.068 259.492 438.967 262.212C440.696 267.475 442.133 272.869 445.875 277.126C446.558 277.902 447.888 277.825 448.595 277.126C449.371 276.349 449.278 275.189 448.595 274.406C445.129 270.456 444.03 265.147 442.378 260.306C440.488 254.782 437.315 249.995 434.603 244.87C434.218 245.807 433.834 246.752 433.458 247.69C433.88 247.528 434.311 247.374 434.764 247.313C434.403 247.359 434.895 247.336 435.018 247.328C435.094 247.321 435.179 247.336 435.256 247.336C434.995 247.321 435.071 247.282 435.286 247.351C435.456 247.405 435.625 247.444 435.794 247.505C435.479 247.382 435.732 247.482 435.878 247.574C435.932 247.613 436.354 247.905 436.185 247.774C436.039 247.659 436.431 248.012 436.516 248.097C436.646 248.235 436.777 248.373 436.892 248.527C436.67 248.25 436.977 248.665 437.038 248.758C437.284 249.134 437.499 249.526 437.699 249.933C437.922 250.379 437.968 250.494 438.076 250.786C438.245 251.247 438.414 251.716 438.56 252.184C439.105 253.913 439.489 255.696 439.912 257.455C440.465 259.799 441.218 262.096 441.979 264.378C443.908 270.21 446.458 275.758 449.624 281.021C452.89 286.446 456.639 291.555 460.381 296.657C464.138 301.775 467.903 306.9 471.177 312.34C472.813 315.052 474.242 317.864 475.695 320.676C476.893 322.997 478.146 325.317 479.014 327.791C481.042 333.546 480.52 339.885 479.867 345.856C479.506 349.152 478.937 352.456 478.069 355.66C477.539 357.596 476.77 359.156 475.349 360.378C475.118 360.577 475.449 360.339 475.103 360.562C474.957 360.654 474.811 360.754 474.657 360.846C474.481 360.946 474.304 361.046 474.12 361.138C474.02 361.192 473.912 361.238 473.805 361.284C473.981 361.207 473.927 361.231 473.774 361.284C473.382 361.423 472.99 361.538 472.59 361.638C472.383 361.684 472.183 361.722 471.976 361.761C471.546 361.838 472.022 361.776 471.584 361.814C470.693 361.884 469.809 361.899 468.925 361.845C468.464 361.814 468.003 361.768 467.542 361.722C467.442 361.715 467.343 361.699 467.243 361.684C467.527 361.722 467.189 361.676 467.15 361.668C466.882 361.63 466.605 361.584 466.336 361.538C462.425 360.885 458.622 359.701 454.688 359.233C453.889 359.133 453.082 359.079 452.275 359.087C449.778 359.11 449.77 362.952 452.244 362.921Z" fill="#222221"/>
<path d="M487.343 345.371C489.817 345.371 489.817 341.53 487.343 341.53C484.869 341.53 484.869 345.371 487.343 345.371Z" fill="#222221"/>
<path d="M486.375 345.11C491.923 347.869 497.04 351.511 502.903 353.631C505.338 354.507 508.127 355.145 510.686 354.43C513.483 353.654 515.227 351.311 516.057 348.629C516.633 346.77 516.81 344.764 516.848 342.828C516.902 339.978 516.841 337.112 516.825 334.261C516.81 331.295 516.956 328.298 516.764 325.348C516.602 322.905 516.141 320.5 515.604 318.118C515.027 315.597 514.382 313.085 514.182 310.503C513.952 307.614 514.005 304.71 513.567 301.836C513.137 299.001 512.184 296.242 511.385 293.499C510.578 290.71 509.695 287.913 509.049 285.078C508.45 282.458 508.158 279.776 507.628 277.141C507.121 274.628 506.429 272.093 504.739 270.11C503.387 268.528 501.55 267.421 499.852 266.253C499.053 265.708 498.5 265.323 497.824 264.64C497.186 264.002 496.902 263.533 496.717 262.726C496.172 260.314 492.468 261.336 493.014 263.748C493.867 267.506 497.616 269.158 500.398 271.294C501.627 272.239 502.526 273.284 503.056 274.828C503.802 277.01 504.155 279.315 504.524 281.582C505.377 286.861 506.936 291.924 508.412 297.057C509.157 299.639 509.864 302.151 510.048 304.848C510.24 307.637 510.217 310.419 510.648 313.185C511.378 317.918 512.96 322.42 512.991 327.253C513.007 330.104 512.976 332.947 512.999 335.798C513.014 338.502 513.122 341.23 512.968 343.927C512.884 345.471 512.684 346.962 512.054 348.476C512.2 348.122 511.877 348.821 511.823 348.914C511.685 349.16 511.531 349.39 511.37 349.621C511.201 349.859 511.677 349.298 511.355 349.628C511.255 349.728 511.17 349.836 511.07 349.936C510.97 350.028 510.87 350.12 510.771 350.212C510.44 350.504 511.109 350.005 510.74 350.235C510.517 350.374 510.294 350.496 510.064 350.619C509.687 350.819 510.371 350.52 510.102 350.604C510.002 350.635 509.895 350.673 509.795 350.712C509.541 350.788 509.28 350.842 509.019 350.888C509.58 350.781 508.742 350.904 508.573 350.904C508.312 350.911 508.043 350.904 507.782 350.888C507.643 350.881 506.814 350.773 507.321 350.85C506.683 350.75 506.045 350.604 505.423 350.427C502.38 349.559 499.783 348.145 496.84 346.516C494.005 344.941 491.223 343.251 488.319 341.806C486.106 340.692 484.162 344.004 486.375 345.11Z" fill="#222221"/>
<path d="M337.436 148.563C336.621 148.394 335.991 148.087 335.422 147.572C334.723 146.942 334.247 146.289 333.763 145.474C332.772 143.815 332.134 142.124 331.404 140.38C329.66 136.2 326.702 132.212 326.048 127.648C325.787 125.789 326.264 124.275 327.155 122.623C328.215 120.664 329.567 118.873 331.035 117.206C333.817 114.04 337.067 110.798 341.262 109.707C346.133 108.431 350.721 110.468 354.532 113.395C358.673 116.576 362.185 120.533 365.488 124.544C369.1 128.916 372.511 133.465 376.392 137.606C379.957 141.41 383.883 144.913 388.716 146.996C390.829 147.91 393.011 148.601 395.224 149.216C397.575 149.869 399.888 150.299 401.932 151.69C403.914 153.043 405.666 154.549 407.91 155.471C409.823 156.254 411.867 156.746 413.711 157.691C414.579 158.137 415.178 158.544 415.77 159.289C416.416 160.104 417.814 159.965 418.49 159.289C419.289 158.49 419.136 157.384 418.49 156.569C417.038 154.748 414.687 153.842 412.558 153.073C410.399 152.297 408.478 151.698 406.604 150.369C404.414 148.809 402.439 147.195 399.796 146.465C397.399 145.805 394.986 145.213 392.635 144.406C387.648 142.7 383.714 139.627 380.072 135.877C375.907 131.598 372.319 126.818 368.531 122.208C364.966 117.859 361.193 113.687 356.721 110.26C352.296 106.864 347.155 104.789 341.5 105.727C336.583 106.541 332.641 109.845 329.329 113.364C326.194 116.707 322.606 120.956 322.168 125.704C321.699 130.737 324.873 135.578 326.993 139.904C327.877 141.702 328.523 143.576 329.468 145.566C330.436 147.61 331.68 149.577 333.517 150.945C334.37 151.583 335.361 152.036 336.406 152.259C338.826 152.781 339.864 149.078 337.436 148.563Z" fill="#222221"/>
<path d="M367.01 124.759C370.79 124.759 374.578 124.759 378.359 124.759C382.101 124.759 385.866 124.636 389.6 124.828C392.904 125.005 396.162 125.527 399.427 126.05C402.808 126.588 406.173 126.964 409.577 127.279C414.379 127.717 419.105 129.346 422.447 132.927C424.153 134.756 425.352 136.991 426.32 139.289C426.758 140.342 427.142 141.425 427.419 142.524C427.68 143.592 427.741 143.853 427.734 144.883C427.734 145.136 427.718 145.382 427.695 145.628C427.734 145.221 427.672 145.751 427.641 145.904C427.595 146.104 427.534 146.304 427.48 146.504C427.326 147.003 427.557 146.465 427.349 146.819C427.25 146.996 427.157 147.18 427.05 147.349C426.996 147.434 426.934 147.518 426.873 147.603C426.712 147.833 427.173 147.28 426.835 147.649C426.535 147.979 426.228 148.286 425.874 148.563C426.143 148.348 425.621 148.732 425.536 148.786C425.298 148.939 425.044 149.085 424.791 149.224C424.253 149.516 423.876 149.685 423.408 149.862C422.025 150.384 420.588 150.753 419.143 151.052C418.129 151.268 417.537 152.459 417.799 153.419C418.091 154.472 419.143 154.971 420.165 154.764C424.514 153.849 429.793 152.113 431.222 147.372C431.837 145.336 431.568 143.108 431.015 141.087C430.292 138.444 429.117 135.77 427.657 133.449C424.606 128.593 419.789 125.428 414.241 124.144C411.022 123.399 407.71 123.361 404.445 122.938C400.879 122.469 397.337 121.786 393.764 121.348C389.4 120.817 385.02 120.902 380.625 120.902C376.084 120.902 371.543 120.902 367.002 120.902C364.536 120.917 364.536 124.759 367.01 124.759Z" fill="#222221"/>
<path d="M414.641 159.858C421.656 160.419 428.802 160.227 435.663 158.575C442.886 156.838 449.202 152.989 455.61 149.37C462.102 145.705 468.756 142.378 475.119 138.49C478.238 136.584 481.319 134.61 484.416 132.658C487.604 130.645 490.954 128.816 494.074 126.711C496.786 124.882 498.999 122.531 500.959 119.934C503.049 117.168 504.562 114.056 506.391 111.128C510.11 105.174 514.39 99.6029 518.531 93.9477C520.636 91.0741 522.588 88.1466 525.07 85.5803C527.429 83.1369 529.98 80.8318 531.962 78.0503C532.945 76.6673 533.76 75.169 534.759 73.7859C535.712 72.4566 536.726 71.1812 537.771 69.921C539.915 67.3317 542.166 64.8268 544.256 62.199C546.369 59.5404 548.343 56.8204 550.672 54.3463C552.946 51.926 555.389 49.6747 557.917 47.5309C560.484 45.3488 563.134 43.2742 565.778 41.1996C568.536 39.0405 571.302 36.9429 573.784 34.4611C575.021 33.224 576.25 31.9946 577.487 30.7653C579.239 29.0134 576.527 26.3011 574.768 28.0452C572.293 30.5194 569.904 33.0627 567.161 35.2448C564.51 37.3578 561.828 39.417 559.185 41.5377C554.052 45.6408 549.081 49.9743 544.924 55.0839C542.757 57.7578 540.729 60.524 538.493 63.1441C536.319 65.695 534.121 68.2306 532.116 70.9199C531.109 72.2722 530.156 73.663 529.28 75.0998C528.42 76.5136 527.344 77.743 526.207 78.9416C523.925 81.3543 521.451 83.5825 519.407 86.218C517.156 89.1301 515.081 92.1882 512.891 95.1541C510.832 97.9432 508.765 100.732 506.783 103.583C504.823 106.403 502.941 109.277 501.227 112.25C500.382 113.718 499.622 115.216 498.646 116.607C497.77 117.852 496.84 119.05 495.803 120.164C494.766 121.278 493.636 122.323 492.391 123.199C490.901 124.252 489.249 125.113 487.697 126.065C484.585 127.971 481.504 129.938 478.415 131.89C475.372 133.81 472.314 135.716 469.21 137.529C465.944 139.435 462.586 141.141 459.259 142.939C456.048 144.667 452.882 146.496 449.701 148.279C446.505 150.061 443.301 151.975 439.866 153.265C433.412 155.693 426.504 156.439 419.643 156.277C417.975 156.239 416.3 156.139 414.641 156.008C413.603 155.924 412.72 156.954 412.72 157.929C412.72 159.043 413.603 159.773 414.641 159.858Z" fill="#222221"/>
<path d="M485.422 122.838C485.361 123.391 485.299 123.937 485.238 124.49C485.023 126.365 488.035 127.141 488.818 125.458C490.055 122.8 491.661 120.925 493.713 118.866C495.734 116.83 497.923 114.97 499.952 112.949C499.045 112.043 498.139 111.136 497.232 110.229C495.987 111.474 494.742 112.719 493.505 113.956C492.775 114.686 492.775 115.938 493.505 116.676C494.243 117.414 495.488 117.414 496.225 116.676C497.47 115.431 498.715 114.186 499.952 112.949C500.682 112.219 500.682 110.967 499.952 110.229C499.214 109.492 497.97 109.492 497.232 110.229C493.067 114.371 488.027 118.051 485.491 123.522C486.682 123.845 487.881 124.167 489.072 124.49C489.133 123.937 489.195 123.391 489.256 122.838C489.372 121.809 488.288 120.917 487.335 120.917C486.206 120.917 485.537 121.801 485.422 122.838Z" fill="#222221"/>
<path d="M492.867 119.68C495.395 119.25 497.831 118.205 499.99 116.845C500.682 116.407 501.143 115.5 500.874 114.678C500.628 113.917 499.883 113.195 499.022 113.264C498.469 113.31 497.923 113.357 497.37 113.403C496.855 113.449 496.387 113.587 496.01 113.964C495.68 114.294 495.426 114.847 495.449 115.324C495.495 116.292 496.294 117.337 497.37 117.245C497.923 117.198 498.469 117.152 499.022 117.106C498.699 115.915 498.377 114.717 498.054 113.526C497.554 113.841 497.04 114.14 496.517 114.409C496.233 114.555 495.949 114.694 495.664 114.824C495.557 114.87 495.449 114.924 495.342 114.97C495.149 115.055 495.196 115.032 495.472 114.916C495.395 114.947 495.326 114.978 495.249 115.009C494.151 115.447 493.013 115.777 491.846 115.977C491.4 116.054 490.916 116.484 490.701 116.86C490.462 117.275 490.355 117.882 490.509 118.343C490.854 119.411 491.807 119.857 492.867 119.68Z" fill="#222221"/>
<path d="M508.757 287.153C520.267 276.104 534.305 268.205 548.612 261.374C553.092 259.238 557.625 257.194 562.159 255.173C563.104 254.751 563.327 253.368 562.85 252.546C562.282 251.57 561.175 251.431 560.222 251.854C545.101 258.585 529.918 265.615 516.587 275.55C512.899 278.301 509.357 281.244 506.037 284.433C504.255 286.146 506.975 288.866 508.757 287.153Z" fill="#222221"/>
<path d="M202.703 96.6216C212.991 108.908 225.262 119.404 238.709 128.094C245.393 132.412 252.355 136.285 259.508 139.773C266.954 143.407 274.637 146.45 282.282 149.631C291.533 153.473 300.869 157.491 310.766 159.335C312.978 159.75 313.985 157.138 312.249 155.824C308.875 153.281 304.657 154.08 300.869 152.781C298.871 152.097 297.035 151.029 295.106 150.184C293.063 149.293 290.911 148.701 288.798 148.002C280.861 145.367 273.193 142.001 265.824 138.052C258.125 133.926 250.71 129.239 243.319 124.59C235.912 119.934 228.597 115.116 221.513 109.968C213.591 104.213 205.992 98.0277 198.907 91.2585C198.454 92.3495 198.001 93.4483 197.547 94.5394C198.054 94.5855 198.554 94.6239 199.061 94.67C200.098 94.7622 200.982 93.7249 200.982 92.7491C200.982 91.635 200.098 90.9204 199.061 90.8282C198.554 90.7821 198.054 90.7437 197.547 90.6976C195.865 90.5516 195.042 92.8797 196.187 93.9785C208.965 106.18 223.418 116.468 238.286 125.95C252.908 135.278 267.691 144.483 284.073 150.415C286.385 151.252 288.729 152.028 291.08 152.758C293.331 153.457 295.368 154.587 297.511 155.54C299.763 156.539 301.968 157.115 304.419 157.376C306.563 157.607 308.537 157.806 310.32 159.143C310.812 157.975 311.303 156.8 311.803 155.632C303.059 154.003 294.745 150.653 286.554 147.272C279.009 144.145 271.395 141.171 264.011 137.683C249.857 130.998 236.319 122.831 224.302 112.757C217.479 107.041 211.155 100.732 205.438 93.9093C204.77 93.1102 203.41 93.2178 202.718 93.9093C201.912 94.6931 202.035 95.8225 202.703 96.6216Z" fill="#222221"/>
<path d="M169.087 253.268C174.366 257.909 181.173 259.53 187.167 262.941C190.271 264.701 192.668 267.252 195.457 269.434C198.408 271.747 201.789 273.038 205.162 274.598C208.98 276.365 212.768 278.393 217.11 277.617C218.132 277.433 218.708 276.188 218.454 275.251C218.162 274.175 217.117 273.722 216.088 273.906C212.907 274.475 209.718 272.477 206.952 271.209C203.863 269.788 200.613 268.635 197.916 266.507C195.219 264.386 192.868 261.881 189.91 260.091C187.136 258.4 184.116 257.194 181.143 255.911C177.846 254.49 174.527 252.937 171.807 250.548C171.031 249.864 169.855 249.779 169.087 250.548C168.388 251.255 168.303 252.584 169.087 253.268Z" fill="#222221"/>
<path d="M224.117 273.845C218.455 274.575 212.899 276.273 207.137 275.742C207.459 275.827 207.782 275.919 208.105 276.004C194.85 269.35 183.217 260.022 171.776 250.701C170.97 250.048 169.848 249.918 169.056 250.701C168.38 251.378 168.25 252.761 169.056 253.421C175.518 258.685 182.011 263.925 188.811 268.735C192.161 271.109 195.596 273.376 199.13 275.473C200.828 276.48 202.557 277.448 204.309 278.37C205.277 278.877 206.222 279.492 207.313 279.6C208.389 279.707 209.472 279.723 210.548 279.684C215.143 279.53 219.576 278.27 224.117 277.686C225.147 277.556 226.038 276.895 226.038 275.765C226.038 274.828 225.155 273.706 224.117 273.845Z" fill="#222221"/>
<path d="M303.681 277.763C303.013 275.012 300.977 272.999 298.818 271.301C296.705 269.642 294.715 267.92 292.732 266.107C290.865 264.401 288.875 262.642 286.432 261.843C283.873 261.005 281.261 261.758 279.171 263.349C275.229 266.345 272.816 271.309 271.08 275.827C270.365 277.694 269.612 279.861 269.812 281.897C270.05 284.34 271.326 286.5 272.993 288.251C274.86 290.211 277.188 291.717 279.47 293.138C281.529 294.421 283.819 295.697 285.425 297.18C287.238 298.855 289.966 296.142 288.145 294.46C285.056 291.609 281.099 289.919 277.78 287.375C276.289 286.231 274.929 284.94 274.115 283.28C274 283.05 273.869 282.681 273.754 282.258C273.723 282.151 273.608 281.513 273.654 281.897C273.631 281.72 273.631 281.544 273.631 281.367C273.631 281.175 273.646 280.975 273.661 280.783C273.692 280.429 273.623 280.937 273.692 280.568C273.777 280.099 273.884 279.63 274.015 279.169C274.576 277.133 275.436 275.189 276.405 273.314C276.896 272.362 277.419 271.424 277.98 270.51C278.218 270.126 278.464 269.742 278.725 269.365C278.833 269.204 278.94 269.05 279.055 268.896C279.125 268.796 279.194 268.704 279.271 268.604C279.163 268.75 279.171 268.727 279.278 268.597C280.047 267.667 280.907 266.753 281.929 266.099C282.759 265.577 283.504 265.316 284.311 265.331C284.987 265.346 285.732 265.631 286.455 266.038C287.346 266.545 288.153 267.175 288.929 267.851C291.049 269.688 293.017 271.647 295.245 273.36C297.127 274.805 299.402 276.372 299.993 278.801C300.562 281.182 304.273 280.168 303.681 277.763Z" fill="#222221"/>
<path d="M329.406 301.421C329.298 301.413 328.668 301.321 329.122 301.406C328.914 301.367 328.707 301.321 328.499 301.267C328.315 301.214 328.138 301.152 327.961 301.091C327.908 301.075 327.593 300.937 327.808 301.037C328.038 301.137 327.577 300.922 327.577 300.922C327.193 300.722 326.817 300.507 326.448 300.276C326.271 300.161 326.094 300.046 325.925 299.923C325.825 299.854 325.726 299.777 325.626 299.708C325.149 299.362 325.764 299.823 325.495 299.615C323.881 298.34 322.445 296.872 320.931 295.482C318.073 292.854 314.315 289.919 310.182 291.356C305.856 292.862 303.043 297.456 302.283 301.79C301.522 306.093 302.183 310.772 304.519 314.514C305.74 316.481 307.454 318.233 309.544 319.263C312.026 320.484 314.676 320.707 317.381 320.238C318.403 320.062 318.979 318.802 318.726 317.872C318.426 316.788 317.389 316.358 316.359 316.527C315.944 316.596 315.698 316.627 315.153 316.642C314.653 316.658 314.146 316.642 313.647 316.581C313.316 316.542 313.9 316.627 313.585 316.566C313.493 316.55 313.393 316.535 313.301 316.512C313.086 316.466 312.871 316.42 312.656 316.358C312.448 316.297 312.241 316.235 312.033 316.166C311.918 316.128 311.803 316.081 311.688 316.035C311.872 316.112 311.764 316.066 311.641 316.012C311.257 315.828 310.888 315.628 310.535 315.398C310.358 315.282 310.182 315.167 310.013 315.037C309.836 314.906 310.013 315.037 310.043 315.06C309.928 314.967 309.813 314.867 309.697 314.768C309.006 314.153 308.491 313.554 308.13 313.031C307.024 311.418 306.532 310.15 306.117 308.237C305.902 307.23 305.848 306.83 305.81 305.724C305.794 305.263 305.794 304.802 305.817 304.341C305.825 304.11 305.84 303.88 305.863 303.649C305.871 303.549 305.956 302.881 305.909 303.181C306.048 302.251 306.278 301.329 306.593 300.438C306.785 299.892 306.77 299.938 306.993 299.469C307.2 299.039 307.439 298.617 307.7 298.209C308.161 297.487 308.66 296.888 309.467 296.166C309.828 295.835 309.913 295.766 310.343 295.497C310.558 295.359 310.781 295.243 311.004 295.128C311.019 295.121 311.288 294.998 311.104 295.082C310.904 295.167 311.365 294.998 311.357 294.998C311.519 294.951 311.68 294.905 311.841 294.867C311.949 294.844 312.056 294.821 312.156 294.806C312.079 294.821 311.764 294.829 312.118 294.821C312.272 294.821 312.433 294.806 312.587 294.813C312.74 294.821 313.27 294.905 312.848 294.821C313.209 294.89 313.562 294.998 313.916 295.105C314.215 295.205 313.739 294.998 314.131 295.19C314.354 295.305 314.584 295.413 314.799 295.535C315.13 295.72 315.445 295.927 315.76 296.142C316.252 296.481 316.29 296.511 316.613 296.78C317.335 297.372 318.027 298.002 318.71 298.64C321.73 301.46 324.973 305.04 329.391 305.248C331.88 305.378 331.872 301.536 329.406 301.421Z" fill="#222221"/>
<path d="M346.302 323.903C346.817 321.998 346.748 319.931 345.718 318.202C344.75 316.589 343.175 315.536 341.446 314.883C338.112 313.63 333.816 314.007 330.82 315.966C327.508 318.125 326.778 321.668 326.486 325.363C326.148 329.612 326.448 334 327.347 338.164C328.123 341.745 329.767 346.931 333.916 347.807C334.931 348.022 335.991 347.508 336.283 346.463C336.544 345.51 335.96 344.311 334.938 344.096C334.815 344.073 334.692 344.042 334.577 344.004C334.5 343.981 334.423 343.95 334.339 343.919C334.339 343.919 334.692 344.088 334.508 343.988C334.339 343.889 333.724 343.451 334.085 343.766C333.855 343.566 333.647 343.366 333.44 343.143C333.394 343.089 333.125 342.751 333.271 342.943C333.394 343.112 333.094 342.675 333.025 342.575C332.141 341.184 331.834 340.223 331.381 338.541C330.413 334.945 330.128 331.441 330.213 327.63C330.228 326.785 330.274 325.932 330.343 325.094C330.374 324.71 330.42 324.318 330.466 323.934C330.42 324.272 330.466 323.911 330.489 323.773C330.52 323.588 330.551 323.404 330.582 323.22C330.697 322.597 330.851 321.998 331.035 321.391C331.073 321.253 331.196 320.999 331.066 321.276C331.135 321.13 331.204 320.984 331.288 320.838C331.365 320.699 331.458 320.561 331.542 320.43C331.726 320.131 331.573 320.369 331.527 320.43C331.596 320.346 331.657 320.261 331.734 320.185C331.949 319.946 332.18 319.724 332.426 319.516C332.656 319.309 332.257 319.608 332.618 319.378C332.779 319.278 332.933 319.17 333.102 319.07C333.248 318.986 333.386 318.909 333.54 318.832C333.601 318.802 334.085 318.579 333.916 318.656C333.74 318.725 334.162 318.571 334.239 318.54C334.423 318.479 334.616 318.417 334.808 318.364C335.169 318.264 335.53 318.194 335.891 318.118C335.976 318.102 336.06 318.087 336.145 318.079C336.114 318.087 335.83 318.118 336.06 318.095C336.291 318.072 336.513 318.049 336.744 318.041C337.09 318.025 337.428 318.025 337.773 318.033C337.973 318.041 338.173 318.056 338.365 318.072C338.45 318.079 338.534 318.087 338.619 318.102C338.918 318.141 338.311 318.049 338.611 318.102C339.018 318.179 339.418 318.264 339.817 318.379C339.994 318.433 340.171 318.494 340.355 318.556C340.778 318.694 340.232 318.463 340.624 318.671C340.939 318.84 341.246 319.017 341.546 319.209C341.907 319.432 341.446 319.063 341.738 319.362C341.853 319.485 341.984 319.601 342.099 319.716C342.153 319.77 342.192 319.823 342.245 319.877C342.422 320.077 342.061 319.608 342.207 319.831C342.315 319.992 342.407 320.162 342.507 320.323C342.737 320.669 342.491 320.177 342.583 320.461C342.645 320.653 342.699 320.838 342.752 321.03C342.768 321.107 342.783 321.183 342.799 321.253C342.852 321.529 342.776 320.922 342.783 321.206C342.791 321.399 342.799 321.583 342.799 321.775C342.799 321.898 342.714 322.497 342.776 322.129C342.729 322.374 342.676 322.62 342.606 322.866C341.953 325.271 345.657 326.293 346.302 323.903Z" fill="#222221"/>
<path d="M562.827 252.054C558.186 243.102 553.184 234.166 546.3 226.713C543.034 223.179 538.9 220.221 536.426 216.025C533.99 211.899 533.107 207.043 531.293 202.648C527.429 193.274 521.374 185.222 516.026 176.685C513.214 172.19 511.101 167.365 508.75 162.632C506.529 158.144 503.625 154.103 500.613 150.13C497.155 145.574 494.097 140.772 491.792 135.532C489.602 130.537 487.458 125.52 483.686 121.486C481.995 119.673 479.283 122.393 480.966 124.206C484.185 127.656 486.083 132.02 487.95 136.292C489.979 140.949 492.399 145.305 495.349 149.447C498.246 153.519 501.412 157.368 503.901 161.725C506.521 166.304 508.45 171.237 511.039 175.84C513.514 180.235 516.472 184.353 519.222 188.579C521.896 192.698 524.463 196.901 526.553 201.357C528.635 205.798 529.749 210.562 531.662 215.057C533.66 219.736 537.133 223.117 540.744 226.583C548.843 234.351 554.383 244.132 559.508 254.005C560.653 256.195 563.972 254.251 562.827 252.054Z" fill="#222221"/>
<path d="M565.309 256.948C564.763 255.857 564.218 254.766 563.657 253.675C563.442 253.26 562.95 252.914 562.512 252.791C562.051 252.668 561.436 252.722 561.029 252.984C560.622 253.245 560.261 253.644 560.145 254.128C560.03 254.651 560.092 255.127 560.338 255.611C560.891 256.702 561.444 257.793 561.99 258.885C562.197 259.299 562.704 259.645 563.134 259.768C563.595 259.891 564.21 259.837 564.617 259.576C565.025 259.315 565.386 258.915 565.501 258.431C565.524 258.262 565.547 258.093 565.57 257.924C565.57 257.571 565.486 257.248 565.309 256.948Z" fill="#222221"/>
<path d="M567.967 268.159C570.687 273.238 575.843 280.591 582.628 278.278C584.602 277.602 586.201 276.234 587.906 275.074C589.758 273.806 591.648 272.584 593.562 271.409C597.327 269.088 601.191 266.937 605.125 264.909C612.924 260.875 620.954 257.325 628.975 253.76C633.032 251.954 637.082 250.148 641.108 248.273C643.036 247.374 644.927 246.345 646.909 245.576C648.884 244.816 650.92 244.193 652.971 243.671C657.582 242.495 662.338 241.934 666.94 240.736C667.962 240.467 668.884 239.868 669.86 239.46C670.39 239.238 670.943 239.068 671.474 238.861C672.104 238.615 672.642 238.2 673.195 237.824C674.355 237.048 675.515 236.279 676.675 235.503C676.883 235.365 677.106 235.227 677.305 235.081C677.636 234.72 677.759 234.627 677.682 234.812C677.674 234.819 677.674 234.827 677.667 234.835C677.882 234.758 678.189 234.773 678.543 234.819C678.543 233.536 678.543 232.261 678.543 230.978C676.898 230.993 675.208 230.97 673.579 231.247C671.889 231.531 670.905 233.559 672.442 234.781C673.172 235.357 674.247 235.311 675.139 235.28C676.453 235.234 677.774 235.05 679.057 234.758C681.201 234.266 680.686 231.001 678.55 230.985C669.752 230.916 661.493 233.821 653.348 236.825C645.157 239.852 637.12 243.302 629.252 247.098C625.387 248.965 621.722 251.07 618.095 253.368C614.584 255.588 611.119 257.893 607.577 260.068C605.763 261.182 603.934 262.265 602.067 263.287C600.323 264.248 598.495 265.416 596.566 265.938C592.494 267.052 588.091 266.922 584.149 268.543C582.359 269.281 580.73 270.318 579.001 271.178C577.633 271.862 575.766 272.584 574.245 272.1C570.995 271.055 569.665 267.045 568.774 264.132C568.052 261.774 564.341 262.78 565.071 265.154C566.077 268.443 567.43 271.939 570.203 274.144C571.732 275.358 573.484 276.119 575.459 276.057C577.318 275.996 579.047 275.42 580.707 274.613C582.251 273.868 583.688 272.915 585.256 272.216C587.161 271.378 589.32 271.071 591.364 270.756C593.5 270.425 595.667 270.179 597.749 269.588C599.831 269.004 601.806 267.79 603.696 266.76C611.28 262.626 618.28 257.517 625.748 253.183C629.613 250.94 633.778 249.134 637.842 247.298C641.815 245.5 645.833 243.809 649.898 242.219C654.547 240.405 659.249 238.661 664.013 237.178C668.746 235.703 673.579 234.781 678.543 234.819C678.374 233.559 678.204 232.307 678.035 231.047C677.782 231.108 677.528 231.162 677.275 231.208C677.121 231.239 676.96 231.262 676.806 231.285C676.768 231.293 676.399 231.346 676.606 231.316C676.722 231.3 676.207 231.362 676.076 231.369C675.838 231.393 675.6 231.408 675.362 231.423C675.016 231.439 674.678 231.454 674.332 231.439C674.209 231.431 674.048 231.393 673.925 231.416C673.771 231.446 674.355 231.485 674.247 231.454C673.71 231.316 675.031 231.815 675.246 232.268C675.308 232.76 675.377 233.252 675.438 233.751C675.438 233.744 675.438 233.744 675.438 233.736C675.277 234.02 675.108 234.305 674.947 234.581C674.831 234.704 673.832 235.211 674.501 234.958C674.009 235.15 674.255 234.981 674.463 234.965C674.655 234.95 674.847 234.935 675.046 234.919C676.207 234.835 677.375 234.827 678.543 234.812C679.58 234.804 680.463 233.936 680.463 232.891C680.463 231.738 679.58 231.108 678.543 230.97C676.522 230.709 675.039 231.976 673.464 233.021C672.511 233.652 671.566 234.289 670.613 234.919C669.722 235.511 668.646 235.803 667.663 236.241C666.963 236.556 666.303 236.955 665.55 237.101C664.405 237.324 663.268 237.593 662.123 237.824C660.11 238.223 658.081 238.6 656.068 239.015C651.95 239.868 647.777 240.882 643.951 242.672C640.009 244.516 636.083 246.376 632.118 248.158C616.451 255.189 600.515 261.858 586.247 271.539C584.595 272.661 582.897 274.329 580.891 274.759C579.654 275.02 578.417 274.598 577.226 273.814C574.591 272.077 572.747 268.973 571.264 266.207C570.119 264.04 566.8 265.977 567.967 268.159Z" fill="#222221"/>
<path d="M485.983 134.225C489.164 137.452 492.729 140.303 495.68 143.753C498.592 147.157 500.743 151.168 502.833 155.109C505.062 159.32 507.144 163.615 509.311 167.857C511.493 172.136 513.859 176.293 516.303 180.427C526.215 197.208 535.558 214.312 545.147 231.277C550.472 240.69 556.058 249.948 561.951 259.007C563.296 261.074 566.623 259.146 565.271 257.071C554.606 240.697 545.239 223.578 535.689 206.551C530.902 198.023 526.084 189.517 521.143 181.08C518.7 176.916 516.211 172.797 513.967 168.517C511.754 164.299 509.679 160.012 507.505 155.77C505.131 151.145 502.695 146.488 499.483 142.378C496.333 138.328 492.276 135.147 488.695 131.513C486.967 129.746 484.247 132.466 485.983 134.225Z" fill="#222221"/>
<path d="M560.699 257.701C560.015 260.414 560.983 262.895 562.504 265.124C563.181 266.115 563.918 267.068 564.548 268.097C564.694 268.343 564.84 268.589 564.971 268.843C565.032 268.958 565.094 269.073 565.148 269.188C565.224 269.342 565.332 269.603 565.209 269.296C565.324 269.588 565.424 269.88 565.509 270.18C565.547 270.333 565.586 270.479 565.616 270.633C565.639 270.74 565.701 271.209 565.647 270.748C565.762 271.739 566.446 272.723 567.568 272.669C568.513 272.631 569.612 271.816 569.489 270.748C569.174 268.059 567.798 265.977 566.277 263.817C565.639 262.918 565.009 261.996 564.556 260.982C564.756 261.428 564.571 260.982 564.541 260.905C564.495 260.767 564.448 260.636 564.418 260.498C564.387 260.383 564.364 260.268 564.333 260.152C564.272 259.906 564.302 259.93 564.325 260.168C564.302 259.876 564.287 259.584 564.302 259.292C564.31 259.169 564.41 258.739 564.302 259.192C564.341 259.038 564.364 258.877 564.41 258.723C564.656 257.747 564.095 256.595 563.065 256.357C562.066 256.134 560.96 256.664 560.699 257.701Z" fill="#222221"/>
<path d="M171.738 250.502C185.73 236.74 200.505 223.663 212.768 208.272C215.873 204.377 218.839 200.366 221.559 196.194C224.378 191.853 226.76 187.296 229.058 182.663C231.255 178.229 233.476 173.834 236.388 169.808C239.146 165.997 242.32 162.516 245.416 158.974C252.086 151.344 259.808 141.517 255.674 130.783C255.19 129.523 254.068 129.116 252.854 129.638C251.502 130.207 250.096 130.645 248.682 131.006C246.284 131.613 247.299 135.316 249.704 134.709C251.456 134.264 253.131 133.657 254.798 132.958C253.861 132.573 252.915 132.189 251.978 131.813C255.397 140.687 249.127 148.855 243.603 155.24C240.522 158.79 237.364 162.271 234.49 165.997C231.493 169.893 229.096 174.057 226.891 178.445C224.647 182.916 222.481 187.427 219.868 191.707C217.317 195.879 214.474 199.89 211.485 203.762C205.653 211.308 199.145 218.315 192.415 225.069C184.746 232.776 176.778 240.167 169.033 247.789C167.258 249.526 169.971 252.238 171.738 250.502Z" fill="#222221"/>
<path d="M249.181 137.299C248.697 137.245 249.127 137.322 249.227 137.353C248.659 137.214 249.273 137.445 249.012 137.26C248.713 137.045 249.243 137.614 248.851 137.084C248.905 137.16 249.135 137.568 248.889 137.091C248.912 137.137 248.966 137.291 248.966 137.36C248.997 137.86 248.958 136.922 248.989 137.452C249.012 137.798 249.005 138.144 248.974 138.49C248.935 139.081 249.012 138.282 248.958 138.651C248.935 138.82 248.905 138.982 248.874 139.151C248.805 139.504 248.728 139.85 248.636 140.196C248.421 141.048 248.144 141.894 247.844 142.723C246.907 145.351 245.678 147.848 244.417 150.461C239.062 161.556 232.915 172.159 225.208 181.795C217.678 191.215 209.449 200.082 202.757 210.155C199.445 215.134 196.641 220.436 193.237 225.361C189.825 230.301 185.492 234.335 181.327 238.615C179.314 240.69 177.355 242.841 175.672 245.2C174.012 247.536 172.668 250.071 171.308 252.584C169.986 255.043 168.649 257.501 166.982 259.745C165.468 261.789 163.563 263.502 161.657 265.177C159.705 266.899 157.708 268.597 156.04 270.61C154.68 272.254 153.728 274.052 152.652 275.881C152.206 276.649 151.73 277.402 151.092 278.024C150.654 278.447 150.201 278.693 149.786 278.631C148.725 278.478 147.673 277.579 146.805 277.003C145.575 276.188 144.392 275.304 143.17 274.482C140.665 272.8 137.999 271.378 135.502 269.68C133.005 267.982 130.592 266.161 128.241 264.263C123.669 260.567 119.19 256.91 114.203 253.76C109.301 250.663 104.214 247.882 99.1814 245C93.9489 242.004 88.87 238.784 83.8603 235.419C73.2492 228.273 62.9377 220.682 52.1192 213.843C46.9942 210.608 41.7232 207.489 37.0746 203.578C32.8256 200.005 29.2911 195.817 26.064 191.322C24.3659 188.948 22.5756 186.635 20.4012 184.676C19.6251 185.683 18.8491 186.689 18.073 187.696C22.1991 190.708 25.7951 194.365 29.4755 197.892C33.156 201.411 37.1207 204.6 41.1239 207.75C45.081 210.862 49.0765 213.92 52.9413 217.147C54.9314 218.814 56.8907 220.528 58.7809 222.303C60.6019 224.016 62.2309 225.991 64.1902 227.543C66.1956 229.134 68.5545 230.278 70.3678 232.092C71.2591 232.983 72.1197 233.943 73.0571 234.781C74.0713 235.688 75.2162 236.487 76.2842 237.332C80.3873 240.567 84.5134 243.779 88.6856 246.921C96.8687 253.076 105.282 258.938 114.095 264.171C124.468 270.333 134.979 276.303 145.767 281.705C146.551 282.097 147.45 282.028 148.095 281.405C149.025 280.514 150.109 279.815 151.084 278.97C152.145 278.055 152.675 276.734 153.313 275.512C154.519 273.199 155.695 270.879 156.955 268.597C159.467 264.025 162.318 259.668 166.144 256.088C167.95 254.397 165.23 251.685 163.424 253.368C159.559 256.987 156.578 261.389 154.004 265.984C152.759 268.205 151.599 270.471 150.431 272.73C149.87 273.806 149.379 275.266 148.518 276.119C147.558 277.064 146.359 277.748 145.383 278.685C146.159 278.585 146.935 278.485 147.711 278.386C138.153 273.599 128.833 268.351 119.605 262.941C110.638 257.686 101.986 252.008 93.6185 245.83C89.477 242.772 85.4047 239.637 81.3554 236.464C79.2885 234.85 77.0295 233.321 75.1778 231.469C74.2865 230.578 73.4105 229.648 72.4885 228.78C71.4819 227.843 70.291 227.105 69.1461 226.352C68.2318 225.753 67.3021 225.169 66.4645 224.47C65.4272 223.609 64.5436 222.556 63.5832 221.604C61.7852 219.813 59.9104 218.092 57.9972 216.425C54.2015 213.121 50.229 210.024 46.2566 206.928C41.777 203.424 37.236 199.951 33.1022 196.04C28.8532 192.022 24.7578 187.849 20.0247 184.384C18.2651 183.101 16.0907 185.952 17.6965 187.404C20.0477 189.524 21.8534 192.045 23.6974 194.596C25.3725 196.916 27.1628 199.167 29.099 201.273C33.2328 205.76 38.0966 209.394 43.1831 212.721C48.4925 216.194 53.8864 219.498 59.142 223.056C64.6819 226.813 70.1527 230.67 75.6618 234.466C81.0327 238.177 86.4266 241.888 92.0203 245.261C97.0992 248.327 102.324 251.139 107.434 254.144C112.62 257.194 117.707 260.444 122.325 264.325C127.058 268.305 131.937 272.139 137.231 275.358C139.836 276.941 142.325 278.631 144.868 280.314C146.874 281.643 149.148 283.088 151.622 282.166C153.62 281.421 154.934 279.584 155.979 277.817C157.131 275.858 158.13 273.944 159.698 272.262C163.347 268.328 167.773 265.362 170.87 260.89C174.189 256.103 176.225 250.502 179.89 245.945C183.786 241.097 188.634 237.117 192.668 232.384C196.587 227.789 199.614 222.556 202.726 217.408C206.007 211.976 209.641 206.79 213.598 201.826C217.456 196.993 221.513 192.337 225.439 187.557C229.357 182.794 233.176 177.914 236.534 172.728C240.099 167.227 243.219 161.41 246.162 155.563C247.775 152.351 249.381 149.109 250.749 145.782C251.901 142.977 253.492 139.266 252.616 136.185C252.139 134.51 250.826 133.634 249.158 133.442C248.129 133.319 247.237 134.41 247.237 135.363C247.26 136.515 248.152 137.176 249.181 137.299Z" fill="#222221"/>
<path d="M114.464 226.137C114.48 226.229 114.549 226.729 114.495 226.229C114.51 226.383 114.526 226.536 114.533 226.69C114.549 227.005 114.549 227.313 114.533 227.628C114.526 227.781 114.41 228.688 114.487 228.227C114.426 228.603 114.357 228.98 114.28 229.349C113.988 230.693 113.558 232.007 113.204 233.344C112.467 236.11 112.052 239.138 113.988 241.52C115.048 242.826 116.631 243.594 118.198 244.101C120.142 244.731 122.209 245.039 124.238 244.739C127.611 244.24 130.423 241.911 132.129 239.038C133.912 236.041 134.58 232.438 133.988 229.011C133.719 227.466 133.112 225.922 132.198 224.639C131.238 223.286 129.939 222.426 128.425 221.803C125.321 220.536 121.748 220.367 118.467 220.858C117 221.073 115.494 221.488 114.211 222.249C112.751 223.117 111.906 224.362 111.391 225.968C110.031 230.202 112.144 234.451 115.248 237.294C118.298 240.098 122.24 242.065 126.366 242.58C127.396 242.711 128.287 241.604 128.287 240.659C128.287 239.514 127.403 238.869 126.366 238.738C126.812 238.792 126.228 238.715 126.174 238.7C125.99 238.669 125.813 238.631 125.636 238.592C125.321 238.523 125.014 238.446 124.707 238.354C124.015 238.154 123.216 237.862 122.77 237.655C121.426 237.04 119.912 236.164 118.882 235.357C117.645 234.381 116.562 233.252 115.84 232.061C115.14 230.901 114.779 229.779 114.818 228.511C114.825 228.381 114.833 228.242 114.841 228.112C114.895 227.482 114.756 228.442 114.887 227.812C114.964 227.466 115.056 227.12 115.171 226.782C115.248 226.56 115.371 226.391 115.494 226.099C115.54 225.991 115.732 225.86 115.409 226.191C115.525 226.075 115.655 225.953 115.763 225.83C115.955 225.599 115.747 225.83 115.686 225.876C115.801 225.791 115.909 225.714 116.032 225.638C116.239 225.507 116.462 225.399 116.677 225.284C117.13 225.054 116.301 225.415 116.792 225.23C116.946 225.169 117.1 225.115 117.253 225.069C117.576 224.961 117.914 224.869 118.245 224.792C120.565 224.247 123.5 224.324 125.921 224.992C126.205 225.069 126.489 225.161 126.773 225.261C126.935 225.315 127.096 225.376 127.257 225.445C126.858 225.284 127.357 225.499 127.403 225.522C127.634 225.645 127.872 225.76 128.095 225.906C128.203 225.976 128.302 226.045 128.41 226.114C128.525 226.198 128.495 226.168 128.31 226.037C128.387 226.099 128.456 226.16 128.525 226.221C128.687 226.383 128.848 226.536 128.994 226.713C128.702 226.352 129.063 226.844 129.094 226.89C129.194 227.044 129.294 227.205 129.386 227.366C129.785 228.081 129.816 228.165 130.039 228.949C130.131 229.28 130.2 229.61 130.269 229.94C130.285 230.025 130.346 230.432 130.3 230.071C130.323 230.255 130.339 230.44 130.354 230.632C130.4 231.323 130.385 232.015 130.323 232.706C130.262 233.321 130.392 232.338 130.293 232.952C130.269 233.106 130.239 233.267 130.208 233.421C130.139 233.767 130.062 234.105 129.962 234.443C129.762 235.15 129.547 235.703 129.355 236.118C129.055 236.74 128.71 237.34 128.31 237.901C128.333 237.87 127.972 238.354 128.126 238.154C128.279 237.954 127.895 238.423 127.926 238.392C127.688 238.669 127.434 238.938 127.165 239.184C126.374 239.929 125.298 240.567 124.207 240.851C124.053 240.889 123.224 241.035 123.539 241.005C123.224 241.043 122.909 241.059 122.594 241.051C121.633 241.043 121.264 240.943 120.258 240.705C119.62 240.551 118.629 240.229 118.329 240.075C118.06 239.937 117.807 239.791 117.545 239.637C117.484 239.599 117.069 239.268 117.415 239.553C117.261 239.422 117.123 239.284 116.977 239.145C116.908 239.084 116.846 238.999 116.785 238.93C117.115 239.307 116.754 238.861 116.692 238.753C116.646 238.677 116.616 238.592 116.57 238.515C116.416 238.269 116.639 238.861 116.523 238.362C116.485 238.185 116.385 237.417 116.416 237.962C116.401 237.685 116.377 237.417 116.385 237.14C116.385 237.002 116.401 236.856 116.408 236.717C116.416 236.663 116.485 236.095 116.439 236.395C116.393 236.717 116.47 236.226 116.477 236.21C116.516 236.01 116.554 235.811 116.593 235.611C116.731 234.988 116.892 234.366 117.069 233.751C117.86 230.932 118.744 228.081 118.168 225.123C117.968 224.101 116.754 223.524 115.801 223.778C114.741 224.062 114.264 225.115 114.464 226.137Z" fill="#222221"/>
<path d="M85.3893 202.095C83.8449 199.582 81.5014 198.437 78.5816 198.898C77.9593 198.998 77.3753 199.651 77.237 200.243C76.2304 204.638 75.6158 210.17 77.8671 214.296C79.8264 217.9 84.7132 219.736 88.5473 220.282C90.7909 220.605 93.1037 220.574 95.1783 219.567C96.9455 218.707 98.052 217.016 98.3977 215.119C99.1277 211.092 98.0289 206.336 96.0388 202.794C94.8095 200.62 92.7272 199.075 90.2531 198.653C87.4716 198.176 84.6517 198.645 81.8549 198.645C81.8549 199.928 81.8549 201.204 81.8549 202.487C84.2522 202.418 86.5496 202.717 88.8777 203.293C91.1674 203.862 93.4264 204.523 95.7545 204.915C96.7765 205.084 97.8214 204.646 98.1211 203.57C98.3747 202.648 97.8061 201.38 96.7765 201.204C94.3638 200.804 92.028 200.105 89.6537 199.521C87.0951 198.898 84.4903 198.553 81.8549 198.637C79.3884 198.714 79.373 202.479 81.8549 202.479C84.014 202.479 86.1807 202.195 88.3398 202.279C89.9073 202.341 91.3211 202.817 92.2585 203.993C92.4967 204.292 92.9193 205.084 93.1652 205.606C93.2036 205.683 93.242 205.768 93.2727 205.852C93.2574 205.814 93.1728 205.606 93.2574 205.821C93.3419 206.029 93.4264 206.236 93.5032 206.451C93.6569 206.866 93.7952 207.281 93.9182 207.704C94.4714 209.525 94.7634 211 94.7634 212.806C94.7634 213.198 94.748 213.582 94.7019 213.966C94.6788 214.197 94.7019 213.951 94.7096 213.912C94.6942 214.004 94.6788 214.089 94.6635 214.181C94.6251 214.381 94.579 214.581 94.5252 214.773C94.5021 214.842 94.3177 215.357 94.4022 215.165C94.4867 214.973 94.2947 215.364 94.2562 215.426C94.2178 215.495 93.9566 215.833 94.1026 215.664C94.2486 215.495 93.8951 215.849 93.8336 215.91C94.1333 215.641 93.1959 216.271 93.3112 216.217C93.4571 216.148 93.0499 216.31 92.9654 216.34C92.7656 216.402 92.5582 216.456 92.3507 216.502C92.2585 216.525 91.8128 216.602 92.1202 216.555C91.8974 216.586 91.6669 216.602 91.4363 216.617C90.9984 216.64 90.5527 216.632 90.1148 216.609C89.2542 216.555 88.6241 216.44 87.656 216.194C86.8723 215.995 85.7658 215.626 85.2357 215.395C84.4596 215.065 83.7143 214.665 83.0074 214.204C82.823 214.089 82.6463 213.966 82.4695 213.835C82.7077 214.012 82.385 213.766 82.3082 213.697C82.0469 213.474 81.8011 213.228 81.5706 212.967C81.4399 212.821 81.5936 213.006 81.609 213.029C81.5091 212.898 81.4246 212.76 81.3324 212.614C81.2094 212.414 81.0942 212.199 80.9943 211.984C81.0634 212.137 80.8637 211.653 80.8329 211.561C80.7484 211.315 80.6793 211.069 80.6178 210.823C80.3412 209.748 80.2644 208.856 80.2413 207.712C80.1952 205.43 80.4411 203.424 80.9328 201.257C80.4872 201.703 80.0415 202.149 79.5882 202.602C80.0415 202.533 80.5486 202.633 80.8406 202.771C81.3247 203.009 81.7166 203.486 82.0546 204.031C83.3608 206.136 86.6879 204.208 85.3893 202.095Z" fill="#222221"/>
</svg>
