<svg version="1.2" xmlns="http://www.w3.org/2000/svg" viewBox="0 0 810 575" width="810" height="575">
	<title>undraw_community_re_cyrm-svg</title>
	<style>
		.s0 { fill: #f0f0f0 } 
		.s1 { fill: #f2f2f2 } 
		.s2 { fill: #ffffff } 
		.s3 { fill: #fd6584 } 
		.s4 { fill: #e6e6e6 } 
		.s5 { fill: #3ec221 } 
		.s6 { fill: #ffb8b8 } 
		.s7 { fill: #2f2e41 } 
		.s8 { fill: #cacaca } 
		.s9 { fill: #3f3d56 } 
		.s10 { fill: #ffb6b6 } 
		.s11 { fill: #9e616a } 
	</style>
	<path id="Layer" class="s0" d="m168 359.3c-36.6-36-52-73.6-43.5-105.8 10.9-41.3 59.6-69.9 133.4-78.4l0.3 2.3c-72.8 8.4-120.7 36.4-131.4 76.7-8.3 31.4 6.9 68.1 42.9 103.5z"/>
	<path id="Layer" class="s0" d="m521.1 487.2c-45.7 0-95.3-6.8-144.6-19.9-61-16.1-116.9-40.5-161.7-70.4l1.4-2c44.5 29.8 100.2 54.1 160.9 70.1 54.8 14.6 110.1 21.3 159.8 19.5l0.1 2.4q-7.9 0.3-15.9 0.3z"/>
	<path id="Layer" class="s0" d="m625.8 472.2l-0.7-2.3c40.8-13.8 66.4-36 73.9-64.3 9.5-36-11.2-77.7-58.3-117.5-47.3-40-115.5-73.2-192-93.5l0.6-2.3c76.9 20.4 145.4 53.8 193 94 47.8 40.4 68.7 83 59 119.9-7.7 29.1-33.8 51.9-75.5 66z"/>
	<path id="Layer" class="s0" d="m250.8 488.2c-89.7-39.8-158.9-91.5-194.7-145.4l2-1.3c35.5 53.5 104.3 104.9 193.7 144.5z"/>
	<path id="Layer" class="s0" d="m566.3 557.1q-13.9 0-28.2-0.6l0.1-2.4c71.4 3.1 134.4-5.4 182.2-24.7l0.9 2.2c-41.7 16.8-94.9 25.5-155 25.5z"/>
	<path id="Layer" class="s0" d="m514.2 177.2c-14.8-4.8-30.1-9.3-45.3-13.4-87.8-23.2-174.1-31.4-249.6-23.8l-0.2-2.4c75.7-7.6 162.3 0.6 250.4 23.9 15.3 4.1 30.6 8.6 45.5 13.4z"/>
	<path id="Layer" class="s0" d="m111.9 362.9c-36.6-36-52-73.6-43.5-105.8 11-41.4 59.6-70 133.4-78.4l0.3 2.3c-72.8 8.4-120.7 36.3-131.4 76.7-8.3 31.3 7 68.1 42.9 103.5z"/>
	<path id="Layer" class="s0" d="m465 490.8c-45.7 0-95.3-6.8-144.6-19.9-61-16.1-116.9-40.5-161.6-70.4l1.3-2c44.6 29.8 100.2 54 160.9 70.1 54.9 14.5 110.1 21.3 159.8 19.5l0.1 2.4q-7.9 0.3-15.9 0.3z"/>
	<path id="Layer" class="s0" d="m569.8 475.7l-0.8-2.2c40.8-13.8 66.4-36.1 73.9-64.3 9.5-36-11.2-77.7-58.3-117.5-47.3-40-115.5-73.2-192-93.5l0.6-2.3c76.9 20.4 145.4 53.7 193 94 47.8 40.4 68.7 83 59 119.9-7.7 29.1-33.8 51.9-75.4 65.9z"/>
	<path id="Layer" class="s0" d="m194.7 491.8c-89.7-39.8-158.9-91.5-194.7-145.4l2-1.4c35.6 53.6 104.3 105 193.7 144.6z"/>
	<path id="Layer" class="s0" d="m510.2 560.7q-13.9 0-28.2-0.6l0.1-2.4c71.4 3.1 134.4-5.5 182.3-24.7l0.8 2.2c-41.7 16.8-94.8 25.5-155 25.5z"/>
	<path id="Layer" class="s0" d="m458.1 180.8c-14.8-4.8-30-9.3-45.3-13.4-87.8-23.2-174.1-31.5-249.6-23.8l-0.2-2.4c75.8-7.7 162.3 0.6 250.4 23.9 15.3 4.1 30.6 8.6 45.5 13.4z"/>
	<path id="Layer" class="s1" d="m40.7 299c17.1-19.3 44.5-31 69.3-24-5.7 4-11 8.5-15.9 13.5-4.8 4.9-9.3 10.3-13.2 16-4 5.7-7.4 11.7-10.3 18-2.9 6.3-5.2 12.9-6.9 19.6-2.7 10.5-4.6 22.4-13.3 28.8-5.4 4-12.6 4.9-19.3 4-6.6-0.9-12.9-3.5-19.2-6.1l-1.6 0.2c4.8-25.3 13.2-50.8 30.4-70z"/>
	<path id="Layer" class="s2" d="m109.9 275.6q-7.7 1.8-15.1 4.9-7.3 3-14.1 7.2-6.8 4.2-12.8 9.3-6 5.2-11.2 11.2-1.2 1.3-2.2 2.7-1 1.3-2 2.8-0.9 1.4-1.7 3-0.8 1.5-1.5 3.1-0.6 1.5-1 3.1-0.4 1.6-0.6 3.3-0.2 1.7-0.2 3.3 0.1 1.7 0.3 3.4c0.6 4.1 1.6 8.3 1.2 12.5q-0.2 1.6-0.7 3.1-0.6 1.5-1.4 2.9-0.9 1.4-2 2.6-1.1 1.2-2.4 2.1c-4.4 3.2-9.6 4.6-14.8 5.8-5.7 1.4-11.7 2.7-16.4 6.5-0.5 0.5-1.2-0.5-0.7-0.9 8.2-6.7 19.5-5.8 28.5-10.6 4.2-2.3 7.7-5.8 8.6-10.6 0.8-4.3-0.3-8.6-0.9-12.8q-0.3-1.6-0.4-3.2 0-1.6 0.1-3.2 0.1-1.7 0.4-3.3 0.3-1.6 0.9-3.1 0.6-1.6 1.3-3.2 0.7-1.5 1.6-3 0.9-1.5 1.9-2.9 0.9-1.4 2.1-2.7 2.4-3 5.1-5.8 2.6-2.8 5.5-5.4 2.9-2.5 6-4.9 3-2.3 6.3-4.4 3.7-2.4 7.5-4.5 3.9-2.1 8-3.9 4-1.7 8.2-3.1 4.2-1.4 8.5-2.5c0.7-0.1 0.8 1 0.1 1.2z"/>
	<path id="Layer" class="s2" d="m60.8 302.7c-1.1-1.3-2.1-2.8-2.8-4.5-0.6-1.7-1-3.4-1-5.2-0.1-1.8 0.2-3.6 0.8-5.3 0.6-1.7 1.4-3.3 2.6-4.7 0.4-0.5 1.3 0.2 0.9 0.7-1.1 1.3-1.9 2.8-2.4 4.4-0.6 1.5-0.8 3.2-0.8 4.9 0.1 1.6 0.4 3.3 1 4.8 0.6 1.6 1.5 3 2.6 4.3 0.5 0.5-0.4 1.2-0.9 0.6z"/>
	<path id="Layer" class="s2" d="m47.3 330.8q2.7 0.2 5.4-0.1 2.8-0.4 5.4-1.2 2.6-0.8 5-2.1 2.4-1.3 4.6-3.1c0.5-0.4 1.2 0.5 0.7 1q-2.3 1.7-4.8 3.1-2.5 1.3-5.2 2.2-2.8 0.8-5.6 1.2-2.8 0.3-5.7 0.1c-0.7 0-0.5-1.2 0.2-1.1z"/>
	<path id="Layer" class="s2" d="m87.7 283.4q0.5 0.9 1.3 1.7 0.7 0.8 1.6 1.3 0.9 0.6 2 0.9 1 0.3 2 0.4c0.8 0.1 0.6 1.2-0.1 1.1q-1.2 0-2.3-0.4-1.1-0.4-2.2-1-1-0.6-1.8-1.4-0.8-0.9-1.4-1.9-0.1-0.1-0.1-0.2 0-0.1 0-0.2 0-0.1 0-0.2 0.1-0.1 0.2-0.2 0.1-0.1 0.2-0.1 0.1 0 0.2 0 0.1 0 0.2 0.1 0.1 0 0.2 0.1z"/>
	<path id="Layer" class="s1" d="m145.2 354.9q-0.7-0.1-1.4-0.1-2.3 0-4.6 0-2.3 0.1-4.6 0.2-2.3 0.1-4.6 0.4-2.3 0.2-4.6 0.5-0.7 0.1-1.4 0.2-5.5 0.8-10.9 2.2-5.3 1.3-10.6 3.1-5.2 1.8-10.2 4.1-5.1 2.3-9.9 5.1-1.9 1.1-3.8 2.3-1.9 1.1-3.7 2.4-1.8 1.2-3.6 2.5-1.8 1.3-3.5 2.7c-6.4 5.1-12.8 11.1-20.3 13.7q-0.3 0.1-0.6 0.2-0.3 0.1-0.6 0.2-0.3 0.1-0.6 0.2-0.3 0-0.6 0.1l-34.5-23.9q-0.1-0.1-0.2-0.3l-1.4-0.8q0.3-0.4 0.7-0.7 0.2-0.1 0.4-0.3 0.1-0.1 0.2-0.3 0.1 0 0.1 0 0.1-0.1 0.2-0.2 2-1.8 4-3.5 0 0 0.1 0c10.2-8.8 21.3-16.8 33.2-22.9q0.6-0.3 1.1-0.6 2.1-1 4.1-1.9 2.1-0.9 4.2-1.8 2.1-0.8 4.2-1.6 2.2-0.8 4.3-1.4 1.2-0.4 2.4-0.7 1.2-0.4 2.4-0.7 1.2-0.3 2.4-0.5 1.2-0.3 2.4-0.6 3.2-0.6 6.3-0.9 3.2-0.4 6.4-0.5 3.2-0.2 6.4 0 3.2 0.1 6.4 0.5c16.9 2 33 9.4 43.5 22.5q0.4 0.5 0.8 1.1z"/>
	<path id="Layer" class="s2" d="m144.8 355.2q-7.3-3.1-15-5.1-7.7-2-15.6-2.7-7.9-0.8-15.9-0.3-7.9 0.5-15.7 2.2-1.6 0.3-3.3 0.8-1.6 0.5-3.3 1.1-1.6 0.6-3.1 1.3-1.6 0.7-3.1 1.5-1.4 0.9-2.7 2-1.3 1-2.5 2.2-1.1 1.2-2.1 2.6-1 1.3-1.8 2.8c-2 3.7-3.7 7.6-6.6 10.7q-1.1 1.2-2.4 2.1-1.4 0.9-2.9 1.5-1.5 0.6-3.1 0.8-1.6 0.3-3.2 0.2c-5.4 0-10.5-2.1-15.3-4.2-5.4-2.4-11-4.9-17-4.7-0.7 0-0.7-1.1 0-1.1 10.5-0.4 19 7.1 29.1 8.6 4.7 0.8 9.7 0.1 13.3-3.3 3.1-2.9 4.9-7 6.9-10.7q0.7-1.4 1.7-2.8 0.9-1.3 2-2.5 1-1.3 2.3-2.3 1.2-1.1 2.5-2.1 1.5-0.9 3-1.7 1.5-0.8 3.1-1.4 1.6-0.7 3.2-1.2 1.6-0.5 3.3-0.9 3.8-0.9 7.6-1.6 3.8-0.6 7.6-0.9 3.9-0.3 7.8-0.4 3.8 0 7.7 0.3 4.4 0.3 8.7 1 4.4 0.6 8.7 1.7 4.3 1 8.4 2.4 4.2 1.4 8.3 3.2c0.6 0.3 0.1 1.2-0.6 0.9z"/>
	<path id="Layer" class="s2" d="m89.3 347.4c-0.2-1.8 0-3.6 0.5-5.3 0.4-1.7 1.2-3.4 2.3-4.8 1-1.5 2.3-2.7 3.8-3.7 1.5-1 3.1-1.8 4.9-2.2 0.7-0.2 1 0.9 0.3 1.1-1.7 0.4-3.2 1.1-4.6 2-1.4 0.9-2.6 2.1-3.5 3.5-1 1.3-1.7 2.8-2.2 4.5-0.4 1.6-0.5 3.2-0.4 4.9 0.1 0.7-1.1 0.7-1.1 0z"/>
	<path id="Layer" class="s2" d="m61.5 361.6q2.1 1.8 4.5 3.2 2.4 1.4 4.9 2.3 2.6 0.9 5.3 1.3 2.8 0.5 5.5 0.4c0.7-0.1 0.7 1.1 0 1.1q-2.9 0.1-5.7-0.4-2.8-0.4-5.5-1.4-2.7-0.9-5.1-2.3-2.5-1.5-4.7-3.4c-0.5-0.4 0.3-1.2 0.8-0.8z"/>
	<path id="Layer" class="s2" d="m122.3 348.1q-0.1 1.1 0 2.2 0.2 1 0.6 2 0.3 1 1 1.9 0.6 0.9 1.4 1.5c0.6 0.5-0.3 1.3-0.8 0.9q-0.9-0.8-1.6-1.8-0.7-0.9-1.1-2-0.4-1.1-0.6-2.3-0.1-1.2 0-2.4 0-0.1 0-0.2 0.1-0.1 0.2-0.2 0 0 0.1-0.1 0.2 0 0.3 0 0.1 0 0.2 0 0.1 0 0.2 0.1 0 0.1 0.1 0.2 0 0.1 0 0.2z"/>
	<path id="Layer" class="s1" d="m717.8 532.8l-1.6-0.7c-6.7 0.3-13.5 0.6-20.1-0.8-6.5-1.4-13-4.7-16.7-10.2-6.1-9-3.9-20.9-2.9-31.6 0.6-6.9 0.7-13.9 0.1-20.8-0.6-6.9-1.8-13.7-3.6-20.4-1.8-6.7-4.2-13.3-7.2-19.6-2.9-6.2-6.4-12.3-10.4-17.9 25.7 1.7 47.6 21.9 57.3 45.8 9.7 23.9 9 50.7 5.1 76.2z"/>
	<path id="Layer" class="s2" d="m655.8 410.3q3.7 2.4 7.2 5.1 3.5 2.7 6.7 5.7 3.2 3.1 6.2 6.3 2.9 3.3 5.6 6.8 2.3 3.1 4.4 6.3 2.1 3.3 4 6.7 1.8 3.3 3.4 6.9 1.6 3.5 2.9 7.1 0.6 1.7 1 3.3 0.5 1.7 0.8 3.3 0.3 1.7 0.5 3.4 0.2 1.7 0.2 3.5 0 1.6-0.3 3.2-0.2 1.6-0.6 3.2-0.5 1.6-1.1 3.1-0.6 1.5-1.4 2.9c-2 3.7-4.4 7.4-5.2 11.7-0.8 4.8 1.4 9.3 4.6 12.9 6.9 7.5 17.8 10.5 23.2 19.5 0.4 0.6-0.5 1.3-0.9 0.6-3.1-5.1-8.3-8.4-13.3-11.6-4.5-2.9-8.9-6-11.9-10.4q-1-1.3-1.6-2.8-0.7-1.5-1-3.1-0.3-1.6-0.3-3.2 0-1.6 0.3-3.2c1-4.1 3.4-7.7 5.3-11.4q0.8-1.5 1.4-3 0.6-1.6 1-3.2 0.4-1.6 0.5-3.3 0.2-1.7 0.1-3.3-0.1-1.8-0.3-3.5-0.3-1.7-0.7-3.3-0.3-1.7-0.9-3.3-0.5-1.7-1.1-3.3-2.9-7.4-6.8-14.3-4-6.9-9-13.1-4.9-6.2-10.8-11.5-5.9-5.3-12.6-9.7c-0.6-0.4-0.1-1.4 0.5-1z"/>
	<path id="Layer" class="s2" d="m691.8 452.4c1.5-0.8 2.8-1.8 3.9-3.1 1.1-1.2 1.9-2.7 2.5-4.2 0.6-1.6 1-3.2 1-4.9 0-1.7-0.3-3.3-0.8-4.9-0.3-0.7 0.8-1 1.1-0.3 0.6 1.6 0.9 3.4 0.8 5.2 0 1.8-0.3 3.6-1 5.3-0.6 1.6-1.6 3.2-2.7 4.5-1.2 1.4-2.6 2.5-4.2 3.4-0.6 0.3-1.3-0.6-0.6-1z"/>
	<path id="Layer" class="s2" d="m695.5 485.5q-2.7-0.8-5.3-2.1-2.5-1.2-4.8-3-2.3-1.7-4.2-3.8-1.9-2.1-3.4-4.6c-0.4-0.6 0.5-1.2 0.9-0.6q1.4 2.4 3.3 4.4 1.8 2 4 3.7 2.2 1.7 4.7 2.9 2.4 1.2 5 2c0.7 0.1 0.5 1.3-0.2 1.1z"/>
	<path id="Layer" class="s2" d="m673.8 426.1q0.1-0.1 0.2 0 0.2 0 0.2 0 0.1 0.1 0.2 0.2 0.1 0.1 0.1 0.2 0 0.1 0 0.2 0 0.1-0.1 0.2-0.1 0.1-0.2 0.2-0.9 0.7-1.9 1.3-1.1 0.5-2.2 0.7-1.2 0.3-2.4 0.2-1.2 0-2.3-0.3c-0.7-0.2-0.5-1.4 0.2-1.1q1.1 0.3 2.1 0.3 1.1 0 2.1-0.2 1.1-0.2 2-0.7 1-0.5 1.8-1.2 0.1 0 0.2 0z"/>
	<path id="Layer" class="s1" d="m596.6 473.4c14.2-8.8 31.9-10.4 48.5-6.6q3.1 0.7 6.2 1.6 3 1 6 2.2 3 1.2 5.8 2.6 2.9 1.4 5.7 3.1 1 0.6 2.1 1.3 1 0.6 2 1.3 1.1 0.7 2.1 1.4 1 0.7 2 1.5 1.8 1.3 3.6 2.8 1.7 1.4 3.4 2.9 1.7 1.5 3.3 3.1 1.7 1.6 3.2 3.2 0.5 0.4 0.9 0.9c9.2 9.7 16.9 21 23.6 32.7q0 0 0 0 1.4 2.3 2.6 4.7 0.1 0.1 0.2 0.2 0 0.1 0 0.1 0.1 0.2 0.2 0.3 0.1 0.3 0.2 0.5 0.3 0.4 0.5 0.8l-1.7 0.4q-0.1 0.1-0.2 0.2l-40.6 10.8q-0.2-0.1-0.5-0.3-0.3-0.2-0.5-0.4-0.2-0.1-0.5-0.3-0.2-0.2-0.5-0.4c-6.1-5-10.2-12.8-14.5-19.7q-1.2-1.9-2.4-3.7-1.2-1.9-2.5-3.6-1.3-1.8-2.7-3.6-1.4-1.7-2.8-3.4-3.6-4.2-7.6-8-4-3.9-8.3-7.4-4.3-3.5-8.9-6.5-4.6-3.1-9.5-5.7-0.6-0.3-1.3-0.7-2-1-4.1-2-2.1-1-4.2-1.9-2.1-0.9-4.3-1.7-2.1-0.8-4.3-1.6-0.7-0.2-1.3-0.4 0.5-0.3 1.1-0.7z"/>
	<path id="Layer" class="s2" d="m595.5 473.5q4.4-0.3 8.8-0.2 4.4 0.1 8.8 0.5 4.4 0.5 8.7 1.3 4.3 0.9 8.6 2.1 3.7 1 7.3 2.3 3.7 1.3 7.2 2.9 3.5 1.6 6.9 3.5 3.4 1.9 6.6 4 1.4 0.9 2.8 2 1.3 1 2.6 2.2 1.3 1.1 2.5 2.4 1.1 1.2 2.2 2.6 0.9 1.3 1.7 2.7 0.8 1.5 1.4 3 0.6 1.5 1 3.1 0.4 1.6 0.6 3.2c0.7 4.1 1 8.6 3 12.4 2.2 4.4 6.7 6.7 11.4 7.6 10 1.9 20.5-2.3 30.3 1.6 0.7 0.2 0.3 1.3-0.4 1-5.6-2.2-11.7-1.7-17.6-1.2-5.3 0.3-10.7 0.5-15.8-1.2q-1.6-0.5-3-1.3-1.4-0.8-2.6-1.8-1.2-1.1-2.2-2.4-1-1.3-1.6-2.8c-1.7-3.9-2-8.1-2.7-12.3q-0.2-1.6-0.7-3.2-0.4-1.6-1.1-3.2-0.7-1.5-1.6-2.9-0.8-1.4-1.9-2.7-1.1-1.3-2.3-2.5-1.3-1.2-2.6-2.3-1.3-1.2-2.7-2.2-1.4-1-2.9-1.8-6.7-4.3-14-7.4-7.3-3.1-15-5-7.7-2-15.7-2.7-7.9-0.7-15.8-0.2c-0.7 0.1-0.9-1.1-0.2-1.1z"/>
	<path id="Layer" class="s2" d="m649.6 485.5c0.7-1.5 1.1-3.2 1.2-4.8 0.1-1.7 0-3.4-0.5-5-0.5-1.6-1.2-3.1-2.2-4.4-1-1.4-2.2-2.5-3.6-3.4-0.6-0.4 0.1-1.4 0.7-1 1.5 1 2.8 2.3 3.8 3.7 1.1 1.5 1.9 3.1 2.4 4.8 0.5 1.7 0.7 3.5 0.5 5.3-0.1 1.8-0.5 3.5-1.3 5.2-0.3 0.6-1.3 0.3-1-0.4z"/>
	<path id="Layer" class="s2" d="m672.4 509.6q-2.6 1.1-5.4 1.6-2.8 0.5-5.7 0.5-2.8 0-5.6-0.5-2.9-0.6-5.5-1.6c-0.7-0.3-0.3-1.3 0.4-1.1q2.5 1 5.2 1.6 2.7 0.5 5.5 0.5 2.7 0 5.4-0.5 2.7-0.5 5.3-1.5c0.6-0.3 1.1 0.8 0.4 1z"/>
	<path id="Layer" class="s2" d="m619.4 475.3q0-0.1 0.1-0.2 0.1 0 0.2 0 0.2 0 0.3 0 0.1 0 0.1 0.1 0.1 0.1 0.2 0.2 0 0.1 0 0.2 0 0.1 0 0.2-0.3 1.2-0.8 2.2-0.5 1.1-1.3 2-0.8 0.9-1.8 1.6-0.9 0.6-2 1.1c-0.7 0.2-1.2-0.8-0.5-1.1q1-0.3 1.9-1 0.8-0.6 1.5-1.4 0.7-0.8 1.2-1.7 0.5-1 0.7-2.1 0.1-0.1 0.2-0.1z"/>
	<path id="Layer" class="s3" d="m524.7 537.9c-5.3 0-9.6-4.3-9.6-9.6 0-5.2 4.3-9.5 9.6-9.5 5.3 0 9.5 4.3 9.5 9.5 0 5.3-4.2 9.6-9.5 9.6z"/>
	<path id="Layer" class="s4" d="m558.5 375.3c-5.3 0-9.5-4.3-9.5-9.6 0-5.2 4.2-9.5 9.5-9.5 5.3 0 9.5 4.3 9.5 9.5 0 5.3-4.2 9.6-9.5 9.6z"/>
	<path id="Layer" class="s4" d="m380.9 110.5c-5.3 0-9.6-4.3-9.6-9.5 0-5.3 4.3-9.6 9.6-9.6 5.2 0 9.5 4.3 9.5 9.6 0 5.2-4.3 9.5-9.5 9.5z"/>
	<path id="Layer" class="s1" d="m181.7 453.4q0.9-6.8 2.6-13.5 1.8-6.7 4.3-13.1 2.6-6.4 6-12.4 0.7-1.2 1.4-2.4 0.7-1.2 1.5-2.4c9-14.2 21.2-26.2 35.7-34.9 14.5-8.6 30.8-13.8 47.6-15 16.9-1.2 33.8 1.5 49.3 8.1 15.6 6.5 29.4 16.6 40.4 29.4q0.5 0.6 1 1.2 0.5 0.6 1 1.2 5.5 6.8 9.8 14.4 4.3 7.5 7.3 15.7 3 8.2 4.7 16.8 1.7 8.6 1.9 17.3 0.1 1.7 0.1 3.3 0 3.9-0.3 7.7 0 0.3 0 0.6-0.1 1.4-0.3 2.8-0.1 1.4-0.3 2.8-0.2 1.4-0.4 2.7-0.2 1.4-0.4 2.8-0.5 2.4-1 4.8-0.6 2.4-1.2 4.8-0.7 2.4-1.5 4.7-0.7 2.4-1.6 4.7l-0.1 0.1q-0.2 0.6-0.4 1.2-0.3 0.6-0.5 1.3-0.3 0.5-0.5 1.1-0.1 0.2-0.2 0.4 0 0 0 0.1 0 0 0 0-0.1 0-0.1 0.1 0 0 0 0-0.2 0.5-0.4 0.9-0.2 0.5-0.4 0.9-0.1 0.3-0.3 0.6-0.2 0.5-0.4 0.9-0.1 0.4-0.3 0.7 0 0 0 0 0 0 0 0 0 0 0 0 0 0 0 0-0.1 0.2-0.2 0.3 0 0.1 0 0.1 0 0 0 0 0 0 0 0 0 0 0 0-0.2 0.3-0.3 0.7-0.2 0.4-0.4 0.8-0.3 0.5-0.5 0.9-0.2 0.4-0.4 0.8-0.1 0.2-0.2 0.3-0.2 0.3-0.3 0.7-0.5 0.9-1 1.7-0.4 0.8-0.9 1.5 0 0 0 0 0 0.1 0 0.1 0 0 0 0.1-0.1 0-0.1 0-0.2 0.3-0.4 0.6-0.2 0.5-0.5 1-0.4 0.6-0.8 1.2-0.4 0.6-0.8 1.2-0.3 0.6-0.7 1.1-0.4 0.6-0.8 1.2-1 1.5-2.1 2.9-0.2 0.3-0.4 0.6-0.9 1.2-1.8 2.3-0.1 0.2-0.3 0.4-0.2 0.3-0.5 0.7-0.1 0.1-0.2 0.2-0.4 0.4-0.7 0.9-0.3 0.3-0.6 0.7-0.1 0-0.1 0.1-0.5 0.5-0.9 1-1.6 1.9-3.3 3.7-1.7 1.8-3.5 3.4-1.8 1.7-3.6 3.4-1.9 1.6-3.8 3.1-1.6 1.2-3.2 2.4-1.9 1.5-4 2.8-1.6 1.1-3.2 2.1-1.6 1-3.3 2-1.7 0.9-3.4 1.8-1.6 0.9-3.4 1.7-0.3 0.2-0.5 0.3-0.1 0-0.1 0-1.3 0.6-2.5 1.2-1.4 0.6-2.8 1.1-0.8 0.4-1.6 0.7-0.4 0.2-0.8 0.3-1.5 0.6-3.1 1.1-1.1 0.4-2.2 0.8-0.1 0-0.3 0 0 0 0 0-0.4 0.2-0.8 0.3-2 0.6-4 1.2-2 0.5-4.1 0.9-2 0.5-4 0.9-2.1 0.4-4.1 0.7-0.3 0-0.6 0-0.1 0.1-0.2 0.1-0.3 0-0.6 0 0 0.1-0.1 0.1-0.4 0-0.8 0.1l-0.7 0.1q-0.4 0-0.7 0 0 0 0 0 0 0 0 0-0.1 0-0.1 0 0 0 0 0-0.1 0-0.1 0.1-0.1 0-0.1 0-0.3 0-0.5 0-1 0.1-2 0.2-4.5 0.4-9.1 0.4-4.3 0-8.5-0.3-0.3-0.1-0.7-0.1-0.4 0-0.8-0.1 0 0 0 0 0 0-0.1 0 0 0 0 0 0 0 0 0-0.4 0-0.9-0.1-0.6 0-1.2-0.1-0.5-0.1-1.1-0.1 0 0 0 0 0 0 0 0 0 0 0 0 0 0 0 0-0.6-0.1-1.2-0.2 0 0 0 0-0.1 0-0.1 0-0.5-0.1-1-0.1h-0.1q-4.3-0.7-8.6-1.7-2.4-0.5-4.8-1.2-0.3-0.1-0.6-0.1-1.4-0.4-2.8-0.9-1.4-0.4-2.8-0.9-1.4-0.5-2.7-1-1.4-0.5-2.8-1.1-1.5-0.6-3-1.3-0.4-0.1-0.8-0.3-0.3-0.2-0.7-0.4-0.3-0.1-0.6-0.3-0.1 0-0.3-0.1-0.3-0.1-0.7-0.3-0.5-0.3-1-0.5-1.3-0.6-2.6-1.3-0.5-0.3-1.1-0.6-1-0.6-2-1.2h-0.1q0 0 0 0-0.2-0.1-0.4-0.2-0.2-0.2-0.4-0.3-0.8-0.5-1.6-0.9-0.2-0.2-0.4-0.3-0.2-0.1-0.4-0.2-0.1-0.1-0.2-0.2-0.4-0.2-0.8-0.5-1.5-0.9-2.9-1.9-2.8-1.9-5.4-3.9-2.6-2.1-5.1-4.2-2.5-2.2-4.8-4.6-2.4-2.3-4.6-4.8-0.1-0.2-0.3-0.3-0.1-0.2-0.2-0.4-0.1-0.1-0.2-0.2l-0.2-0.2q-1.7-1.9-3.3-4-0.1-0.1-0.2-0.2-0.1-0.1-0.2-0.2-0.3-0.5-0.7-1-0.4-0.6-0.9-1.2-0.7-0.9-1.3-1.9 0 0 0 0 0 0 0 0 0 0-0.1 0 0 0 0 0-0.8-1.2-1.6-2.4-0.3-0.4-0.5-0.8-0.6-0.9-1.1-1.8-0.3-0.4-0.5-0.8-0.2-0.2-0.3-0.5-0.3-0.3-0.5-0.7-0.2-0.4-0.4-0.8-0.8-1.3-1.5-2.6-0.3-0.5-0.6-1.1-0.3-0.5-0.5-1 0 0-0.1-0.1 0 0 0 0 0 0 0-0.1 0 0 0 0-0.3-0.5-0.5-0.9 0-0.1-0.1-0.1-0.2-0.6-0.5-1.1-0.2-0.4-0.4-0.8-0.1-0.4-0.3-0.7l-0.3-0.7q-0.3-0.6-0.6-1.3-1.5-3.3-2.7-6.7-1.2-3.4-2.2-6.9-1-3.4-1.8-7-0.8-3.5-1.3-7.1-0.6-4.3-0.9-8.6-0.3-3.6-0.3-7.3 0-6.9 0.9-13.7z"/>
	<path id="Layer" class="s2" d="m282.6 395.3c8.7 1.5 17.9-1.2 24.3-4.4q0.4-0.2 0.8-0.3 0.3-0.2 0.7-0.3 0.4-0.1 0.8-0.2 0.5 0 0.9 0 0.2 0 0.4 0.1 0.2 0 0.4 0.1 0.2 0.1 0.4 0.1 0.2 0.1 0.4 0.2c3.8 1.8 6.8 4 10.6 5.8 7.9 3.6 19.5 5.1 29.9 3.8 6.1-0.8 12.3-2.5 18.3-3q1 1.2 2 2.4c-2.8 0.5-5.9 0.9-8.7 1.4-5.8 1-11 2.9-17.1 3.4q-1 0.1-2 0.1-1.1 0.1-2.1 0.1-1.1 0-2.1 0-1 0-2.1-0.1-6.8-0.2-13.6-0.9-6.9-0.6-13.7-1.6-6.7-0.9-13.5-2.3-6.7-1.3-13.3-3c-1.1-0.3-2.3-0.9-1.7-1.4z"/>
	<path id="Layer" class="s2" d="m246.2 408q-0.1 0-0.3 0 0.2-0.1 0.3-0.2 0.1 0 0.2-0.1 0.1-0.1 0.2-0.2 0.2-0.1 0.3-0.2z"/>
	<path id="Layer" class="s2" d="m197.5 409.6q2.6 0.6 5.3 1 2.8 0.4 5.5 0.5 2.7 0.1 5.5 0 2.7-0.1 5.4-0.4c9-1.1 18-4.2 26.7-2.7-3.3 2.1-9.8 2.6-15.1 3.5-5.8 1.1-11 3-17 3.5q-1.1 0.1-2.1 0.1-1.1 0-2.1 0-1 0-2.1 0-1 0-2-0.1-5.5-0.2-10.9-0.6 1.4-2.4 2.9-4.8z"/>
	<path id="Layer" class="s5" d="m269.2 532.5q-0.1-0.2 0-0.5 0-0.3 0-0.6 0-0.2 0.1-0.5 0-0.3 0.1-0.6c0.2-1.2 0.7-2.3 1.3-3.3 0.7-1 1.6-1.8 2.6-2.5 1-0.7 2.1-1.1 3.3-1.4 1.2-0.2 2.4-0.2 3.6 0l14.8 3.1q0.8 0.2 1.7 0.6 0.8 0.3 1.5 0.8 0.7 0.5 1.3 1.1 0.7 0.7 1.1 1.4 0.5 0.8 0.9 1.6 0.3 0.9 0.5 1.8 0.1 0.9 0.1 1.8 0 0.9-0.2 1.8-0.1 0.7-0.4 1.4-0.2 0.6-0.6 1.3-0.3 0.6-0.8 1.1-0.4 0.6-0.9 1.1 4.2 2 7.8 4.8 3.6 2.9 6.4 6.5 2.9 3.7 4.9 7.9 1.9 4.1 2.9 8.6-0.4 0.2-0.8 0.3-2 0.6-4 1.2-2 0.5-4.1 0.9-2 0.5-4 0.9-2.1 0.4-4.1 0.7-0.3 0-0.6 0-0.1 0.1-0.2 0.1-0.3 0-0.6 0 0 0.1-0.1 0.1-0.4 0-0.8 0.1l-0.7 0.1q-0.4 0-0.7 0 0 0 0 0 0 0 0 0-0.1 0-0.1 0 0 0 0 0-0.1 0-0.1 0.1-0.1 0-0.1 0-0.3 0-0.5 0-1 0.1-2 0.2-4.5 0.4-9.1 0.4-4.3 0-8.5-0.3-0.3-0.1-0.7-0.1-0.4 0-0.8-0.1 0 0 0 0 0 0-0.1 0 0 0 0 0 0 0 0 0-0.4 0-0.9-0.1-0.6 0-1.2-0.1-0.5-0.1-1.1-0.1 0 0 0 0 0 0 0 0 0 0 0 0 0 0 0 0-0.6-0.1-1.2-0.2 0 0 0 0-0.1 0-0.1 0-0.5-0.1-1-0.1h-0.1q-4.3-0.7-8.6-1.7-2.4-0.5-4.8-1.2-0.3-0.1-0.6-0.1-1.4-0.4-2.8-0.9-1.4-0.4-2.8-0.9-1.4-0.5-2.7-1-1.4-0.5-2.8-1.1-1.5-0.6-3-1.3-0.4-0.1-0.8-0.3-0.3-0.2-0.7-0.4-0.3-0.1-0.6-0.3-0.1 0-0.3-0.1-0.3-0.1-0.7-0.3-0.5-0.3-1-0.5-1.3-0.6-2.6-1.3c6.5-10.5 16.8-20.4 31.1-29.9z"/>
	<path id="Layer" class="s6" d="m281.9 517.3c-17.1 0-30.9-13.8-30.9-30.9 0-17.1 13.8-30.9 30.9-30.9 17.1 0 30.9 13.8 30.9 30.9 0 17.1-13.8 30.9-30.9 30.9z"/>
	<path id="Layer" class="s7" d="m262.6 513c-3.3-2.2-6.6-6.6-8.9-9.8q-2.2-3.2-3.7-6.8-1.5-3.6-2.3-7.4-0.7-3.8-0.6-7.7 0-3.9 0.9-7.7 0.2-0.8 0.4-1.5 0.2-0.7 0.6-1.4 0.3-0.7 0.7-1.3 0.5-0.7 1-1.2c1.4-1.5 3.8-2.2 5.6-1.1q-0.4-1-0.5-2-0.2-1.1-0.1-2.1 0-1 0.3-2 0.2-1.1 0.7-2 0.5-0.9 1-1.8 0.6-0.8 1.3-1.6 0.6-0.8 1.4-1.5 0.7-0.8 1.6-1.4c2.1-1.6 4.4-2.9 6.9-3.9 2.5-1.1 5.1-1.7 7.7-2 2.7-0.4 5.4-0.3 8 0.1 2.6 0.4 5.2 1.2 7.7 2.2 1.9 0.9-1.3-6 0.7-5.3q0.8 0.3 1.6 0.4 0.7 0.2 1.5 0.2 0.8-0.1 1.6-0.2 0.8-0.2 1.5-0.5c1.9-1 8.2 4.7 7.5 2.7 1.4 0.7 2.7 1.7 3.6 2.9 1 1.3 1.6 2.8 1.8 4.4 0.2 1.5 0.1 3.1-0.5 4.6-0.6 1.5-1.5 2.8-2.7 3.8-1.6 1.4-3.6 2.1-5.3 3.3-1.6 1-2.9 2.4-3.9 3.9-1.1 1.6-1.8 3.3-2.2 5.1-0.5 1.8-0.6 3.6-0.3 5.5 0.2 1.8 0.8 3.6 1.7 5.2q-0.7-0.4-1.4-0.8-0.8-0.4-1.5-0.7-0.8-0.3-1.5-0.6-0.8-0.3-1.6-0.5-0.8-0.2-1.6-0.2-0.8 0-1.6 0.2-0.8 0.2-1.5 0.6-0.8 0.4-1.4 0.9-0.5 0.6-0.9 1.3-0.4 0.7-0.6 1.4-0.3 0.8-0.4 1.5 0 0.8 0 1.6c0.1 2.1 0.6 4.2 0.7 6.3 0.1 6.1 3.4 17.8-1.4 21.1-3.7 2.6-17.1-1.1-21.6-4.2z"/>
	<path id="Layer" class="s8" d="m808.3-17.7h-807.3q-0.4 0-0.7-0.3-0.3-0.3-0.3-0.7 0-0.5 0.3-0.8 0.3-0.3 0.7-0.3h807.3q0.4 0 0.7 0.3 0.3 0.3 0.3 0.8 0 0.4-0.3 0.7-0.3 0.3-0.7 0.3z"/>
	<path id="Layer" class="s9" d="m23.8-32.2c-6.1 0-11.1-5.1-11.1-11.4 0-6.3 5-11.4 11.1-11.4 6.2 0 11.2 5.1 11.2 11.4 0 6.3-5 11.4-11.2 11.4z"/>
	<path id="Layer" class="s9" d="m62.3-32.2c-6.1 0-11.1-5.1-11.1-11.4 0-6.3 5-11.4 11.1-11.4 6.2 0 11.2 5.1 11.2 11.4 0 6.3-5 11.4-11.2 11.4z"/>
	<path id="Layer" class="s9" d="m100.9-32.2c-6.2 0-11.2-5.1-11.2-11.4 0-6.3 5-11.4 11.2-11.4 6.1 0 11.1 5.1 11.1 11.4 0 6.3-5 11.4-11.1 11.4z"/>
	<path id="Layer" class="s9" d="m785.3-48h-27.4c-0.6 0-1.1-0.3-1.4-0.7-0.4-0.3-0.6-0.9-0.6-1.4 0-0.5 0.2-1.1 0.6-1.5 0.3-0.3 0.8-0.6 1.4-0.6h27.4c0.5 0 1 0.3 1.4 0.6 0.4 0.4 0.6 1 0.6 1.5 0 0.5-0.2 1.1-0.6 1.4-0.4 0.4-0.9 0.7-1.4 0.7z"/>
	<path id="Layer" class="s9" d="m785.3-40.3h-27.4c-0.6 0-1.1-0.2-1.4-0.6-0.4-0.4-0.6-0.9-0.6-1.4 0-0.6 0.2-1.1 0.6-1.5 0.3-0.4 0.8-0.6 1.4-0.6h27.4c0.5 0 1 0.2 1.4 0.6 0.4 0.4 0.6 0.9 0.6 1.5 0 0.5-0.2 1-0.6 1.4-0.4 0.4-0.9 0.6-1.4 0.6z"/>
	<path id="Layer" class="s9" d="m785.3-32.5h-27.4c-0.6 0-1.1-0.2-1.4-0.6-0.4-0.4-0.6-0.9-0.6-1.5 0-0.5 0.2-1 0.6-1.4 0.3-0.4 0.8-0.6 1.4-0.6h27.4c0.5 0 1 0.2 1.4 0.6 0.4 0.4 0.6 0.9 0.6 1.4 0 0.6-0.2 1.1-0.6 1.5-0.4 0.4-0.9 0.6-1.4 0.6z"/>
	<path id="Layer" class="s2" d="m303.1 331.9q-0.2 0-0.5-0.1-0.2 0-0.5 0-0.2-0.1-0.4-0.2-0.3 0-0.5-0.1-0.7-0.3-1.2-0.8-0.6-0.4-1-1-0.4-0.6-0.6-1.3-0.2-0.7-0.2-1.4v-4.9q0-0.8-0.3-1.5-0.3-0.7-0.8-1.2-0.6-0.6-1.3-0.9-0.7-0.3-1.4-0.3-1 0-1.9-0.3-0.9-0.4-1.6-1.1-0.7-0.7-1-1.6-0.4-0.9-0.4-1.8v-67q0-1 0.4-1.9 0.3-0.9 1-1.5 0.7-0.7 1.6-1.1 0.9-0.4 1.8-0.4h221.9q0.9 0 1.8 0.4 0.9 0.4 1.6 1.1 0.7 0.6 1.1 1.5 0.3 0.9 0.3 1.9v67q0 0.9-0.3 1.8-0.4 0.9-1.1 1.6-0.7 0.7-1.6 1.1-0.9 0.3-1.8 0.3h-195.9q-0.4 0-0.7 0.1-0.4 0.1-0.8 0.2-0.3 0.2-0.6 0.4-0.3 0.2-0.6 0.5l-11.1 11q-0.3 0.4-0.7 0.6-0.4 0.3-0.8 0.5-0.5 0.2-0.9 0.3-0.5 0.1-1 0.1z"/>
	<path id="Layer" fill-rule="evenodd" class="s9" d="m303.1 332.9q-0.3 0-0.6-0.1-0.3 0-0.5-0.1-0.3 0-0.6-0.1-0.3-0.1-0.6-0.2-0.8-0.3-1.4-0.9-0.7-0.5-1.2-1.3-0.5-0.7-0.7-1.5-0.3-0.8-0.3-1.7v-4.9q0-0.6-0.2-1.1-0.2-0.5-0.6-0.9-0.4-0.4-1-0.7-0.5-0.2-1-0.2-1.2 0-2.3-0.4-1.1-0.5-1.9-1.3-0.8-0.8-1.3-1.9-0.4-1.1-0.4-2.2v-67q0-1.2 0.4-2.2 0.5-1.1 1.3-1.9 0.8-0.9 1.9-1.3 1.1-0.5 2.2-0.5h221.9q1.1 0 2.2 0.5 1.1 0.4 1.9 1.3 0.8 0.8 1.3 1.9 0.4 1 0.4 2.2v67q0 1.1-0.4 2.2-0.5 1.1-1.3 1.9-0.8 0.8-1.9 1.3-1.1 0.4-2.2 0.4h-195.9q-0.3 0-0.5 0.1-0.3 0-0.6 0.1-0.2 0.1-0.5 0.3-0.2 0.2-0.4 0.4l-11.1 11q-0.4 0.4-0.8 0.8-0.5 0.3-1.1 0.5-0.5 0.2-1 0.3-0.6 0.2-1.2 0.2zm-8.8-90.4q-0.7 0-1.4 0.3-0.7 0.3-1.3 0.9-0.5 0.5-0.8 1.2-0.3 0.7-0.3 1.5v67q0 0.7 0.3 1.4 0.3 0.7 0.8 1.3 0.6 0.5 1.3 0.8 0.7 0.3 1.5 0.3 0.9 0 1.8 0.4 0.9 0.4 1.6 1.1 0.7 0.6 1 1.5 0.4 0.9 0.4 1.9v4.9c0 0.7 0.2 1.5 0.7 2.1 0.4 0.7 1 1.2 1.7 1.4 0.7 0.3 1.5 0.4 2.2 0.3 0.8-0.2 1.5-0.5 2-1.1l11.1-11q0.3-0.4 0.7-0.7 0.4-0.2 0.9-0.4 0.4-0.2 0.9-0.3 0.4-0.1 0.9-0.1h195.9q0.7 0 1.5-0.3 0.7-0.3 1.2-0.8 0.6-0.6 0.8-1.3 0.3-0.7 0.3-1.4v-67q0-0.8-0.3-1.5-0.2-0.7-0.8-1.2-0.5-0.6-1.2-0.9-0.8-0.3-1.5-0.3z"/>
	<path id="Layer" class="s5" d="m497.1 271.8h-179.9c-0.7 0-1.3-0.2-1.8-0.7-0.5-0.5-0.8-1.2-0.8-1.8 0-0.7 0.3-1.4 0.8-1.9 0.5-0.5 1.1-0.7 1.8-0.7h179.9c0.7 0 1.4 0.2 1.8 0.7 0.5 0.5 0.8 1.2 0.8 1.9 0 0.6-0.3 1.3-0.8 1.8-0.4 0.5-1.1 0.7-1.8 0.7z"/>
	<path id="Layer" class="s4" d="m496.8 282.9h-179.6c-0.7 0-1.3-0.3-1.8-0.8-0.5-0.5-0.8-1.1-0.8-1.8 0-0.7 0.3-1.4 0.8-1.9 0.5-0.5 1.1-0.7 1.8-0.7h179.6c0.7 0 1.3 0.2 1.8 0.7 0.5 0.5 0.8 1.2 0.8 1.9 0 0.7-0.3 1.3-0.8 1.8-0.5 0.5-1.1 0.8-1.8 0.8z"/>
	<path id="Layer" class="s4" d="m496.6 293.9h-179.4c-0.7 0-1.3-0.3-1.8-0.8-0.5-0.5-0.8-1.1-0.8-1.8 0-0.7 0.3-1.4 0.8-1.9 0.5-0.4 1.1-0.7 1.8-0.7h179.4c0.7 0 1.4 0.3 1.8 0.7 0.5 0.5 0.8 1.2 0.8 1.9 0 0.7-0.3 1.3-0.8 1.8-0.4 0.5-1.1 0.8-1.8 0.8z"/>
	<path id="Layer" class="s1" d="m780.4 231.1q0 3.7-0.3 7.3-0.2 4.3-0.9 8.6-0.5 3.6-1.3 7.1-0.7 3.6-1.7 7-1.1 3.5-2.3 6.9-1.2 3.4-2.7 6.7-0.3 0.7-0.6 1.3l-0.3 0.7q-0.1 0.3-0.3 0.7-0.2 0.4-0.4 0.8-0.3 0.5-0.5 1.1-0.1 0-0.1 0.1-0.2 0.4-0.5 0.9 0 0 0 0 0 0.1 0 0.1 0 0 0 0 0 0.1-0.1 0.1-0.2 0.5-0.5 1-0.3 0.6-0.6 1.1-0.7 1.3-1.5 2.6-0.2 0.4-0.4 0.8-0.2 0.4-0.5 0.7-0.1 0.3-0.3 0.5-0.2 0.4-0.4 0.8-0.6 0.9-1.2 1.8-0.2 0.4-0.5 0.8-0.8 1.2-1.6 2.4 0 0 0 0 0 0 0 0 0 0 0 0 0 0 0 0-0.7 1-1.4 1.9-0.4 0.6-0.9 1.2-0.3 0.5-0.7 1-0.1 0.1-0.2 0.2-0.1 0.1-0.2 0.2-1.6 2.1-3.3 4l-0.2 0.2q0 0.1-0.1 0.2-0.2 0.2-0.3 0.4-0.2 0.1-0.3 0.3-2.2 2.5-4.6 4.8-2.3 2.4-4.8 4.6-2.5 2.1-5.1 4.2-2.6 2-5.4 3.9-1.4 1-2.9 1.9-0.4 0.3-0.8 0.5-0.1 0.1-0.2 0.2-0.2 0.1-0.4 0.2-0.2 0.1-0.4 0.3-0.8 0.4-1.6 0.9-0.2 0.1-0.4 0.3-0.2 0.1-0.4 0.2 0 0 0 0-1 0.6-2.1 1.2-0.5 0.3-1.1 0.6-1.3 0.7-2.6 1.3-0.5 0.2-1 0.5-0.3 0.2-0.7 0.3-0.2 0.1-0.3 0.1-0.3 0.2-0.6 0.3-0.4 0.2-0.7 0.4-0.4 0.2-0.8 0.3-1.5 0.7-3 1.3-1.4 0.6-2.8 1.1-1.3 0.5-2.7 1-1.4 0.5-2.8 0.9-1.4 0.5-2.8 0.9-0.3 0-0.5 0.1-2.5 0.7-4.9 1.2-4.3 1-8.6 1.7h-0.1q-0.5 0-1 0.1 0 0-0.1 0 0 0 0 0-0.6 0.1-1.2 0.2 0 0 0 0 0 0 0 0 0 0 0 0 0 0 0 0-0.6 0-1.1 0.1-0.6 0.1-1.2 0.1-0.4 0.1-0.9 0.1 0 0 0 0 0 0 0 0 0 0-0.1 0 0 0 0 0-0.4 0.1-0.8 0.1-0.4 0-0.7 0.1-4.2 0.3-8.5 0.3-4.6 0-9.1-0.4-1-0.1-1.9-0.2-0.3 0-0.5 0-0.1 0-0.1 0-0.1-0.1-0.2-0.1 0 0 0 0 0 0 0 0-0.1 0-0.1 0 0 0 0 0-0.3 0-0.7 0l-0.7-0.1q-0.4-0.1-0.8-0.1 0 0-0.1-0.1-0.3 0-0.6 0-0.1 0-0.2-0.1-0.3 0-0.6 0-2-0.3-4.1-0.7-2-0.4-4-0.9-2.1-0.4-4.1-0.9-2-0.6-4-1.2-0.4-0.1-0.8-0.3 0 0 0 0-0.2 0-0.3 0-1.1-0.4-2.2-0.8-1.5-0.5-3.1-1.1-0.4-0.1-0.8-0.3-0.8-0.3-1.6-0.7-1.4-0.5-2.7-1.1-1.3-0.6-2.6-1.2 0 0 0 0-0.3-0.1-0.6-0.3-1.7-0.8-3.4-1.7-1.7-0.9-3.4-1.8-1.7-1-3.3-2-1.6-1-3.2-2.1-2-1.3-4-2.8-1.6-1.2-3.2-2.4-1.9-1.5-3.7-3.1-1.9-1.7-3.7-3.4-1.7-1.6-3.4-3.4-1.7-1.8-3.4-3.7-0.4-0.5-0.9-1 0-0.1-0.1-0.1-0.3-0.4-0.5-0.7-0.4-0.5-0.8-0.9-0.1-0.1-0.1-0.2-0.3-0.4-0.6-0.7-0.2-0.2-0.3-0.4-0.9-1.1-1.8-2.3-0.2-0.3-0.4-0.6-1.1-1.4-2.1-2.9-0.4-0.6-0.8-1.2-0.4-0.5-0.7-1.1-0.4-0.6-0.8-1.2-0.4-0.6-0.8-1.2-0.2-0.5-0.5-1-0.2-0.3-0.4-0.6 0 0 0 0-0.1-0.1-0.1-0.1 0 0 0-0.1 0 0 0 0-0.5-0.7-0.9-1.5-0.5-0.8-0.9-1.7-0.2-0.4-0.4-0.7-0.1-0.1-0.2-0.3-0.2-0.4-0.4-0.8-0.2-0.4-0.4-0.9-0.3-0.4-0.5-0.8-0.1-0.4-0.3-0.7 0 0 0 0 0 0 0 0 0 0 0 0 0 0 0-0.1-0.1-0.1-0.2-0.3 0 0 0 0 0 0 0 0 0 0 0 0 0 0 0 0-0.2-0.3-0.3-0.7-0.2-0.4-0.4-0.9-0.2-0.3-0.3-0.6-0.2-0.4-0.4-0.9-0.2-0.4-0.4-0.9 0 0 0 0 0-0.1 0-0.1-0.1 0-0.1 0 0-0.1 0-0.1-0.1-0.2-0.2-0.4-0.2-0.6-0.4-1.1-0.3-0.7-0.6-1.3-0.2-0.6-0.4-1.2l-0.1-0.1q-0.8-2.3-1.6-4.7-0.8-2.3-1.4-4.7-0.7-2.4-1.3-4.8-0.5-2.4-1-4.8-0.2-1.4-0.4-2.8-0.2-1.3-0.4-2.7-0.2-1.4-0.3-2.8-0.2-1.4-0.3-2.8 0-0.3 0-0.6-0.3-3.8-0.3-7.7 0-1.6 0.1-3.3 0.2-8.7 1.9-17.3 1.7-8.6 4.7-16.8 3-8.2 7.3-15.7 4.4-7.6 9.8-14.4 0.5-0.6 1-1.2 0.5-0.6 1-1.2c11-12.8 24.8-22.9 40.4-29.4 15.6-6.6 32.4-9.3 49.3-8.1 16.8 1.2 33.1 6.4 47.6 15 14.5 8.7 26.7 20.7 35.8 34.9q0.7 1.2 1.4 2.4 0.7 1.2 1.4 2.4 3.4 6 6 12.4 2.6 6.4 4.3 13.1 1.7 6.7 2.6 13.5 0.9 6.8 0.9 13.7z"/>
	<path id="Layer" class="s2" d="m676.9 160.7q-6.6 1.7-13.3 3-6.8 1.4-13.5 2.3-6.8 1-13.6 1.6-6.9 0.7-13.7 0.9-1.1 0.1-2.1 0.1-1 0-2.1 0-1 0-2-0.1-1.1 0-2.1-0.1c-6.1-0.5-11.3-2.4-17.1-3.4-2.8-0.5-5.9-0.9-8.7-1.4q1-1.2 2-2.4c6.1 0.5 12.2 2.2 18.3 3 10.4 1.3 22.1-0.2 29.9-3.8 3.9-1.8 6.8-4 10.6-5.8q0.2-0.1 0.4-0.2 0.2 0 0.4-0.1 0.2-0.1 0.4-0.1 0.2-0.1 0.4-0.1 0.5 0 0.9 0 0.4 0.1 0.8 0.2 0.4 0.1 0.7 0.3 0.4 0.1 0.8 0.3c6.4 3.2 15.6 5.9 24.3 4.4 0.6 0.5-0.6 1.1-1.7 1.4z"/>
	<path id="Layer" class="s2" d="m714.3 171.3q0.2 0.1 0.3 0.2 0.1 0.1 0.2 0.2 0.1 0.1 0.2 0.1 0.2 0.1 0.3 0.2-0.1 0-0.3 0z"/>
	<path id="Layer" class="s2" d="m766.6 178.4q-5.4 0.4-10.8 0.6-1.1 0.1-2.1 0.1-1.1 0-2.1 0-1 0-2.1 0-1 0-2-0.1c-6.1-0.5-11.3-2.4-17.1-3.5-5.3-0.9-11.8-1.4-15.1-3.5 8.7-1.5 17.7 1.6 26.7 2.7q2.7 0.3 5.4 0.4 2.8 0.1 5.5 0 2.7-0.1 5.5-0.5 2.7-0.4 5.4-1 1.4 2.4 2.8 4.8z"/>
	<path id="Layer" class="s10" d="m660.5 278.3c-17.9 0-32.4-14.8-32.4-33.1 0-18.3 14.5-33.1 32.4-33.1 17.9 0 32.4 14.8 32.4 33.1 0 18.3-14.5 33.1-32.4 33.1z"/>
	<path id="Layer" class="s5" d="m723.1 326.4q-1.3 0.7-2.6 1.3-0.5 0.2-1 0.5-0.3 0.2-0.7 0.3-0.2 0.1-0.3 0.1-0.3 0.2-0.6 0.3-0.4 0.2-0.7 0.4-0.4 0.2-0.8 0.3-1.5 0.7-3 1.3-1.4 0.6-2.8 1.1-1.3 0.5-2.7 1-1.4 0.5-2.8 0.9-1.4 0.5-2.8 0.9-0.3 0-0.5 0.1-2.5 0.7-4.9 1.2-4.3 1-8.6 1.7h-0.1q-0.5 0-1 0.1 0 0-0.1 0 0 0 0 0-0.6 0.1-1.2 0.2 0 0 0 0 0 0 0 0 0 0 0 0 0 0 0 0-0.6 0-1.1 0.1-0.6 0.1-1.2 0.1-0.4 0.1-0.9 0.1 0 0 0 0 0 0 0 0 0 0-0.1 0 0 0 0 0-0.4 0.1-0.8 0.1-0.4 0-0.7 0.1-4.2 0.3-8.5 0.3-4.6 0-9.1-0.4-1-0.1-1.9-0.2-0.3 0-0.5 0-0.1 0-0.1 0-0.1-0.1-0.2-0.1 0 0 0 0 0 0 0 0-0.1 0-0.1 0 0 0 0 0-0.3 0-0.7 0l-0.7-0.1q-0.4-0.1-0.8-0.1 0 0-0.1-0.1-0.3 0-0.6 0-0.1 0-0.2-0.1-0.3 0-0.6 0-2-0.3-4.1-0.7-2-0.4-4-0.9-2.1-0.4-4.1-0.9-2-0.6-4-1.2-0.4-0.1-0.8-0.3 1-4.5 2.9-8.6 2-4.2 4.9-7.9 2.8-3.6 6.4-6.5 3.7-2.8 7.8-4.8-0.5-0.5-0.9-1.1-0.5-0.5-0.8-1.1-0.4-0.7-0.6-1.3-0.3-0.7-0.4-1.4-0.2-0.9-0.2-1.8 0-0.9 0.1-1.8 0.2-0.9 0.5-1.8 0.4-0.8 0.9-1.6 0.5-0.7 1.1-1.4 0.6-0.6 1.3-1.1 0.7-0.5 1.6-0.8 0.8-0.4 1.6-0.6l14.9-3.1c1.1-0.2 2.4-0.2 3.5 0 1.2 0.3 2.3 0.7 3.3 1.4 1 0.7 1.9 1.5 2.6 2.5 0.6 1 1.1 2.1 1.4 3.3q0 0.3 0.1 0.6 0 0.3 0 0.5 0 0.3 0.1 0.6 0 0.3 0 0.5c14.2 9.5 24.5 19.4 31 29.9z"/>
	<path id="Layer" class="s7" d="m782.6 237.1c-1.5 5.3-3.2 10.5-6.1 15-2.9 4.5-7.3 8.2-12.4 9.1-6.5 1.2-12.9-2.1-17.9-6.4-5.1-4.3-9.3-9.6-14.5-13.6-5.3-4.1-22.6-8.5-28.8-6.4-1.4 0.5-1.7 2-1.4 4.1q0.6 4 0.4 8-0.2 4-1.3 7.9-1 3.8-2.8 7.4-1.7 3.6-4.2 6.8-0.2 0.2-0.4 0.5c-5.8 9-17.1 13.7-27.3 11.4-4.2-1-8.9-4.1-8.5-8.6 0.2-3 2.6-5.2 4.6-7.4 2-2.1 3.8-5.1 2.8-7.9-1.4-4-6.8-3.7-10.6-5.3-4.7-1.9-7.5-7.8-6.1-12.9l-2.5-2.4c-7.3 4-17.2 1.3-21.7-5.7-4.6-7.1-3.2-17.7 3-23.2 1.5-1.4 3.3-2.4 5.3-3.1 1.9-0.7 3.9-1 6-1 2 0.1 4 0.5 5.9 1.3 1.9 0.7 3.7 1.8 5.2 3.2 6.9-9.7 20.1-14.1 31.2-10.2 11 3.9 19 15.7 18.9 27.9 0.4-6 0.8-12 3-17.5 2.2-5.5 6.5-10.4 12-11.6 8.1-1.6 15.8 4.9 20.2 12.2 4.4 7.2 7 15.7 12.5 22.2 8.6 10.1 24.2 12.8 35.5 6.2z"/>
	<path id="Layer" class="s1" d="m83.7 150.4q0.9-6.8 2.6-13.5 1.8-6.7 4.3-13.1 2.6-6.4 6-12.4 0.7-1.2 1.4-2.4 0.7-1.2 1.5-2.4c9-14.2 21.2-26.2 35.7-34.9 14.5-8.6 30.8-13.8 47.6-15 16.9-1.2 33.8 1.5 49.3 8.1 15.6 6.5 29.4 16.6 40.4 29.4q0.5 0.6 1 1.2 0.5 0.6 1 1.2 5.5 6.8 9.8 14.4 4.3 7.5 7.3 15.7 3 8.2 4.7 16.8 1.7 8.6 1.9 17.3 0.1 1.7 0.1 3.3 0 3.9-0.3 7.7 0 0.3 0 0.6-0.1 1.4-0.3 2.8-0.1 1.4-0.3 2.8-0.2 1.4-0.4 2.7-0.2 1.4-0.4 2.8-0.5 2.4-1 4.8-0.6 2.4-1.2 4.8-0.7 2.4-1.5 4.7-0.7 2.4-1.6 4.7l-0.1 0.1q-0.2 0.6-0.4 1.2-0.3 0.6-0.5 1.3-0.3 0.5-0.5 1.1-0.1 0.2-0.2 0.4 0 0 0 0.1 0 0 0 0-0.1 0-0.1 0.1 0 0 0 0-0.2 0.5-0.4 0.9-0.2 0.5-0.4 0.9-0.1 0.3-0.3 0.6-0.2 0.5-0.4 0.9-0.1 0.4-0.3 0.7 0 0 0 0 0 0 0 0 0 0 0 0 0 0 0 0-0.1 0.2-0.2 0.3 0 0.1 0 0.1 0 0 0 0 0 0 0 0 0 0 0 0-0.2 0.3-0.3 0.7-0.2 0.4-0.4 0.8-0.3 0.5-0.5 0.9-0.2 0.4-0.4 0.8-0.1 0.2-0.2 0.3-0.2 0.3-0.3 0.7-0.5 0.9-1 1.7-0.4 0.8-0.9 1.5 0 0 0 0 0 0.1 0 0.1 0 0 0 0.1-0.1 0-0.1 0-0.2 0.3-0.4 0.6-0.2 0.5-0.5 1-0.4 0.6-0.8 1.2-0.4 0.6-0.8 1.2-0.3 0.6-0.7 1.1-0.4 0.6-0.8 1.2-1 1.5-2.1 2.9-0.2 0.3-0.4 0.6-0.9 1.2-1.8 2.3-0.1 0.2-0.3 0.4-0.2 0.3-0.5 0.7-0.1 0.1-0.2 0.2-0.4 0.4-0.7 0.9-0.3 0.3-0.6 0.7-0.1 0-0.1 0.1-0.5 0.5-0.9 1-1.6 1.9-3.3 3.7-1.7 1.8-3.5 3.4-1.8 1.7-3.6 3.4-1.9 1.6-3.8 3.1-1.6 1.2-3.2 2.4-1.9 1.5-4 2.8-1.6 1.1-3.2 2.1-1.6 1-3.3 2-1.7 0.9-3.4 1.8-1.6 0.9-3.4 1.7-0.3 0.2-0.5 0.3-0.1 0-0.1 0-1.3 0.6-2.5 1.2-1.4 0.6-2.8 1.1-0.8 0.4-1.6 0.7-0.4 0.2-0.8 0.3-1.5 0.6-3.1 1.1-1.1 0.4-2.2 0.8-0.1 0-0.3 0 0 0 0 0-0.4 0.2-0.8 0.3-2 0.6-4 1.2-2 0.5-4.1 0.9-2 0.5-4 0.9-2.1 0.4-4.1 0.7-0.3 0-0.6 0-0.1 0.1-0.2 0.1-0.3 0-0.6 0 0 0.1-0.1 0.1-0.4 0-0.8 0.1l-0.7 0.1q-0.4 0-0.7 0 0 0 0 0 0 0 0 0-0.1 0-0.1 0 0 0 0 0-0.1 0-0.1 0.1-0.1 0-0.1 0-0.3 0-0.5 0-1 0.1-2 0.2-4.5 0.4-9.1 0.4-4.3 0-8.5-0.3-0.3-0.1-0.7-0.1-0.4 0-0.8-0.1 0 0 0 0 0 0-0.1 0 0 0 0 0 0 0 0 0-0.4 0-0.9-0.1-0.6 0-1.2-0.1-0.5-0.1-1.1-0.1 0 0 0 0 0 0 0 0 0 0 0 0 0 0 0 0-0.6-0.1-1.2-0.2 0 0 0 0-0.1 0-0.1 0-0.5-0.1-1-0.1h-0.1q-4.3-0.7-8.6-1.7-2.4-0.5-4.8-1.2-0.3-0.1-0.6-0.1-1.4-0.4-2.8-0.9-1.4-0.4-2.8-0.9-1.4-0.5-2.7-1-1.4-0.5-2.8-1.1-1.5-0.6-3-1.3-0.4-0.1-0.8-0.3-0.3-0.2-0.7-0.4-0.3-0.1-0.6-0.3-0.1 0-0.3-0.1-0.3-0.1-0.7-0.3-0.5-0.3-1-0.5-1.3-0.6-2.6-1.3-0.5-0.3-1.1-0.6-1-0.6-2-1.2h-0.1q0 0 0 0-0.2-0.1-0.4-0.2-0.2-0.2-0.4-0.3-0.8-0.5-1.6-0.9-0.2-0.2-0.4-0.3-0.2-0.1-0.4-0.2-0.1-0.1-0.2-0.2-0.4-0.2-0.8-0.5-1.5-0.9-2.9-1.9-2.8-1.9-5.4-3.9-2.6-2.1-5.1-4.2-2.5-2.2-4.8-4.6-2.4-2.3-4.6-4.8-0.1-0.2-0.3-0.3-0.1-0.2-0.2-0.4-0.1-0.1-0.2-0.2l-0.2-0.2q-1.7-1.9-3.3-4-0.1-0.1-0.2-0.2-0.1-0.1-0.2-0.2-0.3-0.5-0.7-1-0.4-0.6-0.9-1.2-0.7-0.9-1.3-1.9 0 0 0 0 0 0 0 0 0 0-0.1 0 0 0 0 0-0.8-1.2-1.6-2.4-0.3-0.4-0.5-0.8-0.6-0.9-1.1-1.8-0.3-0.4-0.5-0.8-0.2-0.2-0.3-0.5-0.3-0.3-0.5-0.7-0.2-0.4-0.4-0.8-0.8-1.3-1.5-2.6-0.3-0.5-0.6-1.1-0.3-0.5-0.5-1 0 0-0.1-0.1 0 0 0 0 0 0 0-0.1 0 0 0 0-0.3-0.5-0.5-0.9 0-0.1-0.1-0.1-0.2-0.6-0.5-1.1-0.2-0.4-0.4-0.8-0.1-0.4-0.3-0.7l-0.3-0.7q-0.3-0.6-0.6-1.3-1.5-3.3-2.7-6.7-1.2-3.4-2.2-6.9-1-3.4-1.8-7-0.8-3.5-1.3-7.1-0.6-4.3-0.9-8.6-0.3-3.6-0.3-7.3 0-6.9 0.9-13.7z"/>
	<path id="Layer" class="s2" d="m184.6 92.3c8.7 1.5 17.9-1.2 24.3-4.4q0.4-0.2 0.8-0.3 0.3-0.2 0.7-0.3 0.4-0.1 0.8-0.2 0.5 0 0.9 0 0.2 0 0.4 0.1 0.2 0 0.4 0.1 0.2 0.1 0.4 0.1 0.2 0.1 0.4 0.2c3.8 1.8 6.8 4 10.6 5.8 7.9 3.6 19.5 5.1 29.9 3.8 6.1-0.8 12.3-2.5 18.3-3q1 1.2 2 2.4c-2.8 0.5-5.9 0.9-8.7 1.4-5.8 1-11 2.9-17.1 3.4q-1 0.1-2 0.1-1.1 0.1-2.1 0.1-1.1 0-2.1 0-1 0-2.1-0.1-6.8-0.2-13.6-0.9-6.9-0.6-13.7-1.6-6.7-0.9-13.5-2.3-6.7-1.3-13.3-3c-1.1-0.3-2.3-0.9-1.7-1.4z"/>
	<path id="Layer" class="s2" d="m148.2 105q-0.1 0-0.3 0 0.2-0.1 0.3-0.2 0.1 0 0.2-0.1 0.1-0.1 0.2-0.2 0.2-0.1 0.3-0.2z"/>
	<path id="Layer" class="s2" d="m99.5 106.6q2.6 0.6 5.3 1 2.8 0.4 5.5 0.5 2.7 0.1 5.5 0 2.7-0.1 5.4-0.4c9-1.1 18-4.2 26.7-2.7-3.3 2.1-9.8 2.6-15.1 3.5-5.8 1.1-11 3-17 3.5q-1.1 0.1-2.1 0.1-1.1 0-2.1 0-1 0-2.1 0-1 0-2-0.1-5.5-0.2-10.9-0.6 1.4-2.4 2.9-4.8z"/>
	<path id="Layer" class="s5" d="m171.2 229.5q-0.1-0.2 0-0.5 0-0.3 0-0.6 0-0.2 0.1-0.5 0-0.3 0.1-0.6c0.2-1.2 0.7-2.3 1.3-3.3 0.7-1 1.6-1.8 2.6-2.5 1-0.7 2.1-1.1 3.3-1.4 1.2-0.2 2.4-0.2 3.6 0l14.8 3.1q0.8 0.2 1.7 0.6 0.8 0.3 1.5 0.8 0.7 0.5 1.3 1.1 0.7 0.7 1.1 1.4 0.5 0.8 0.9 1.6 0.3 0.9 0.5 1.8 0.1 0.9 0.1 1.8 0 0.9-0.2 1.8-0.1 0.7-0.4 1.4-0.2 0.6-0.6 1.3-0.3 0.6-0.8 1.1-0.4 0.6-0.9 1.1 4.2 2 7.8 4.8 3.6 2.9 6.4 6.5 2.9 3.7 4.9 7.9 1.9 4.1 2.9 8.6-0.4 0.2-0.8 0.3-2 0.6-4 1.2-2 0.5-4.1 0.9-2 0.5-4 0.9-2.1 0.4-4.1 0.7-0.3 0-0.6 0-0.1 0.1-0.2 0.1-0.3 0-0.6 0 0 0.1-0.1 0.1-0.4 0-0.8 0.1l-0.7 0.1q-0.4 0-0.7 0 0 0 0 0 0 0 0 0-0.1 0-0.1 0 0 0 0 0-0.1 0-0.1 0.1-0.1 0-0.1 0-0.3 0-0.5 0-1 0.1-2 0.2-4.5 0.4-9.1 0.4-4.3 0-8.5-0.3-0.3-0.1-0.7-0.1-0.4 0-0.8-0.1 0 0 0 0 0 0-0.1 0 0 0 0 0 0 0 0 0-0.4 0-0.9-0.1-0.6 0-1.2-0.1-0.5-0.1-1.1-0.1 0 0 0 0 0 0 0 0 0 0 0 0 0 0 0 0-0.6-0.1-1.2-0.2 0 0 0 0-0.1 0-0.1 0-0.5-0.1-1-0.1h-0.1q-4.3-0.7-8.6-1.7-2.4-0.5-4.8-1.2-0.3-0.1-0.6-0.1-1.4-0.4-2.8-0.9-1.4-0.4-2.8-0.9-1.4-0.5-2.7-1-1.4-0.5-2.8-1.1-1.5-0.6-3-1.3-0.4-0.1-0.8-0.3-0.3-0.2-0.7-0.4-0.3-0.1-0.6-0.3-0.1 0-0.3-0.1-0.3-0.1-0.7-0.3-0.5-0.3-1-0.5-1.3-0.6-2.6-1.3c6.5-10.5 16.8-20.4 31.1-29.9z"/>
	<path id="Layer" class="s11" d="m198.8 210.1c-20 0-36.1-16.1-36.1-36.1 0-19.9 16.1-36 36.1-36 19.9 0 36 16.1 36 36 0 20-16.1 36.1-36 36.1z"/>
	<path id="Layer" class="s7" d="m193.6 208.2c-9 2.4-19-0.8-26-7-7.1-6.1-11.5-14.8-14-23.8-1.9-6.6-2.7-13.9 0.2-20.1 2.9-6.2 10.8-10.4 16.9-7.3-3.7-4.4-1.9-11.6 2.5-15.3 4.4-3.8 10.5-4.9 16.2-5.5 8.3-0.8 16.9-0.9 24.9 1.8 7.9 2.7 15.1 8.6 17.6 16.6q1.9 0.9 4 1.1 2.1 0.2 4.1-0.2 2.1-0.5 3.9-1.6 1.7-1.1 3.1-2.7 0.3 1.9 0.1 3.7-0.3 1.9-1.2 3.6-0.8 1.7-2.2 3-1.3 1.3-3 2.1l12.1-3.9c2.1 4.4-1.6 9.9-6.2 11.3-4.7 1.4-9.8-0.1-14.2-2.2-4.5-2-8.8-4.6-13.6-5.4-4.8-0.8-10.5 0.7-12.7 5.1-1.2 2.3-1.3 4.9-1.9 7.4-0.7 2.5-2.4 5-5 5.2-1.6 0.2-3.2-0.7-4.8-0.5q-0.7 0.1-1.4 0.5-0.7 0.3-1.2 0.9-0.6 0.5-0.9 1.2-0.4 0.6-0.6 1.3-0.1 0.8-0.2 1.5-0.1 0.8-0.1 1.5 0 0.8 0.1 1.5 0.1 0.8 0.2 1.5l3.1 23.6z"/>
</svg>