<svg version="1.2" xmlns="http://www.w3.org/2000/svg" viewBox="0 0 1372 838" width="1372" height="838"><style>.a{fill:#ced3e6}.b{fill:#fff}.c{fill:#39393b}.d{fill:#df615c}.e{fill:#21b573}.f{fill:#d2dcec}.g{fill:#ea9b7a}.h{fill:#d46a43}.i{fill:#217c58}.j{fill:#585859}.k{fill:#a92f4b}.l{fill:#faaf3a}.m{fill:#c77e2e}.n{fill:#084fc7}.o{fill:#0875f7}.p{fill:#ebb12b}.q{fill:#243434}.r{fill:#564c54}.s{fill:#dd615c}</style><g style="opacity:.8"><g style="opacity:.5"><path class="a" d="m1114.4 181.2c184.9 70.4 117.4 459.2-229.3 493.2-387.4 37.9-686.2-200.6-728.3-282.1-42.1-81.5-41.4-231.5 120.4-283.3 117.2-37.6 240.2 37.9 298.9 82.2 39.4 29.7 84.9 49.3 133 56.4 190.3 28.1 245-127.4 405.3-66.4z"/></g><g style="opacity:.5"><ellipse class="a" cx="1208.2" cy="190" rx="15" ry="16.2"/></g><path class="a" d="m226.8 83.5c4.7-0.9 9.3 1.7 11 6.1 2.7 7.5-4.5 15.9-14.3 12.1q0 0 0 0c-8.4-6.2-4.7-16.7 3.3-18.2z"/><circle class="a" cx="1167.2" cy="45.4" r="19.6"/><g style="opacity:.8"><path class="a" d="m286.2 68c3 10.5-3.2 21.5-13.7 24.4-10.5 3-21.4-3.2-24.4-13.7-2.9-10.5 3.2-21.4 13.7-24.4 10.5-2.9 21.5 3.2 24.4 13.7z"/></g><path class="a" d="m1068.8 657.3c4.4-1.7 9.4 0 11.9 4 4.1 6.8-1.5 16.5-11.8 14.6q0 0 0 0c-9.4-4.6-7.8-15.6-0.1-18.6z"/><path class="a" d="m1124.3 631.1c4.8 9.8 0.8 21.7-9 26.5-9.8 4.9-21.6 0.9-26.5-8.9-4.8-9.8-0.8-21.7 9-26.5 9.7-4.9 21.6-0.9 26.5 8.9z"/><circle class="a" cx="1130.3" cy="15.5" r="12"/></g><g style="opacity:.8"><path class="a" d="m481.7 638.9c-456.7-14.7-414.6-380.2-259.2-445.3 173.1-72.4 283.5 38.6 428.2 16.6 144.6-22 156.8-216.9 316.6-209.5q3 0.1 6 0.3c111.5 7.2 201.1 125.1 201.1 232.7 0 321-327.3 416.9-692.7 405.2z"/></g><ellipse class="a" cx="733.3" cy="751.8" rx="367.5" ry="19"/><path class="b" d="m972.3 751.7h-487.6v-21.1c0-17.6 14.2-31.9 31.8-31.9h424c17.6 0 31.8 14.3 31.8 31.9z"/><path class="b" d="m815.5 698.7h-176.8v-113.4h176.8z"/><path class="a" d="m638.8 585.5l176.7-0.2v20.7l-176.8 14.1z"/><path class="b" d="m1105.4 116.6v445.1c0 13-10.6 23.6-23.7 23.6h-724.7c-13.1 0-23.6-10.6-23.6-23.6v-445.1c0-13 10.5-23.6 23.6-23.6h724.7q0.6 0 1.1 0 0.4 0 0.8 0.1 0.3 0 0.5 0 0.5 0.1 0.9 0.1 0.3 0.1 0.6 0.1 0.2 0 0.3 0.1 0.3 0 0.6 0.1c10.8 2.2 18.9 11.7 18.9 23.1z"/><circle class="a" cx="727" cy="553.3" r="16.3"/><path fill-rule="evenodd" class="c" d="m1105.4 116.6v412.2h-772v-412.2c0-13 10.5-23.6 23.6-23.6h724.7q0.6 0 1.1 0 0.4 0 0.8 0.1 0.3 0 0.5 0 0.5 0.1 0.9 0.1 0.3 0.1 0.6 0.1 0.2 0 0.3 0.1 0.3 0 0.6 0.1c10.8 2.2 18.9 11.7 18.9 23.1zm-30.7 13.4c0-3.5-2.8-6.4-6.4-6.4h-697.9c-3.5 0-6.4 2.9-6.4 6.4v357.6c0 3.5 2.9 6.4 6.4 6.4h697.9c3.6 0 6.4-2.9 6.4-6.4z"/><rect class="a" x="364" y="123.6" width="710.8" height="370.4" rx="6.4"></rect><path class="b" d="m1074.7 130v33.8h-710.7v-33.8c0-3.5 2.9-6.4 6.4-6.4h697.9c3.6 0 6.4 2.9 6.4 6.4z"/><circle class="d" cx="1014.2" cy="143.2" r="5.5"/><circle class="e" cx="1031.9" cy="143.2" r="5.5"/><rect class="f" x="426" y="137.4" width="565.4" height="11.5" rx="4.9"></rect><path  d="m389.6 143.2v5.3c0 0.8-0.8 1.2-1.4 0.9l-4.7-2.7-4.6-2.7c-0.6-0.4-0.6-1.3 0-1.7l4.6-2.7 4.7-2.6c0.6-0.4 1.4 0.1 1.4 0.8z"/><path  d="m397.8 137.8c0-0.7 0.8-1.2 1.4-0.8l4.7 2.6 4.6 2.7c0.7 0.4 0.7 1.3 0 1.7l-4.6 2.7-4.7 2.7c-0.6 0.3-1.4-0.1-1.4-0.9v-5.3z"/><path class="c" d="m1044.8 147.8l-0.4-0.4c-0.5-0.5-0.5-1.3 0-1.8l7.5-7.4c0.5-0.5 1.3-0.5 1.8 0l0.3 0.3c0.6 0.5 0.6 1.3 0 1.8l-7.4 7.5c-0.5 0.5-1.3 0.5-1.8 0z"/><path class="c" d="m1051.9 147.8l-7.5-7.5c-0.5-0.5-0.5-1.3 0-1.8l0.4-0.3c0.5-0.5 1.3-0.5 1.8 0l7.4 7.4c0.6 0.5 0.6 1.3 0 1.8l-0.3 0.4c-0.5 0.5-1.3 0.5-1.8 0z"/><rect class="b" x="444.3" y="171.9" width="548.2" height="307.7" rx="12.8"></rect><rect class="a" x="462.6" y="320.5" width="139" height="78" rx="6"></rect><rect class="a" x="832.6" y="190.2" width="139" height="78" rx="6"></rect><rect class="a" x="462.4" y="256.5" width="139.2" height="6.7" rx="3.2"></rect><rect class="a" x="462.4" y="228.3" width="139.2" height="6.7" rx="3.2"></rect><rect class="a" x="462.4" y="284.7" width="139.2" height="6.7" rx="3.2"></rect><rect class="a" x="832.6" y="322.7" width="139" height="6.7" rx="3.2"></rect><rect class="a" x="832.6" y="294.4" width="139" height="6.7" rx="3.2"></rect><rect class="a" x="832.6" y="350.9" width="139" height="6.7" rx="3.2"></rect><path class="c" d="m444.3 431.8h548.2v45c0 1.6-1.3 2.8-2.9 2.8h-542.4c-1.6 0-2.9-1.2-2.9-2.8z"/><path class="b" d="m949.6 449.6v-5.9c0-1 0.8-1.8 1.8-1.8h6.9v3.6h-5.1v4.1z"/><path class="b" d="m953.2 461.1h5.1v3.6h-6.9c-1 0-1.8-0.8-1.8-1.8v-6.1h3.6z"/><path class="b" d="m968.8 445.5h-4.8v-3.6h6.6c1 0 1.8 0.8 1.8 1.8v5.9h-3.6z"/><path class="b" d="m972.4 456.8v6.1c0 1-0.8 1.8-1.8 1.8h-6.6v-3.6h4.8v-4.3z"/><path class="a" d="m992.5 431.8h-548.2v-8.9h548.2z"/><path class="c" d="m484.1 181.3h6.2v13.6h8.3v4.8h-14.5z"/><path class="c" d="m500.3 181.3h6.2v18.4h-6.2z"/><path class="c" d="m529.1 181.3l-7.8 18.4h-6.1l-7.7-18.4h6.6l4.4 10.7 4.5-10.7z"/><path class="c" d="m544.9 195v4.7h-15.2v-18.4h14.9v4.7h-8.8v2.1h7.7v4.5h-7.7v2.4z"/><circle class="d" cx="466.4" cy="190.3" r="7.5"/><circle class="d" cx="914.4" cy="392.4" r="6.6"/><path class="d" d="m926.8 409.2h-24.7q2.8-7.9 12.1-7.9 0.1 0 0.2 0 0.1 0 0.2 0 9.4 0 12.2 7.9z"/><path class="c" d="m949.7 388.4v4.1l-6.7 15.9h-7.4l6.4-14.8h-3.9v2.9h-5.6v-8.1z"/><path class="c" d="m967.3 403.2v5.2h-16.1v-4.1l7.2-6.7c1.4-1.3 1.6-2.1 1.6-2.8 0-0.9-0.6-1.5-1.9-1.5-1.2 0-2.4 0.6-3 1.8l-5.1-2.5c1.5-2.8 4.4-4.7 8.7-4.7 4.7 0 8.1 2.5 8.1 6.3 0 2-0.5 3.8-3.4 6.4l-2.9 2.6z"/><path class="g" d="m868.5 218.8c3.9-4.3 11.4-1.2 13.9 0q0.5 0.2 0.8 0.4 0.3-0.5 0.9-1.3c3.9-5.3 18.4-24.6 22.7-23.8 5 1-10.7 24.9-11 25.4 0.5-0.4 6.6-7.7 10.7-2.4q2.8 3.5-3.3 8.8 6.4-0.2 7.9 2.6 1.6 2.9-2.5 7.7 9.5 1.7 7.7 6.5c-1.4 3.3-5.8 4.5-8.3 4.9q-1.1 0.1-1.8 0.1-0.3 0.7-1 1.6c-2.6 4.1-10.4 14.7-20.4 13.7q-12.4-1.2-17.3-17.1-3.7-21.9 1-27.1z"/><path class="h" d="m889.6 237c-0.8-0.9-0.8-1.7-0.7-2.3q0.1-0.7 0.6-1.3c0.4-0.6 1-1.2 1.8-1.7 2-1.5 4.6-2.6 5.3-2.8 0.5-0.2 1.1 0 1.3 0.5 0.1 0.3 0.1 0.6-0.1 0.9q-0.2 0.2-0.5 0.3c-1.6 0.7-3.9 1.8-5.3 2.9-0.7 0.6-1.1 1.1-1.2 1.6-0.1 0.1-0.1 0.2 0.2 0.5 2 2.1 8.6 1.6 10.9 1.2 0.5 0 0.9 0.2 1.1 0.7 0.1 0.5-0.1 1-0.6 1.2-2.9 1.1-5.9 4-6.3 5.9-0.2 0.6 0 0.9 0.2 1.1 1.4 1.4 7.6 1.8 11.2 1.7q0.3 0 0.5 0.2-1.1 0.1-1.8 0.1-0.3 0.7-1 1.6c-2.2 0-5.6-0.2-8-1-0.9-0.3-1.7-0.7-2.2-1.2-0.8-0.8-1-1.8-0.8-2.9 0.4-1.7 1.9-3.6 3.8-5.1-2.9 0.1-6.6-0.3-8.4-2.1z"/><path class="h" d="m888.7 225.1c0.3 0.3 0.4 0.7 0.2 1.1-0.5 1.2-0.7 2.2-0.6 3 0.1 0.6 0.4 0.9 0.6 1 0.4 0.2 1 0.2 1.7 0.2 1.7-0.1 4.3-0.7 6.5-1.4q-0.1 0.2-0.4 0.3c-1.7 0.7-4 1.8-5.4 2.9q-0.3 0.1-0.6 0.1-1.1 0-1.9-0.2-0.4 0-0.7-0.2c-0.9-0.4-1.5-1.3-1.7-2.4-0.2-1.2 0.1-2.6 0.8-4.1 0.2-0.6 1-0.7 1.5-0.3q0 0 0 0z"/><path class="h" d="m871.3 227c0.3-0.4 0.9-0.5 1.3-0.3 1.9 1.3 7.7 4.5 11 3.6q1.3-0.3 1.9-1.4c2-3.7-1.2-8.1-3.1-10.1q0.5 0.2 0.8 0.4 0.3-0.5 0.9-1.3c2.2 2.5 5.6 7.4 3.1 11.9q-1 1.9-3.2 2.4c-1.7 0.4-3.7 0.1-5.6-0.5-3.5-1.2-6.7-3.2-6.9-3.4-0.4-0.2-0.5-0.8-0.2-1.3z"/><path class="h" d="m880.9 253.8c-2.2-2.5-3.2-5.4-2.9-8.4 0.9-7.1 8.9-12.8 9.2-13 0.4-0.4 1-0.2 1.3 0.2 0.3 0.4 0.2 1-0.2 1.3-0.1 0.1-7.6 5.4-8.4 11.7-0.3 2.5 0.6 4.8 2.5 7 0.3 0.3 0.3 1-0.1 1.3-0.3 0.2-0.6 0.3-0.9 0.2q-0.3-0.1-0.5-0.3z"/><path class="e" d="m761.8 175.4l9.7 24.6q2.2 6.2 4.4 12.3 2.3 6.2 4.5 12.3c1.6 4 3.1 8.1 4.6 12.1 1.6 3.9 3.1 7.9 4.8 11.7 1.5 3.8 3.2 7.6 4.8 10.9 0.8 1.6 1.6 3.2 2.3 4.4l0.4 0.8 0.2 0.3c0.1 0.1 0.1 0.1 0.1 0.2q0.1 0.2 0.1 0.3c0 0.2 0 0.3 0 0.4 0.1 0.2 0.3 0.4 0.8 0.6 1.1 0.5 3.2 0.8 6 0.7 2.8-0.2 6.1-0.7 9.5-1.6 3.4-0.9 7-2 10.7-3.4 7.2-2.7 14.7-6.2 22.1-10.1 7.3-3.9 12.8-7.1 19.9-11.6 2.3 10.7 9.9 19.3 20.8 23.4-7 6.3-14.3 12.2-22 17.8-7.8 5.6-15.9 10.9-24.8 15.6-4.5 2.3-9.2 4.5-14.2 6.4-5.1 1.9-10.5 3.6-16.6 4.6-3 0.5-6.2 0.9-9.7 0.9-3.4 0.1-7.1-0.1-10.9-0.9-3.8-0.7-7.9-2-11.7-3.9-3.9-1.9-7.6-4.5-10.8-7.4q-2.3-2.3-4.3-4.7l-1-1.2-0.7-1c-0.3-0.4-0.5-0.7-0.8-1-0.2-0.4-0.4-0.7-0.6-1-1.8-2.6-3.2-4.9-4.5-7.2-2.6-4.5-4.8-8.8-7-13.1-2.1-4.2-4.1-8.5-6-12.7q-2.9-6.4-5.6-12.7-2.7-6.3-5.2-12.7-2.6-6.3-5-12.7-2.4-6.3-4.8-12.7l-2.3-6.5-1.1-3.2c-0.3-1.1-0.7-2.1-1.1-3.3z"/><path class="i" d="m787.5 277.6c-0.5-0.4-0.6-1.2-0.2-1.7 0.2-0.3 4.9-6.6 9.4-9.7 0.5-0.4 1.3-0.3 1.7 0.3 0.4 0.5 0.2 1.3-0.3 1.7-4.1 2.9-8.8 9.1-8.8 9.2-0.3 0.3-0.7 0.5-1 0.5q-0.4 0-0.8-0.3z"/><path class="i" d="m795.4 278.1c0-0.2-1.2-5.8 0-10.4 0.2-0.7 0.9-1 1.6-0.8 0.6 0.1 1 0.8 0.8 1.5-1.1 3.9 0 9.2 0 9.2 0.2 0.7-0.2 1.3-0.9 1.5q-0.1 0-0.3 0c-0.5 0-1-0.4-1.2-1z"/><path class="c" d="m785.2 410.4c-22.7 13.1-77.8 19.9-113.6 5.6-13.2-5.2-15.5-8.4-14.5-32.1q0-1.3 0.1-2.6 0.1-2.8 0.3-5.6 0.2-1.3 0.3-2.6c0.2-3.3 0.5-6.5 0.9-9.7q0.1-1.2 0.3-2.5c0.8-6.9 2.1-13.1 3.3-17.9q0.4-1.4 0.7-2.5 1.2-4.7 2.3-7.6c5.8 1 11.7 1.5 17.7 1.8q1.3 0 2.6 0c31 0.9 62.6-6.2 77.2-10q1.3-0.3 2.5-0.6 3.8-1 5.9-1.7 1.4 2.3 3.3 6.2 0.5 1.1 1 2.3c3 6.4 6.8 15.7 9 25.4q0 0.1 0.1 0.3 0.2 1.3 0.5 2.5 0.1 0.3 0.1 0.5c1.5 7.1 2.9 14.4 3.8 21.5q0.2 1.3 0.3 2.7c1.8 15.4 2.1 23.1-4.1 26.6z"/><path class="j" d="m785.2 359.6q-0.1 0-0.2 0-6.9-3.8-12.2-11.4-0.7-1.1-1.3-2.2h-0.1q-5.3-8.6-8.6-21.3 1.3-0.3 2.5-0.6 3.2 12.5 8.4 20.8 0.7 1.1 1.5 2.1 4.1 5.9 9.3 9.3 0 0.1 0.1 0.3 0.2 1.3 0.5 2.5 0.1 0.3 0.1 0.5z"/><path class="j" d="m685.6 334.7q-1.6 13.4-6 22.6-0.5 1.3-1.2 2.4-3.6 6.5-8.8 10.6c-4.2 3.3-8.6 4.8-12.1 5.4q0.2-1.3 0.3-2.6c3-0.7 6.7-2 10.3-4.9q4.5-3.5 7.7-9 0.6-1.1 1.2-2.3 4.5-9 6-22.2 1.3 0 2.6 0z"/><path class="j" d="m775.5 330.9q-2.6 1.2-5.6 2.4-1.2 0.5-2.4 0.9c-11.7 4.6-27.1 9.3-43.6 11q-1 0.1-1.9 0.2c-15.1 1.4-30.4 0.8-42.9-0.4q-1.4-0.1-2.7-0.3c-5.3-0.5-10.1-1.2-14.1-1.7q0.4-1.4 0.7-2.5c4 0.6 9 1.2 14.4 1.8q1.3 0.1 2.6 0.2c12.9 1.2 28.5 1.8 43.6 0.2 16.2-1.7 31.2-6.2 42.7-10.7q1.2-0.5 2.3-0.9 3.1-1.3 5.9-2.5 0.5 1.1 1 2.3z"/><path class="c" d="m750 518.5c-10.8-29.9-20.2-62.3-22-109l61-28.4c11 38.6 18.6 86.1 21.9 137.4z"/><path class="j" d="m757.2 518.5c-17.5-50.4-20.6-91.6-20.7-92.1 0-0.7 0.5-1.3 1.2-1.4 0.7 0 1.3 0.5 1.4 1.2 0 0.5 3.1 41.8 20.8 92.3z"/><path class="c" d="m653 518.5q-7.8-93.6 4.1-134.6l67.4 36.1c-0.6 17.3-4.9 62.1-8.7 98.5z"/><path class="j" d="m706.7 518.5l11.4-93.7c0.1-0.7 0.8-1.3 1.6-1.2 0.8 0.1 1.4 0.8 1.3 1.6l-11.3 93.3z"/><path class="j" d="m728.7 396.7q-0.2-1.3-0.3-2.6c-1.6-15.8-3-31.3-3.8-42.2q-0.1-1.4-0.2-2.6c-0.2-2.5-0.4-4.6-0.5-6.5q1.2 0.1 2.5 0 0.2 2.8 0.5 6.4 0.1 1.3 0.2 2.6c0.9 11.1 2.2 26.7 3.9 42.6q0.1 1.3 0.2 2.5c0.6 4.9 1.1 9.8 1.7 14.5 0.1 0.7-0.4 1.3-1.1 1.4q0 0 0 0c-0.7 0.1-1.4-0.4-1.5-1.1-0.5-4.9-1.1-9.9-1.6-15z"/><path class="j" d="m723.1 394.2c0.2-0.7 1-1.1 1.6-0.9 0.8 0.2 2.2 0.6 3.7 0.8 0.8 0.1 1.7 0.2 2.6 0.3 2 0.1 4-0.1 5.3-1 0.7-0.6 1.1-1.3 1.1-2.5 0.1-4.8-1.3-25.1-2.4-39.4q-0.1-1.4-0.2-2.6c-0.2-2.4-0.4-4.5-0.5-6.3q1.3 0 2.5-0.1c0.2 1.8 0.3 3.9 0.5 6.2q0.1 1.3 0.2 2.6c1.1 14.4 2.5 34.7 2.5 39.7-0.1 1.9-0.8 3.4-2.2 4.5-1.2 0.8-2.6 1.2-4.1 1.4q-1.2 0.1-2.5 0-1.3 0-2.5-0.2c-2.4-0.3-4.3-0.8-4.7-1-0.7-0.2-1.1-0.9-0.9-1.5z"/><path class="c" d="m654 111.8c-3.8-21.2-0.8-56.3 40.1-58.9q0.6 0 1.2-0.1c26.8-1.3 48.5 21.6 46.1 48.3-1.3 14-2.4 31-1 39.6 1.3 8.3 1.1 48.6 4.1 52.8l-97.3 2.6c12.7-12.4 10.3-65 6.8-84.3z"/><path class="b" d="m762.8 322.4l8.7 23.6q-11.8 3.7-35.1-4.1c-17.5 9-40.7 11.8-60.2 13.4l-7.9-32.9z"/><path class="e" d="m783.5 346.7c-22.6-0.1-36.2-3-48.5-13.1q-23.1 24-80.3 24.9 5.8-18.4 7.6-51c-0.4-3.4-0.7-7-1-10.5-0.4-3.6-0.9-7.2-1.8-10.8-5.6-16.2-12.2-27.9-18.1-44.7q-0.5-1.6-1.1-3.3-0.4-1-0.8-2.1c-1.9-5.2-4-10.5-6.2-15.5-9.4-22.1-11-46.9 11.8-54.5q2.5-0.8 4.8-1.5c10.8-3.4 19.8-5.7 22.3-6.3q0.4-0.1 0.6-0.2l47.8 4 4.5 0.4c6.7 0.7 13.8 0.5 18.2 1.5 4 0.9 6.3 0.7 10.3 1.9 9.4 2.7 9.2 15.4 12.1 31.1q0.1 0.4 0.2 0.8 0 0.2 0 0.3 0.8 4 1.8 7.9 1.2 4.4 2.6 8.6c5.5 17.3 12.1 25.2 11 36.1-1.1 9.8-11.1 23.3-13.8 26.1q-0.6 0.7-0.9 1 0 0.1 0 0.2 0 0.6 0.1 1.2 0.3 2.5 0.9 5.9c0.8 8.3 2 15.8 3.3 22.5q1.1 5.4 2.3 10.1 4.8 19 10.3 29z"/><path class="i" d="m773.2 317.7q-6.5 3.5-11.7 5.7l-4.8-9c4.6-1.7 9.6-4.2 14.2-6.8 1.1 2.8 2 5.7 2.3 10.1z"/><path class="i" d="m669 309.2q21.8 9.2 37.8 10.8l-2.4 10q-26.4-4.4-36.9-11.9z"/><path class="i" d="m769.6 275c-0.5-0.4-0.5-1.2 0-1.7 0.1-0.1 13.3-14.2 9-26.2-1.3-3.7-2.9-7.5-4.5-11.4-5.1-12.3-10.8-26.2-12.3-44.4 0-0.7 0.5-1.3 1.2-1.3 0.6-0.1 1.2 0.4 1.3 1.1 1.4 17.8 7.1 31.5 12.1 43.6 1.6 4 3.2 7.8 4.5 11.5 4.8 13.5-9 28.2-9.6 28.8-0.2 0.2-0.5 0.4-0.8 0.4-0.4 0-0.7-0.1-0.9-0.4z"/><circle class="i" cx="727.7" cy="222.9" r="2.7"/><circle class="i" cx="731.7" cy="246.6" r="2.7"/><circle class="i" cx="734.1" cy="270.8" r="2.7"/><circle class="i" cx="735.1" cy="295.6" r="2.7"/><circle class="i" cx="735" cy="321.4" r="2.7"/><path class="i" d="m715.1 162.1q10.4-1 17.6 0.9l-0.8 27.3-6.1 1.3 5.2 5.1-6.3 18.3q-8.5-30.4-9.6-52.9z"/><path class="i" d="m677.5 158.5q3.5 15 47.2 56.5l-37.7-10.6 5.9-12.8-16.7 1.3-22.3-29.6 18.9-5.2z"/><path class="b" d="m715.1 163.8q7.6 26.5 9.6 51.2-37.7-31.4-48.5-54.6 16.7 11.1 38.9 3.4z"/><path class="i" d="m730 234.4c-12.4 0-37.8-17.7-38.8-18.5-0.5-0.3-0.6-0.9-0.3-1.4 0.4-0.5 1-0.6 1.5-0.3 0.2 0.2 25.8 18.2 37.6 18.2 11.2 0 13.7-12.3 13.7-12.4 0.1-0.6 0.7-0.9 1.2-0.8 0.6 0.1 0.9 0.6 0.8 1.2 0 0.1-2.8 14-15.7 14z"/><path class="g" d="m715.1 162.1l0.5 6.4c1 12-7.6 15.4-20 9-9.8-5-18.1-12.5-19.4-17.1z"/><path class="i" d="m697.7 282.9c0.8-0.4 18.8-10.6 41.5-6.2 11.6 2.3 21.2 1.9 28.3 0.1q-0.6 0.7-0.9 1 0 0.1 0 0.2 0 0.6 0.1 1.2c-7.3 1.7-16.8 1.9-27.9-0.3-21.9-4.3-39.8 5.8-40 5.9q-0.2 0.2-0.5 0.2c-0.4 0-0.8-0.2-1-0.6-0.3-0.5-0.1-1.2 0.4-1.5z"/><path class="c" d="m735.6 82.1q5.5 21.6 1.9 25.4-3.5 3.7-8.7-4.4 2.6-20.2 6.8-21z"/><path class="h" d="m729.5 110.7q5.7-6.7 8.9 0c3.2 6.7 0.7 20.3-7.9 18.1z"/><path class="b" d="m724.5 127.4c-3.2 1.5-5.4 4.7-5.4 8.4 0 5.1 4.2 9.3 9.3 9.3 5.1 0 9.3-4.2 9.3-9.3 0-3.6-2.2-6.8-5.3-8.3-1-0.5-2.2-0.9-3.4-0.9-0.3-0.6-0.5-1.2-0.7-1.7q0.1 0 0.1 0c1.5 0 3 0.3 4.3 0.8 3.9 1.7 6.7 5.6 6.7 10.1 0 6.1-4.9 11-11 11-6 0-11-4.9-11-11 0-4 2.3-7.6 5.6-9.5z"/><path class="g" d="m715.1 145.2v18.6q-9.8 16-38.9-3.4c5.5-6.2 5.6-18.1 3.4-25.2q2.1 1.4 5.7 3 1.1 0.5 2.3 1c7.3 3 18.3 6.7 27.5 6z"/><path class="c" d="m715.1 145.2v8.7c-7.9-1.8-21.8-6.1-29.8-15.7q1.1 0.5 2.3 1c7.3 3 18.3 6.7 27.5 6z"/><path class="g" d="m731 139.1c-15.6 16.2-50.2-3.1-51.3-3.7q0 0 0 0-0.5-2.2-0.9-4.3c-2.2-12-2.3-23.1-1.1-33.7-0.6-11.2 6-21.6 16.5-25.4 10.9-4 20.7 0.8 26.5 2.6 8.9 2.8 14.4 14.2 14.5 30.5 0 20-0.4 30-4.2 34z"/><path class="c" d="m733.3 86.5q-5.4 0.7-11.1 1.2l-2-10-0.7 10.2c-7 0.4-14.3 0.6-21.7 0.6l-1-10.4-2 10.4q-8.3 0-16.8-0.3c-4.5-20.8 18.2-30 37.2-25.6q19.1 4.3 18.1 23.9z"/><path class="c" d="m692.5 82.1q-7 9.3-3.2 18c3.9 8.7 1.2 17.2-0.7 23.6q-3.9-14-13.3-16.6c-9.4-2.6-4.5-28.3 17.2-25z"/><path class="h" d="m714.3 129c-0.3-0.2-0.4-0.7-0.2-0.9 0.2-0.3 0.7-0.4 1-0.2 2.6 2 5.9 0.9 5.9 0.9 0.3-0.1 0.7 0.1 0.8 0.4 0.2 0.4 0 0.7-0.4 0.9-0.1 0-1.7 0.6-3.8 0.2-1.1-0.1-2.2-0.5-3.3-1.3z"/><path class="b" d="m718.4 126.4q-7-0.7-9.9-8.1 8.2 5.4 19 1.6-2.1 7.1-9.1 6.5z"/><path class="c" d="m710.2 90.3q3.3 0.3 2.1 3.3c-1.1 2.9-7.6-0.4-12.2 5.1q-2-7.1 10.1-8.4z"/><path class="c" d="m735.1 98.7c-4.7-5.5-11.2-2.2-12.3-5.1q-1.1-3 2.1-3.3 12.1 1.3 10.2 8.4z"/><g style="opacity:.8"><ellipse class="h" cx="701.5" cy="112.2" rx="6.9" ry="2.7"/></g><path class="h" d="m736.8 114.9q-0.8 0.1-1.7 0.1c-3.8 0-6.9-1.3-6.9-2.8 0-1.5 3.1-2.7 6.9-2.7q0.8 0 1.5 0.1z"/><ellipse class="c" cx="707.2" cy="105.1" rx="2.1" ry="3.8"/><ellipse class="c" cx="727.7" cy="105.1" rx="2.1" ry="3.8"/><path class="c" d="m717.8 112c-0.4-0.2-0.6-0.7-0.4-1.1 0.3-0.4 0.8-0.6 1.2-0.4 1.3 0.7 2.6 0.8 3.5 0.8l-2.8-8.1c-0.2-0.4 0.1-0.9 0.5-1.1 0.5-0.1 0.9 0.1 1.1 0.6l3.2 9q0.1 0.4-0.1 0.7-0.2 0.3-0.5 0.4c-0.1 0-0.8 0.2-1.8 0.2-1 0-2.5-0.2-3.9-1z"/><path class="c" d="m686.4 127c-0.1 0.2-2.8 6.5-6.7 8.4q0 0 0 0 0 0 0 0-0.5-2.2-0.9-4.3c0.1 0 4.1-0.7 7.6-4.1z"/><path class="g" d="m682.8 129.6c-10.1 7-19.5-12.2-14.5-19.4q6.1-8.7 14.3 2.4z"/><path class="b" d="m674.1 129.7c-3.2 1.5-5.4 4.8-5.4 8.5 0 5.1 4.1 9.2 9.3 9.2 5.1 0 9.2-4.1 9.2-9.2 0-3.7-2.1-6.9-5.2-8.4-1.1-0.5-2.3-0.8-3.5-0.9-0.2-0.6-0.4-1.1-0.7-1.7q0.1 0 0.2 0c1.5 0 2.9 0.3 4.2 0.9 4 1.6 6.7 5.5 6.7 10.1 0 6-4.9 11-10.9 11-6.1 0-11-5-11-11 0-4.1 2.3-7.7 5.6-9.6q0.7 0.6 1.5 1.1z"/><path class="c" d="m680.7 125.7c-1-8.5-8-11.4-8.3-11.5-0.5-0.2-0.7-0.7-0.5-1.1 0.2-0.5 0.7-0.7 1.1-0.5 0.4 0.1 8.3 3.4 9.4 12.9 0 0.4-0.3 0.9-0.8 0.9q0 0-0.1 0c-0.4 0-0.8-0.3-0.8-0.7z"/><path class="c" d="m672.9 120.9c-0.3-0.3-0.3-0.9 0.1-1.2 0.4-0.2 3.4-2.6 6-2 0.4 0.1 0.7 0.6 0.6 1-0.1 0.5-0.6 0.8-1.1 0.7-1.4-0.4-3.7 1.1-4.4 1.7q-0.3 0.2-0.6 0.2c-0.2 0-0.4-0.2-0.6-0.4z"/><path class="i" d="m617 288.8q2.7 5.8-0.5 18.7-3.1 12.8-8.4 20.8-13.1-19.9 8.9-39.5z"/><path class="g" d="m558.9 275.5v-1q0-0.9 0.1-1.9 0.1-0.9 0.2-1.9c0.1-0.6 0.2-1.2 0.3-1.8q0.2-0.9 0.4-1.8 0.3-0.9 0.6-1.7 0.1-0.5 0.3-0.9l0.3-0.8q0.3-0.8 0.6-1.5 0.4-0.8 0.7-1.5l0.4-0.7q0.2-0.4 0.4-0.7 0.4-0.6 0.7-1.3l0.4-0.6 0.1-0.2 0.1-0.1 0.1-0.1 0.5-0.8 1.9-2.8c0.6-1 1.3-2 1.9-2.9 1.3-1.8 2.6-3.7 3.8-5.5l3.9-5.4q3.9-5.3 7.9-10.5l1.1-1.4 0.9-1.2 2-2.5q1.9-2.6 4-5.2l3.5-4.4 0.5-0.6 4-5.1q4.1-5 8.2-10 2.1-2.5 4.2-5 2.1-2.5 4.2-4.9l4.2-4.9 4.3-5c6.9-7.9 18.9-8.8 27-2 8.1 6.9 9.1 19.1 2.2 27.2l-0.1 0.1-16.3 19.3q-4.1 4.8-8.2 9.6l-4.1 4.9-2.5 3.1-1.5 1.7-1.2 1.5-2.8 3.4-2 2.4-2 2.4c-2.7 3.2-5.2 6.5-7.8 9.7l-3.8 4.9c-1.3 1.6-2.5 3.2-3.7 4.8-0.7 0.8-1.2 1.6-1.8 2.4l-1.1 1.5-0.6 0.9q0.2 0.3 0.5 0.6c0.7 0.8 1.5 1.6 2.5 2.3q0.9 0.8 1.9 1.5 1 0.8 2.1 1.5c1.4 1 3 1.9 4.6 2.8 3.2 1.8 6.7 3.5 10.3 5.2q5.3 2.4 11 4.5 5.6 2.1 11.4 4 5.7 1.9 11.5 3.4 0.1 0.1 0.3 0.1 3.9 1.1 7.9 2l1.7 3.8c-0.7 4.2-1.4 8.4-2.1 12.6-0.6 3.6 2.4 6.5 1.8 10.1-2.5-0.4-6.2-0.6-9.7-0.9-2.3-0.1-4.5-0.4-6-0.7-4.4-0.9-8.8-1.9-13.1-2.9q-6.5-1.6-13-3.5-6.5-1.9-13-4.2c-4.4-1.6-8.7-3.3-13.1-5.3q-3.3-1.5-6.7-3.2-1.7-0.9-3.4-1.9-1.7-1-3.4-2c-2.3-1.5-4.6-3.1-7-5.1-2.3-2-4.7-4.3-7-7.4l-0.8-1.2q-0.5-0.6-0.9-1.3c-0.5-0.8-1-1.8-1.5-2.7-1-2-1.8-4.2-2.4-6.7l-0.2-0.9q-0.1-0.4-0.2-0.9-0.2-0.9-0.3-1.9-0.1-0.9-0.1-1.9 0-0.5 0-1z"/><path  d="m638.4 328.1q-4.4 0.4-6.5-1.5-4.7-13.2 4.4-28.6 3.8-0.8 6.9 2.2-9.2 12-4.8 27.9z"/><path  d="m634.3 304c5-0.3 9.3 3.6 9.6 8.6 0.3 5.1-3.6 9.4-8.6 9.7-5.1 0.3-9.4-3.6-9.7-8.6-0.3-5.1 3.6-9.4 8.7-9.7z"/><circle class="b" cx="634.8" cy="313.2" r="6.9"/><path class="h" d="m651.1 302.1q0.1 0 0.2 0 4 1.1 8 2.1l1.7 3.7c-0.7 4.2-1.4 8.4-2.1 12.6-0.6 3.6 2.4 6.5 1.8 10.1-2.5-0.4-6.3-0.6-9.7-0.8-2.7-9.2-1-21.8 0.1-27.7z"/><path class="e" d="m659.5 186.4c1.9 6 0.4 12.6-3.7 17.3-7.7 8.9-22.5 26.2-30.6 37q-11.5 15.1-25.9 34.1 10.4 9.1 17.7 14-17.9 15-8.9 39.5-32-17.6-48.2-34.5c-11.9-12.4-8.6-27.8 2.2-42.5 5.5-7.5 47.6-55.5 62.6-72.3 5.5-6.2 14.2-8.7 22.1-6 5 1.8 10.3 5.5 12.7 13.4z"/><path class="g" d="m651.7 306.6q1.3-7.3 3.2-14.4 1.5-5.8 4.7-7.6c0.7 4 1.7 6.4 1.8 13.7q1.8-1.7 5.1-1c3.2 0.6 14.4 3 14.5 5.6q0.3 5.9-13.7 3 15 2.9 14.6 7-0.3 3.3-13.8 4 13 0.1 11.5 4.8-1.7 5-13.8 1.8 8.7 4.2 7.9 6c-1.2 2.5-6.4 3.2-14.8 1.2q-8.6-2.1-7.2-24.1z"/><path class="i" d="m636.3 229.9c-0.4 0-0.7 0-1-0.3-0.5-0.4-0.5-1.1-0.1-1.6l19.4-23c0.4-0.5 1.1-0.5 1.6-0.1 0.5 0.4 0.5 1.1 0.1 1.6l-19.3 23q-0.3 0.3-0.7 0.4z"/><path class="i" d="m657.3 212.9l-7.3 1.1c-0.6 0.1-1.2-0.3-1.3-1-0.1-0.6 0.3-1.2 0.9-1.3l7.3-1.1c0.7-0.1 1.3 0.3 1.4 0.9 0.1 0.7-0.4 1.3-1 1.4z"/><path class="i" d="m578.7 278.7c4.7-3.5 12-4.5 17.3-4.7-3.4-2.4-9.6-4.5-9.7-4.6-0.4-0.1-0.6-0.5-0.5-0.9 0.2-0.4 0.6-0.6 1-0.5 0.3 0.1 8.5 3 11.6 5.9q0.8 0 1.4 0l-0.6 0.9q0.3 0.3 0.6 0.6c-4.9 0-14.7 0.4-20.2 4.5q-0.3 0.2-0.6 0.2-0.3-0.1-0.5-0.3c-0.2-0.4-0.2-0.8 0.2-1.1z"/><ellipse class="a" cx="270.1" cy="821.8" rx="254.7" ry="15.5"/><path class="g" d="m307.3 336.1l0.3 1.5 0.3 1.2 0.4 2.3q0.4 2.2 0.7 4.4 0.6 4.4 1.1 8.7 0.9 8.5 1.3 17 0.4 8.5 0.3 17-0.1 8.5-0.7 17-0.6 8.4-1.7 16.8c-0.4 2.9-0.7 5.7-1.2 8.5q-0.3 2.1-0.7 4.2l-0.8 4.1c-0.2 1.4-0.5 2.8-0.8 4.2-0.3 1.4-0.6 2.8-0.9 4.2-0.6 2.7-1.3 5.5-2 8.3-0.3 1.3-0.7 2.7-1.1 4.1l-1.1 4.1-0.3 1-0.2 0.5-0.3 1.1c-0.3 1-0.6 1.8-0.9 2.7-0.3 0.8-0.7 1.6-1 2.3-0.4 0.8-0.7 1.4-1.1 2.1l-0.5 1q-0.3 0.5-0.5 0.9l-0.6 0.9-0.5 0.8c-0.3 0.5-0.7 1-1 1.5-1.5 2-2.8 3.6-4.2 5.1-1.3 1.5-2.6 2.8-3.9 4.1-2.6 2.4-5.1 4.5-7.5 6.5-5 3.9-9.8 7.2-14.6 10.3-9.6 6.2-19.1 11.5-28.8 16.4-9.5 5-19.2 9.6-28.9 14q-7.2 3.3-14.6 6.4-3.6 1.6-7.3 3.1l-3.7 1.5-3.8 1.6-16.8-37.9 3.2-1.7 3.4-1.7 6.7-3.5q6.7-3.5 13.3-7.2c8.9-4.8 17.6-9.8 26.1-14.9q6.4-3.8 12.5-7.7c4.1-2.7 8-5.4 11.8-8.1 3.8-2.7 7.3-5.5 10.4-8.1 1.5-1.4 2.9-2.7 4-3.9 1.1-1.1 1.9-2.2 2.1-2.6 0 0 0 0 0 0q0 0 0 0-0.1 0-0.1 0v0.1q-0.1 0-0.1 0.1c-0.1 0.1-0.1 0.1-0.2 0.3 0 0.1-0.2 0.4-0.2 0.6-0.2 0.2-0.2 0.5-0.4 0.8v0.3c0 0 0 0 0-0.1v-0.1l0.1-0.4 0.2-0.8 0.8-3.4c0.2-1.2 0.4-2.3 0.7-3.5 0.5-2.3 0.9-4.6 1.3-6.9 0.2-1.1 0.4-2.3 0.5-3.4 0.2-1.2 0.4-2.3 0.6-3.5 0.6-4.6 1.2-9.3 1.6-13.9q0.6-7 0.9-14.1 0.2-7 0.1-14.1-0.1-7-0.6-14-0.4-7-1.3-13.9-0.4-3.4-0.9-6.7-0.3-1.7-0.6-3.3l-0.2-1.5-0.2-1.1z"/><path class="k" d="m282.1 437.1c-12.4-2.2-25.8-7.9-40.1-15.9l9.6-72.2z"/><path class="h" d="m271.8 460.6q-0.3 0-0.6-0.2c-7.4-4-17.6-7.4-17.7-7.4-0.7-0.2-1-0.9-0.8-1.6 0.2-0.7 0.9-1 1.6-0.8 0.4 0.1 10.5 3.5 18.1 7.6 0.6 0.3 0.8 1.1 0.5 1.7-0.2 0.5-0.7 0.7-1.1 0.7z"/><path class="h" d="m254.6 453.3c-0.6 0-1.2-0.5-1.3-1.1 0-0.7 0.5-1.3 1.2-1.4 5.2-0.6 12.1-0.6 12.4-0.6q0 0 0 0c0.7 0 1.3 0.5 1.3 1.2 0 0.7-0.6 1.3-1.3 1.3-0.1 0-7 0-12.2 0.6q0 0-0.1 0z"/><path class="g" d="m117.7 749.7l-13.2 21.5-25-11.1 11.4-23.1z"/><path class="l" d="m1.8 766.7c2.6-3.7 9.2-7.8 25.8-7.5 12.9 0.3 27.7 1.5 38.2-1.9q10.5-3.5 14.1-4.2c8.3-1.8 12.9 17 26.7 11.9q6.3 1.4 3.4 8c-0.4 0.8-0.8 2-1.2 3.4q-0.4 1.3-0.8 2.8c-2.3 8.6-5.4 22.5-9.5 30.3-1.1 2.1-2.3 3.7-3.6 4.7l-94.6-41.9q-0.5-2.7 1.5-5.6z"/><path class="m" d="m1.8 766.7l96.7 42.8c-1.1 2.1-2.3 3.7-3.6 4.7l-94.6-41.9q-0.5-2.7 1.5-5.6z"/><path class="m" d="m87.5 792.6c5.5-10.9 15.7-14.8 21.3-16.2q-0.4 1.3-0.8 2.8c-5.3 1.6-13.7 5.4-18.3 14.5-3.5 6.9-3 13-1.6 17.4l-2.9-1.2c-1-4.7-1-10.7 2.3-17.3z"/><path class="b" d="m64.5 763.3l-5.2-4c-0.8-0.6-0.9-1.7-0.3-2.4 0.5-0.8 1.6-0.9 2.4-0.3l5.2 4c0.8 0.6 0.9 1.7 0.3 2.4-0.5 0.7-1.3 0.9-2 0.5q-0.2 0-0.4-0.2z"/><path class="b" d="m72.6 761l-5.3-4.1c-0.7-0.5-0.9-1.6-0.3-2.4 0.6-0.7 1.7-0.8 2.4-0.3l5.3 4.1c0.7 0.6 0.9 1.7 0.3 2.4-0.5 0.6-1.4 0.8-2.1 0.5q-0.1-0.1-0.3-0.2z"/><path class="b" d="m57.1 764.2l-5.3-4.1c-0.7-0.6-0.8-1.7-0.3-2.4 0.6-0.8 1.7-0.9 2.4-0.3l5.3 4.1c0.7 0.5 0.9 1.6 0.3 2.4-0.5 0.6-1.3 0.8-2 0.5q-0.2-0.1-0.4-0.2z"/><path class="b" d="m49.7 764.8l-5.2-4c-0.8-0.6-0.9-1.7-0.3-2.4 0.5-0.8 1.6-0.9 2.4-0.3l5.2 4c0.8 0.6 0.9 1.7 0.3 2.4-0.5 0.7-1.3 0.9-2 0.6q-0.2-0.1-0.4-0.3z"/><path class="b" d="m41.9 765l-5.2-4c-0.8-0.6-0.9-1.7-0.3-2.4 0.5-0.8 1.6-0.9 2.4-0.3l5.2 4.1c0.8 0.5 0.9 1.6 0.3 2.3-0.5 0.7-1.3 0.9-2 0.6q-0.2-0.1-0.4-0.3z"/><path class="b" d="m33.8 764.6l-5.3-4.1c-0.7-0.6-0.8-1.7-0.3-2.4 0.6-0.8 1.7-0.9 2.4-0.3l5.3 4.1c0.7 0.5 0.9 1.6 0.3 2.4-0.5 0.6-1.4 0.8-2.1 0.5q-0.1-0.1-0.3-0.2z"/><path class="c" d="m176.4 542.8c8.8-8.7 78.1-28 124.1-15.1 5.2 10.1 11.9 35.8-4.5 59.6q-60.5 9.9-94.3 30.2-21.4 49.5-34.1 67.7-12.8 18.2-42 75.9l-44-18.8q70.9-176 94.8-199.5z"/><path class="j" d="m130.3 750.3q-0.2 0-0.5-0.1l-43-17.9c-0.7-0.3-1-1.1-0.7-1.7 0.2-0.7 1-1 1.6-0.7l43.1 17.9c0.7 0.3 1 1 0.7 1.7-0.2 0.5-0.7 0.8-1.2 0.8z"/><path class="j" d="m123.1 746.6q-0.3 0-0.5-0.1c-0.6-0.2-1-1-0.7-1.6 0.1-0.2 9.1-22.7 30.1-54.6 20.9-31.7 42.7-85.3 43-85.8 0.2-0.7 1-1 1.6-0.7 0.7 0.3 1 1 0.7 1.6-0.2 0.6-22.1 54.4-43.2 86.3-20.8 31.7-29.8 53.9-29.8 54.1-0.2 0.5-0.7 0.8-1.2 0.8z"/><path class="g" d="m228.7 753.5l-3.3 24.9h-27.3l1-25.6z"/><path class="l" d="m129.7 815.9c0.9-4.4 5.2-10.8 20.6-17.3 11.9-4.9 25.8-9.8 34-17.2q8.3-7.4 11.2-9.5c7-5.1 18.8 10.3 29.3 0q6.4-1.2 6.4 6c0 0.9 0.1 2.1 0.3 3.6q0.1 1.3 0.4 2.9c1.3 8.8 4.1 22.7 3.5 31.5-0.2 2.4-0.6 4.3-1.4 5.7h-103.4q-1.6-2.2-0.9-5.7z"/><path class="m" d="m129.7 815.9h105.7c-0.2 2.4-0.6 4.3-1.4 5.7h-103.4q-1.6-2.2-0.9-5.7z"/><path class="m" d="m218.5 804.9c0.6-12.2 8.4-19.9 13-23.4q0.1 1.3 0.4 2.9c-4.3 3.6-10.4 10.4-10.9 20.7-0.4 7.7 2.5 13 5.5 16.5h-3c-2.9-3.8-5.3-9.3-5-16.7z"/><path class="b" d="m185.7 787.5l-6.5-1.7c-0.9-0.2-1.4-1.1-1.2-2 0.2-0.9 1.1-1.5 2-1.3l6.5 1.6c0.9 0.3 1.5 1.2 1.3 2.1-0.2 0.8-0.9 1.3-1.7 1.3q-0.2 0-0.4 0z"/><path class="b" d="m192.1 782.1l-6.5-1.6c-0.9-0.3-1.4-1.2-1.2-2.1 0.2-0.9 1.2-1.5 2.1-1.2l6.4 1.6c0.9 0.2 1.5 1.1 1.3 2-0.2 0.8-0.9 1.3-1.7 1.3q-0.2 0-0.4 0z"/><path class="b" d="m179.2 791.2l-6.4-1.6c-1-0.2-1.5-1.1-1.3-2.1 0.2-0.9 1.2-1.4 2.1-1.2l6.4 1.6c1 0.2 1.5 1.2 1.3 2.1-0.2 0.7-0.9 1.3-1.7 1.3q-0.2 0-0.4-0.1z"/><path class="b" d="m172.8 794.8l-6.5-1.6c-0.9-0.2-1.5-1.1-1.2-2.1 0.2-0.9 1.1-1.4 2-1.2l6.5 1.6c0.9 0.2 1.5 1.2 1.2 2.1-0.2 0.8-0.9 1.3-1.6 1.3q-0.2 0-0.4-0.1z"/><path class="b" d="m165.7 798.2l-6.5-1.6c-0.9-0.3-1.4-1.2-1.2-2.1 0.2-0.9 1.2-1.5 2.1-1.3l6.4 1.7c0.9 0.2 1.5 1.1 1.3 2-0.2 0.8-0.9 1.3-1.7 1.3q-0.2 0-0.4 0z"/><path class="b" d="m158.1 801l-6.5-1.6c-0.9-0.2-1.5-1.1-1.2-2.1 0.2-0.9 1.1-1.4 2-1.2l6.5 1.6c0.9 0.2 1.5 1.2 1.2 2.1-0.2 0.7-0.9 1.3-1.6 1.3q-0.2 0-0.4-0.1z"/><path class="d" d="m436.1 547.3q-0.1 0.6-0.2 1.2-0.3 0.2-0.6 0.5c-16.1 12.3-34.8 20.5-54 25.1q-1 0.3-2 0.5-4.9 1.1-9.8 2-6.7 1.1-13.4 1.7-5.9 0.5-11.6 0.6c-16.6 0.3-32.3-1.9-45.6-6.1q-0.7-0.2-1.5-0.5-5.3-1.8-10-4-0.7-0.3-1.4-0.6-2.9-1.5-5.5-3.1c0.2-6.3 0.3-14 0.2-22.1q0-1.1 0-2.1c-0.1-11.3-0.4-23.6-0.9-34.8q0-0.8 0-1.6c-0.3-5.8-0.6-11.4-0.8-16.4q-0.1-0.8-0.1-1.5c-0.2-4.2-0.4-7.9-0.6-11q-0.1-1.2-0.2-2.3-0.1-0.9-0.1-1.8-0.3-3.2-0.5-6.3-0.5-5-1-9.7-0.6-5.4-1.2-10.4-0.8-5.4-1.6-10.4-0.9-5.4-1.8-10.3c-2.2-11.7-4.7-21.7-7.2-30.3q-0.3-0.9-0.5-1.8-1.6-5.1-3.1-9.6-0.3-1-0.6-1.9c-5.6-16.5-10.2-26.5-10.2-33.2-0.2-13.9 10-18.3 20.6-23.9q0.7-0.4 1.5-0.8c1.7-1 3.5-2 5.3-3.1q1.1-0.7 2.1-1.5 0.8-0.5 1.5-1c4.2-3.2 7.8-7.3 10.2-13.1l40.1-8.4q3.8 2 10.3 3.7 0.9 0.3 1.8 0.5 1.2 0.2 2.4 0.5 0.8 0.1 1.6 0.3 0.6 0.1 1.2 0.2c3.8 0.6 8.3 1 13.3 0.9q0.8 0 1.5-0.1 0.6 0 1.1 0 5.1-0.3 9.8 1.2 0 0 0 0 0.9 0.3 1.8 0.7c13 5.2 23.2 20.7 29.8 44.6q2.8 10 5.5 19.5 0.2 1 0.5 2 0.6 2.1 1.2 4.2 0.2 0.7 0.4 1.5 2 7.3 3.9 14.5 0 0 0 0 0.2 0.8 0.4 1.5 0 0.1 0 0.1 0.2 0.4 0.3 0.8l0.7 2.8c4.4 17.1 8.1 33.5 10.5 50.2q0.7 5.1 1.3 10.4 0.2 1.2 0.3 2.8 0 0.3 0.1 0.6 0 0.5 0.1 1.1 0 0.3 0 0.5c0.7 6.3 1.5 15.1 2.3 24.7q0.1 0.7 0.2 1.5c1.8 22.4 3.5 49.1 2.2 60.8z"/><path class="k" d="m313.1 327.5c-16.8 2.8-23.8-10.2-23.9-10.4-0.2-0.5 0-1.2 0.5-1.5 0.6-0.3 1.3-0.1 1.6 0.5 0.2 0.4 6.3 11.6 21.4 9.1 15.5-2.5 24.3-22.8 24.3-23 0.3-0.6 1-0.9 1.5-0.6 0.6 0.2 0.9 0.9 0.7 1.5-0.4 0.8-9.1 20.8-25.1 24.2q-0.5 0.1-1 0.2z"/><path class="k" d="m294.4 538.7c-0.6-0.2-0.9-0.9-0.7-1.5 0.2-0.6 0.8-0.9 1.4-0.7 31.1 9.9 60.6-6 79.9-21.1 21.1-16.5 34.9-35.6 35.1-35.8 0.3-0.5 1.1-0.6 1.6-0.2 0.5 0.4 0.6 1.1 0.2 1.6-0.1 0.2-14.1 19.5-35.4 36.2-15.5 12.1-31.1 19.8-46.1 23-12.5 2.6-24.5 2.1-36-1.5z"/><path class="k" d="m320 527.8c-0.1-0.6 0.3-1.2 0.9-1.3 22.2-5.1 34.7-40.4 34.9-40.7 0.2-0.6 0.8-1 1.4-0.7 0.6 0.2 0.9 0.8 0.7 1.4-0.5 1.5-13.1 36.9-36.5 42.2q0 0 0 0c-0.6 0.1-1.2-0.2-1.4-0.9z"/><path class="k" d="m281 471c2.5-1.8 4.8-4 6.7-6.4 2.8-3.6 6.7-10.8 1.9-17.8q-1.2-1.8-2.2-3.3c-8.1-11.8-9.2-13.4-8.5-33.2 0.2-5.6-1.3-10-4.6-13-1.9-1.8-4.3-3-6.6-3.7q-0.3-0.9-0.5-1.8c2.8 0.8 5.7 2.1 8.2 4.3 3.6 3.4 5.3 8.2 5.1 14.3-0.7 19.3 0.1 20.5 8.2 32.3q1 1.5 2.2 3.2c3.9 5.8 3.2 12.8-2 19.6-2.2 2.8-4.9 5.3-7.8 7.3q-0.1-0.9-0.1-1.8z"/><path class="k" d="m434.4 460.3c-3.1 1.9-6.1 3-9 3.6-7.8 1.7-14.5-0.7-18.8-5.1-5.2-5.2-7.2-14.1-1.1-21.2 6-6.8 3.4-10.4 0.2-15-3.2-4.6-7.2-10.2-3-20.1 2.3-5.7 6-9.6 10.8-11.5 2.5-1 4.9-1.4 7.2-1.5q0.2 0.8 0.4 1.5c-2.2 0.1-4.6 0.4-7 1.4-4.4 1.8-7.8 5.4-10 10.7-3.8 9.1-0.4 13.9 2.9 18.6 3.3 4.7 6.5 9.2-0.3 16.9-5 5.7-4.6 13.6 0.9 19.2 5.7 5.6 15.6 7.6 26.7 0.9q0 0.5 0.1 1.1 0 0.3 0 0.5z"/><path fill-rule="evenodd" class="k" d="m337.3 439.7c9.9-9.6 6.8-17.1 3.1-25.6-3.5-8.3-7.4-17.6-0.8-30.5q0.2-0.4 0.4-0.7c2.6-4.9 7.8-7.4 13.2-6.3 5.4 1.1 9.1 5.4 9.6 10.9 0.8 9.3 5.3 20.7 13.1 33 5.3 8.3 6.4 17.4 3 26.3-4.3 11.5-15.6 21.4-25.5 25.6q-1.8 0.8-3.6 1.3c-7.6 2.2-16-1-19.8-7.6-4.5-7.7-1.8-17.6 7.3-26.4zm-6 25.6c3.5 6.1 11.1 9 18.1 6.9 10.1-2.9 23.4-13.5 28.1-26 3.2-8.5 2.3-16.9-2.8-24.9q-5.4-8.4-8.6-16-4.1-9.6-4.8-17.7c-0.4-4.8-3.7-8.5-8.4-9.5-2.3-0.4-4.4-0.2-6.4 0.6-2.1 1-3.9 2.6-5.1 4.9q-0.2 0.4-0.4 0.7c-6.3 12.3-2.7 20.9 0.8 29.2 3.7 8.7 7.2 16.9-3.5 27.3-8.5 8.3-11.1 17.4-7 24.5z"/><path class="k" d="m282.9 380.4c8.9-3.9 15.5-12.3 15.3-17.3 0-1.5-0.7-2.4-1.9-2.8-11.2-4.1-15.7-11.4-17.4-27.9-0.4-3.9-2-7-4.7-9q-0.1-0.1-0.3-0.2 0.7-0.4 1.5-0.8c2.9 2.2 4.6 5.6 5 9.9 1.6 15.7 5.9 22.7 16.4 26.5 1.8 0.7 2.9 2.2 2.9 4.2 0.2 5.5-6.4 14.6-16.2 18.8-1.4 0.6-3.2 1.2-5.2 1.6-3.9 0.9-8.8 1-14.2-1.2q-0.3-1-0.6-1.9c8 3.7 15.2 1.9 19.4 0.1z"/><path fill-rule="evenodd" class="k" d="m319 348.7c2.7-5.3 7.6-8.7 13.2-9.3 4.8-0.4 8.3 1.4 10.3 5.2 2.5 5-0.7 8-3.8 10.8-3.5 3.2-7.1 6.6-5.2 13.5 1.8 6.7 0 12.3-4.8 15q-1.5 0.8-3 1.1c-3 0.6-6-0.1-7.9-2.2-7.5-8.2-3.2-25.3 1.2-34.1zm-0.1 33.1c2 2.2 5.9 2.5 9.1 0.7 4.1-2.3 5.7-7.2 4-13.2-2.1-7.8 2.2-11.8 5.7-15 3.1-2.9 5.4-5 3.4-9-1.6-3.2-4.6-4.7-8.7-4.3q-0.8 0-1.6 0.2c-4.4 0.9-8.3 4-10.4 8.2-4.3 8.5-8.5 24.8-1.5 32.4z"/><path fill-rule="evenodd" class="k" d="m295.4 416.5c1.1-8.5 8-15.3 16.5-16.1 5-0.4 8.4 1.4 9.9 5.2 2.1 5.4-1.6 9.3-5.2 13-4.2 4.5-8.2 8.7-3.7 15.2 4 5.7 4.8 10.5 2.3 13.1-0.8 0.9-1.9 1.5-3.3 1.8-3 0.6-7.1-0.3-11.3-2.8-2.8-1.6-4.5-4.9-5.3-9-1.3-6-0.8-13.7 0.1-20.4zm6 28.1c5.3 3.1 10.5 3.7 12.7 1.3 1.9-2.1 1.1-6.2-2.4-11.2-5.2-7.6-0.4-12.7 3.8-17.1 3.4-3.6 6.6-7 4.9-11.4-1.3-3.3-4-4.6-8.4-4.2q-1 0-1.9 0.2c-3.4 0.8-6.5 2.6-8.8 5.1-2.4 2.6-3.9 5.8-4.4 9.4-2 15.1-0.4 25 4.5 27.9z"/><path class="k" d="m282.8 504c6.9-2.3 9.5 1.6 12.5 6.1 2.6 3.9 5.6 8.4 12.5 10 8.4 2 15.9-3.5 18.9-9.8 2.2-4.8 2.5-11.5-3.3-15.8-2.7-2.1-4.1-4.1-4.4-6.2-0.4-3.1 1.7-5.8 3.7-8.4 2.6-3.3 5.1-6.5 3.2-10.6-1.6-3.4-4.5-5.4-8.4-5.7q-2-0.1-4.1 0.3c-5.6 1.2-11.3 5.4-15.4 11.6-4.9 7.6-11.3 10.8-16 12.1q-0.1-0.7-0.1-1.5c4.4-1.3 10.3-4.4 14.8-11.4 5.4-8.2 13.6-13.1 20.9-12.6 4.4 0.3 7.9 2.6 9.7 6.5 2.3 5-0.7 8.9-3.4 12.3-1.9 2.4-3.7 4.8-3.4 7.2 0.2 1.7 1.5 3.3 3.9 5.1 5.4 4.1 6.8 10.9 3.6 17.7-2.3 5-7.2 9.5-13.3 10.8-2.2 0.5-4.7 0.5-7.2-0.1-7.5-1.8-10.8-6.7-13.5-10.7-3-4.4-5-7.5-11.2-5.3q0-0.8 0-1.6z"/><path fill-rule="evenodd" class="k" d="m360.6 487c-0.1-0.3-0.6-7.8 3.7-12.2 2.2-2.3 5.3-3.4 9.2-3.1 7.8 0.4 11.2-2.2 15.2-5.3 2.6-2 5.5-4.3 10-5.8 6.3-2.1 11 1.8 12.8 6.3 1.9 4.9 0.7 11.7-6.5 15-6.5 2.9-11.6 2.2-15.6 1.6-4.2-0.6-7.3-1-10.3 2.4-3 3.4-6.6 5.6-9.9 6.3-1.5 0.3-2.9 0.3-4.2 0-2.3-0.7-3.9-2.5-4.4-5.1q0-0.1 0-0.1zm4.8 3.7c3.5 1 8.7-1.4 12.5-5.8 1.7-1.9 3.3-2.7 5.1-3.1 2.1-0.4 4.2-0.1 6.6 0.2 4.1 0.6 8.7 1.3 14.8-1.5 6.3-2.9 7.3-8.8 5.7-13.1-1.5-3.8-5.6-7.1-10.9-5.3-4.3 1.4-7 3.5-9.6 5.5-4 3.1-7.8 6.1-16.2 5.6-3.4-0.2-6.1 0.7-8 2.6-3.7 3.8-3.4 10.4-3.3 11 0.4 2.1 1.6 3.4 3.3 3.9z"/><path class="k" d="m425 512.7c-3.8-2.4-8.4-5.4-7.8-13.6 0.3-4 2-7.2 4.9-9.6 4.2-3.5 10.3-4.4 14.6-4.5q0.1 0.7 0.2 1.5c-1.8 0.1-3.9 0.3-5.9 0.7-2.8 0.6-5.7 1.6-7.9 3.5-2.6 2.1-4.1 5-4.4 8.5-0.5 7.3 3.3 9.8 7.1 12.2 4.1 2.7 7.9 5.2 3 13.3-4.8 7.9-2.8 16.7 1.9 20.7 2.4 2 5.3 2.6 8.4 1.9q-0.1 0.6-0.2 1.2-0.3 0.2-0.6 0.5c-3.2 0.4-6.1-0.4-8.6-2.5-5.2-4.3-7.4-14-2.2-22.6 4.2-6.8 1.5-8.6-2.5-11.2z"/><path class="k" d="m305 560.9c3.2-3.2 8-4.4 14.2-3.7 8 0.8 11.8 4.3 14.8 7.1 4.4 4 7 6.4 19.9-2 13.9-9 25.2-8 29.9-3.1 3.5 3.6 3.7 9.1 0.6 14.9q-1.1 0.3-2.1 0.5c3.5-5.7 3.7-11 0.4-14.4-2.6-2.7-7.7-4-14.2-2.6-4.1 0.8-8.7 2.7-13.8 6-13.2 8.6-16.7 6.4-21.7 1.8-3.1-2.8-6.5-5.9-14-6.7-5.7-0.6-10 0.5-13 3.3-3.5 3.4-4 8.4-4.1 10.8q-0.7-0.2-1.5-0.5c0.1-2.7 0.9-7.8 4.6-11.4z"/><path fill-rule="evenodd" class="k" d="m389.2 539.5c4.4-3 3.7-4.4 2.3-7.2-1.2-2.4-2.8-5.6-2.1-10.8 0.4-3 1.7-5.3 4-6.8 5.2-3.6 13.7-1.5 14.1-1.4q0 0 0.1 0c7.7 3.5 8.4 11.6 8.1 19.9-0.4 10.7-5.5 18-14.5 20.6q-0.4 0.1-0.8 0.1c-5.9 1.3-12.2-2.1-14.1-6.2-1.5-3-0.4-6 2.9-8.2zm-1.6 7.6c1.7 3.6 7.8 6.7 13.1 5.2 10.7-3 13.2-12.1 13.5-19.1 0.4-10.6-1.7-15.9-7.2-18.5-0.7-0.2-8.3-1.8-12.8 1.3q-2.7 1.9-3.3 5.7c-0.6 4.7 0.8 7.6 2 9.9 1.6 3.3 2.4 5.5-2.9 9.1-2.6 1.8-3.5 4-2.4 6.4z"/><path class="k" d="m289.2 567.5c2.9-3.4 4.2-7.1 3.6-11-0.8-5.8-5.5-10.9-9.1-14q0-1.1 0-2.1c3.8 3.1 9.6 8.9 10.6 15.9 0.7 4.2-0.7 8.3-3.9 12q-0.7-0.3-1.4-0.6 0.1-0.1 0.2-0.2z"/><path class="c" d="m256.6 234.9q-22.7-4.8-23.3-13.5-0.5-8 9-7.2-11-18-4.7-21.6 6.3-3.5 14.3 6.6-5.8-21.4 1.9-19.9 7.7 1.5 8.7 13.3 25.7-9.1 40.3-4.7 9.9 3 12.3 12.5 5.9-3.5 10.1-1.3 4.1 2.1 0.3 9.5 6.5 5 4.5 12.9-2 7.9-7.6 23.5z"/><path class="g" d="m292.9 293.8l31.6-30.4 7.6 36.2q-16.7 17.6-37.1 10.5-2.1-0.7-4.2-1.8l-2.2-10.4z"/><path class="c" d="m292.9 293.8l24.1-11.6q-7.8 18.5-22 27.9-2.1-0.7-4.2-1.8l-2.2-10.4z"/><path class="c" d="m268.5 213.4q-24.7 7.7-10 32.1 12-25.3 10-32.1z"/><path class="h" d="m268.8 273.4c-8.6 4.3-14.1-9.4-12.3-17.1q1.9-7.7 9.3-1.9z"/><path class="g" d="m261.6 263.2l-1-5.6-4-22.7c-0.6-4.7 0.4-8.8 2.5-12.4 5.7-9.8 19.9-15.5 36.3-15.8q22.3-0.4 24.3 22.8l1.9 12.7 3.7 23.8 0.7 4.6q0 0 0 0c-0.6 1-12.1 21.7-34.4 26.5q-22.4 4.7-26.9-16.8z"/><path class="c" d="m317.9 249q2.8 11.8 1 26.7c-1.9 14.9-20.7 24.3-36.3 23.3-15.6-1.1-24-29.2-20.5-32.9q5.4-5.7 16.7-4c5.6-4.2 13.7-5 21-4.4q7.3 0.6 10.6-12.7z"/><path class="b" d="m274.2 268.4q12.6-1.3 18.8-4.8 2.8 12.3-7.9 13.4-8.6 0.8-10.9-8.6z"/><path class="h" d="m297.1 249.8c4-0.8 7.5-0.2 7.8 1.4 0.3 1.5-2.6 3.5-6.6 4.3-4 0.9-7.5 0.3-7.8-1.3-0.4-1.6 2.6-3.5 6.6-4.4z"/><path class="h" d="m260.6 257.6q0.8-0.2 1.6-0.4c4-0.9 7.5-0.3 7.8 1.3 0.3 1.6-2.6 3.5-6.6 4.4q-0.9 0.2-1.8 0.3z"/><path class="c" d="m290.2 241.1c1.2-0.2 2.6 1.3 3 3.5 0.5 2.1-0.1 4.1-1.3 4.3-1.2 0.3-2.6-1.2-3-3.4-0.5-2.2 0.1-4.1 1.3-4.4z"/><path class="c" d="m268.9 245.6c1.2-0.2 2.6 1.3 3 3.5 0.5 2.1-0.1 4.1-1.3 4.3-1.3 0.3-2.6-1.2-3.1-3.4-0.4-2.2 0.2-4.1 1.4-4.4z"/><path class="c" d="m272.9 256.2c-0.2-0.2-0.2-0.5-0.2-0.7 2.1-8.2 4.1-16.6 4.1-16.7 0.2-0.5 0.6-0.8 1.1-0.7 0.5 0.1 0.8 0.6 0.7 1.1 0 0.1-2 8.2-4 16.2 0.7 0.7 2.6 2.1 5.8 1.4 0.5-0.1 1 0.2 1.1 0.7 0.1 0.5-0.2 0.9-0.7 1-5.3 1.2-7.8-2.1-7.9-2.3z"/><path class="c" d="m297.2 235.6l-0.2 0.1c-0.8 0.8-2.2 0.8-2.9-0.1-2.2-2.8-5.3-3.3-7.3-3.2-1.1 0-2-1-2-2.1 0.1-0.9 0.8-1.7 1.7-1.8 7.3-1.2 10.1 2.7 11.1 4.8 0.3 0.8 0.2 1.7-0.4 2.3z"/><path class="c" d="m260.3 241.2c0-2.4 1-7.1 8.2-8.9 0.9-0.2 1.8 0.2 2.2 1 0.5 1 0.1 2.3-1 2.7-1.8 0.7-4.4 2.4-5.3 5.9-0.3 1.1-1.5 1.6-2.6 1.2h-0.2c-0.8-0.3-1.3-1.1-1.3-1.9z"/><path class="c" d="m325.3 266l0.7 4.6q0 0 0 0c-4.5-1-8.7-7-8.9-7.2q4.6 2.8 8.2 2.6z"/><path class="g" d="m317.9 247.6q6.2-13.4 14.5-5.7c6.7 6.4 1 28-10.7 23.5z"/><path class="c" d="m322.1 261.7c-0.5 0-1-0.3-1-0.8-1-10.1 6.5-15.2 6.9-15.5 0.4-0.2 0.9-0.1 1.2 0.3 0.3 0.4 0.2 1-0.2 1.2-0.3 0.2-7 4.8-6.1 13.8 0 0.5-0.3 0.9-0.7 1q-0.1 0-0.1 0z"/><path class="c" d="m328.7 254.5c-0.8-0.5-3.6-1.5-5-0.8-0.5 0.2-1 0-1.2-0.4-0.3-0.5-0.1-1 0.4-1.2 2.5-1.3 6.2 0.6 6.6 0.8 0.5 0.2 0.6 0.7 0.4 1.2-0.1 0.2-0.3 0.4-0.6 0.5q-0.3 0-0.6-0.1z"/><path class="c" d="m295.3 206.7q22.4-0.4 24.4 22.8l1.9 12.7c-1.5 1.5-3.7 4.2-4.2 7.7l-5.5 1.9q-2.6-9-2.2-16.3c0.5-7.3-8.7-6.2-7.9-15.9q-8.2-5.5-17.1-0.5c-8.9 4.9-18.9 8.7-24.2 5.1q-0.9-0.6-1.4-1.7c5.7-9.8 19.9-15.5 36.2-15.8z"/><path class="c" d="m426.2 528.4q21.3 84.2-89.4 84.2-59.1 0-87.3-5.7-1.4 52.2-4.1 74.3-2.8 22-12.5 76.9l-46.6 3.6q-7.5-191.2 21.1-208.8c28.5-17.6 69.6-18.1 140.1-24.9q63.3-10.7 78.7 0.4z"/><path class="j" d="m226.5 742.8q-0.1 0-0.3 0c-0.7-0.2-1.1-0.9-0.9-1.5 6.4-26.9 9-65.5 11-96.4 2-30.5 3.2-46.6 6.4-49.4 3.5-3.1 13.9-2 31.1-0.2 21.3 2.3 53.4 5.7 88.1 1.7 17.3-1.9 30.5-8.7 39.3-20 15.8-20.3 12.2-48.9 12.1-49.2-0.1-0.7 0.4-1.3 1.1-1.4 0.7-0.1 1.4 0.4 1.5 1.1 0.1 1.2 3.8 29.8-12.7 51-9.3 11.9-23 19-41 21.1-35 4-67.3 0.5-88.7-1.7-14.8-1.6-26.4-2.9-29.1-0.5-0.6 0.5-1.8 3.1-3 14.7-0.9 8.6-1.7 19.9-2.6 32.9-2 31.1-4.6 69.7-11.1 96.8-0.1 0.6-0.6 1-1.2 1z"/><path class="j" d="m186.8 746.6c-0.7 0-1.2-0.5-1.3-1.2 0-0.7 0.5-1.3 1.2-1.3l47.7-2.9c0.7 0 1.3 0.5 1.3 1.2 0 0.7-0.5 1.3-1.2 1.3l-47.6 2.9q-0.1 0-0.1 0z"/><rect class="a" x="174.8" y="534.1" width="140.7" height="18.3" rx=".6"></rect><path class="b" d="m160.1 552.5c-5.2 0-9.9-3.6-11.2-8.7l-26.4-98.5c-1.6-6.1 3-12 9.2-12h63c4.2 0 8 2.9 9.1 7l31.5 112.2z"/><path class="a" d="m194.7 433.3h7.2c4.2 0 8 2.9 9.1 7l31.3 111.2h-7.2l-31.3-111.2c-1.1-4.1-4.9-7-9.1-7z"/><path class="a" d="m186 494.5c1.5 6.2-2.4 11.2-8.6 11.2-6.2 0-12.3-5-13.8-11.2-1.4-6.2 2.5-11.2 8.6-11.2 6.2 0 12.4 5 13.8 11.2z"/><path class="g" d="m285 540.2c-15.8 4.7-18.6-3-23.4-3.7q-4.7-0.7-21.8 6.3l-5.5-19.8q9.1-8.7 37.7-10.7z"/><path class="g" d="m272.1 511l3.2-1.3 3.4-1.4q3.3-1.4 6.7-2.9 6.7-3 13.2-6.1c8.8-4.3 17.4-8.7 25.8-13.5 8.3-4.7 16.3-9.8 23.6-15.2q2.8-2 5.4-4.1 2.5-2.1 4.9-4.2c3.2-2.9 6.1-5.8 8.3-8.6 1.1-1.4 2.1-2.8 2.9-4.1q1-1.7 1.8-3.8c1.1-2.8 2-6.2 2.6-9.8 1.2-7.4 1.3-15.9 0.5-24.6-0.8-8.7-2.3-17.7-4.3-26.7q-1.6-6.7-3.5-13.3-0.9-3.4-2-6.6-0.5-1.7-1-3.2l-0.5-1.6-0.3-0.7-0.1-0.4-0.1-0.1v-0.1c-6-12.5-0.7-27.6 11.8-33.6 12.6-6 27.7-0.7 33.7 11.8q0.9 1.8 1.4 3.7l0.8 2.7 0.2 0.6 0.2 0.6 0.2 1.1 0.6 2.1q0.5 2 1 4 0.9 4.1 1.8 8.1 1.6 8.1 2.9 16.2c1.6 10.9 2.7 22 2.8 33.4 0.1 5.7-0.1 11.5-0.6 17.5-0.6 5.9-1.5 12-3 18.2-1.5 6.1-3.6 12.5-6.8 18.8-1.6 3.2-3.5 6.3-5.6 9.3-2.2 2.9-4.3 5.5-6.5 7.8-4.5 4.8-9.1 8.7-13.7 12.2-4.6 3.6-9.3 6.8-14 9.7-9.4 5.9-18.9 10.9-28.5 15.5-9.6 4.5-19.2 8.7-28.9 12.5q-7.3 2.8-14.7 5.5-3.7 1.3-7.4 2.5l-3.7 1.3-3.9 1.3c-8.5 2.7-17.6-2-20.3-10.4-2.6-8.1 1.5-16.7 9.2-19.9z"/><path class="h" d="m389 456.8q-0.2 0-0.3-0.1c-9.8-2.9-20.6-2.4-20.8-2.4-0.5 0-1-0.4-1-1 0-0.5 0.4-1 1-1 0.4 0 11.3-0.5 21.3 2.5 0.6 0.2 0.9 0.7 0.7 1.3-0.1 0.4-0.5 0.7-0.9 0.7z"/><path class="h" d="m370.4 454.3c-0.3 0-0.6-0.2-0.8-0.4-0.3-0.4-0.3-1 0.2-1.4 3.6-3.1 8.2-4.5 8.3-4.6 0.6-0.1 1.1 0.2 1.3 0.7 0.1 0.5-0.2 1.1-0.7 1.2 0 0.1-4.3 1.4-7.6 4.2q-0.3 0.3-0.7 0.3z"/><path class="d" d="m424.6 393.1l-20.7 5.7-1.6 0.4-14.3 3.9-1.7 0.5-18.4 5-1.4-6.5-0.3-1.5-3.4-15.4-0.3-1.5-6.3-28.9c-1.7-6.7-2.8-15-1.8-21.9 1.3-10.1 10.2-23.2 26.5-24 3-0.2 5.7 0.2 8.3 1.2 0.5 0.1 1 0.4 1.5 0.6 4.9 2.2 9.2 6.3 12.9 11.6q0.4 0.7 0.8 1.3c7 10.7 11.8 25.5 15 39.5q0.2 0.8 0.4 1.6c1.5 6.6 2.6 13 3.4 18.5q0.3 1.3 0.4 2.5 0.6 4.2 1 7.4z"/><path class="k" d="m423.6 385.7c-2.4-2.7-5.5-4.9-11-3.9-6.8 1.2-12.2-1.1-14.5-6.1q-0.6-1.5-0.8-3.1c-0.3-3 0.7-6 2.9-7.7 4.9-3.7 12.2-3.6 19.2-1.8q0.2 0.8 0.4 1.6c-6.8-1.9-14-2.2-18.7 1.4-2.3 1.8-3 5.7-1.5 9 1.9 4.3 6.7 6.3 12.7 5.2 5.2-0.9 8.5 0.7 10.9 2.9q0.3 1.3 0.4 2.5z"/><path class="k" d="m403.9 351.1c-0.9 0.8-2 1.4-3.3 1.7-3 0.6-7.2-0.3-11.4-2.8-2.8-1.6-4.4-4.9-5.2-9-1.3-6-0.8-13.7 0-20.4 0.6-4 2.4-7.7 5.2-10.5 0.5 0.1 1 0.4 1.5 0.6q-0.4 0.4-0.8 0.7c-2.3 2.6-3.9 5.8-4.4 9.5-1.9 15-0.4 24.9 4.5 27.8 5.3 3.1 10.6 3.7 12.7 1.3 2-2.1 1.1-6.2-2.3-11.2-5-7.2-0.9-12.2 3.2-16.5q0.4 0.7 0.8 1.3c-3.8 4.1-7 8.2-2.8 14.3 3.9 5.7 4.7 10.5 2.3 13.2z"/><path class="k" d="m361.4 384c-3.4-20.1-7.7-38.9-7.7-39.1-0.1-0.4 0.1-0.8 0.5-0.9 0.4-0.1 0.8 0.1 0.9 0.6 0.1 0.2 4.4 19.1 7.8 39.3 0 1-1.3 0.9-1.5 0.1z"/><path class="k" d="m357.4 359.5q-0.2 0-0.4-0.1l-7.8-5c-0.4-0.2-0.5-0.7-0.2-1.1 0.2-0.3 0.7-0.4 1-0.2l7.8 5c0.4 0.2 0.5 0.7 0.2 1.1-0.1 0.2-0.4 0.3-0.6 0.3z"/><path class="b" d="m306.8 361.7q-3.9 0-7.2-2.9c-12.3-10.9-12.3-50.3-12.2-52 0-0.8 0.6-1.4 1.4-1.4q0 0 0 0c0.8 0 1.4 0.6 1.4 1.4 0 0.4 0 39.8 11.3 49.9 2 1.7 4.1 2.3 6.5 2 15.1-2 22.1-46.2 23.4-63 0.1-0.8 0.8-1.4 1.6-1.3 0.8 0 1.4 0.7 1.3 1.5 0 0.2-1.3 15.7-5 31.4-5.1 21.6-12.2 33.1-21 34.3q-0.7 0.1-1.5 0.1z"/><path class="n" d="m421.5 730.4h-149.6c-3.5 0-6.3-2.8-6.3-6.3 0-3.5 2.8-6.3 6.3-6.3h149.6c3.5 0 6.3 2.8 6.3 6.3 0 3.5-2.8 6.3-6.3 6.3z"/><path class="o" d="m258.2 827.2q-0.4 0-0.9-0.1c-3.4-0.5-5.9-3.6-5.4-7.1l27.2-203.4c0.5-3.2 3.1-5.5 6.3-5.5h122c3.2 0 5.9 2.3 6.3 5.5l26.8 203.4c0.5 3.5-2 6.7-5.4 7.1-3.5 0.5-6.7-2-7.1-5.4l-26.1-197.9h-110.9l-26.5 197.9c-0.5 3.2-3.2 5.5-6.3 5.5z"/><path class="o" d="m421.2 563.3q10.2-35.6-1.2-164.2c26.3 20.7 39.2 51.7 40.8 85 1.5 29.5 0.2 61.6-5 94.8-3.8 24.8-30.7 38.5-55.8 38.5h-79.2q86.7-6.7 100.4-54.1z"/><path class="o" d="m87.3 343.5h76.3c5.1 0 9.2 4.1 9.2 9.1v30.8l7.8 20.4c0.9 2.1-1.2 4.2-3.3 3.4l-20.9-7.5h-69.1c-5 0-9.1-4-9.1-9.1v-38c0-5 4.1-9.1 9.1-9.1z"/><circle class="n" cx="144.8" cy="372.7" r="6.6"/><circle class="n" cx="124" cy="372.7" r="6.6"/><circle class="n" cx="103.1" cy="372.7" r="6.6"/><ellipse class="a" cx="1240.7" cy="203.1" rx="53.9" ry="53.2"/><ellipse class="e" cx="1240.7" cy="196.2" rx="53.9" ry="53.2"/><ellipse class="b" cx="1240.7" cy="196.2" rx="43.8" ry="43.2"/><path class="a" d="m1284.5 196.2q0 1.7-0.1 3.4c-1.8-22.3-20.7-39.9-43.7-39.9-23 0-41.9 17.6-43.6 39.9q-0.2-1.7-0.2-3.4c0-23.9 19.7-43.3 43.8-43.3 24.2 0 43.8 19.4 43.8 43.3z"/><path class="c" d="m1240.7 200.7c-0.3 0-0.6-0.2-0.9-0.5l-21.4-28.5c-0.4-0.5-0.3-1.2 0.2-1.6 0.5-0.3 1.2-0.2 1.5 0.3l21 27.8 23.8-10.3c0.6-0.2 1.2 0 1.4 0.6 0.3 0.5 0 1.2-0.5 1.4l-24.6 10.7q-0.3 0.1-0.5 0.1z"/><rect class="o" x="127.7" y="184.9" width="19.3" height="82.5" rx="2.4"></rect><rect class="n" x="130.7" y="223.3" width="13.5" height="5.6" rx="2.3"></rect><path class="n" d="m147.1 194.7h-19.4v-3.2h19.4z"/><path class="n" d="m147.1 201.4h-19.4v-3.2h19.4z"/><path class="n" d="m147.1 250.5h-19.4v-3.1h19.4z"/><path class="n" d="m147.1 257.2h-19.4v-3.2h19.4z"/><rect class="e" x="89.1" y="184.9" width="19.3" height="82.5" rx=".6"></rect><rect class="i" x="92" y="223.3" width="13.5" height="5.6" rx="2.3"></rect><path class="i" d="m108.4 194.7h-19.3v-3.2h19.3z"/><path class="i" d="m108.4 201.4h-19.3v-3.2h19.3z"/><path class="i" d="m108.4 250.5h-19.3v-3.1h19.3z"/><path class="i" d="m108.4 257.2h-19.3v-3.2h19.3z"/><rect class="d" x="108.4" y="184.9" width="19.3" height="82.5" rx="2.4"></rect><rect class="k" x="111.3" y="223.3" width="13.5" height="5.6" rx="2.3"></rect><path class="k" d="m127.7 194.7h-19.3v-3.2h19.3z"/><path class="k" d="m127.7 201.4h-19.3v-3.2h19.3z"/><path class="k" d="m127.7 250.5h-19.3v-3.1h19.3z"/><path class="k" d="m127.7 257.2h-19.3v-3.2h19.3z"/><path class="l" d="m178.5 264.5l-17.9 2.8c-0.4 0.1-0.7-0.1-0.7-0.5l-13-80.2c0-0.3 0.2-0.6 0.5-0.7l17.9-2.9c0.4 0 0.7 0.2 0.7 0.5l13 80.3c0 0.3-0.2 0.6-0.5 0.7z"/><path class="m" d="m169.5 227l-12.2 2c-0.3 0-0.6-0.2-0.6-0.5l-0.8-4.5c0-0.3 0.2-0.6 0.5-0.6l12.2-2c0.3 0 0.6 0.2 0.6 0.4l0.8 4.6c0 0.3-0.2 0.5-0.5 0.6z"/><path class="m" d="m167.5 192.7l-19.1 3-0.5-3.1 19.1-3.1z"/><path class="m" d="m168.6 199.2l-19.1 3.1-0.5-3.1 19.1-3.1z"/><path class="m" d="m176.4 247.8l-19.1 3-0.5-3.1 19.1-3.1z"/><path class="m" d="m177.4 254.3l-19 3.1-0.6-3.1 19.1-3.1z"/><g style="opacity:.8"><path class="a" d="m228.2 289.5h-175.1l-3.9-10.2h183.4z"/></g><path class="c" d="m232.6 279.3h-183.4v-12.1h183.4z"/><path class="c" d="m87.7 279.3l-3.3 10.3h-11.6l-4.9-10.3z"/><path class="c" d="m213.9 279.3l-4.9 10.3h-11.6l-3.2-10.3z"/><ellipse class="a" cx="1090.6" cy="821.8" rx="264.1" ry="15.5"/><path class="c" d="m1194.1 829.1c-82.5-2.9-167.8-14.2-212-166.2-13.1-45.2-4.6-79.4 9.8-105.2 3.6-6.4 7.5-12.2 11.6-17.6q2.2-3.1 4.6-5.9c32.2-39.5 86.3-53.7 134.2-36.2 26.9 9.8 61.4 24.2 92.1 43.1 61.8 37.8 76.3 81 96.4 155 1.8 6.4 3.5 13.5 4.8 21.1 0.7 4 1.3 8.2 1.7 12.4 4.5 47.4-13.8 104-143.2 99.5z"/><path class="j" d="m1337.3 729.6c-2.7 7.7-6.6 15.6-11.8 23-15.6 22.4-48.1 49.4-114.3 51.1q-4.4 0.2-8.6 0.2c-25.3 0-47.6-3.1-68-9.3-21.3-6.5-39.9-16.4-56.9-30-28.3-22.9-51.7-56.4-75.7-108.5-9.5-20.6-14.4-41.5-14.6-62.1-0.2-12.3 1.4-24.4 4.5-36.3 3.6-6.4 7.5-12.2 11.6-17.6q-1.6 3.5-3 7.4c-8.6 23.7-14.6 61.4 6.1 106.4 42.2 91.6 91.1 147.7 204.5 144.7 64-1.7 95.2-27.5 110.2-48.9 7.8-11.2 12.2-22.5 14.3-32.5 0.7 4 1.3 8.2 1.7 12.4z"/><path class="n" d="m1219.3 449.1q51.8 70.3 63.6 105.3 11.8 35-16.9 59.8l-26.6 10q-27.4-123.6-20.1-175.1z"/><path class="b" d="m1214.7 645.9c-22.6 7.5-77.9 27.2-102 19.3q-1.5-0.5-2.8-1.2c-2.7-1.3-4.8-3-6.2-5.2-9.5-14.4-18.8-74.6-14.6-109.9 0.5-4.4 0.8-9.2 0.9-14.3 0.1-7.4-0.2-15.3-0.5-23.3-1.2-30.1-5.9-50.8 6.9-58.1 11.6-6.6 26.2-11.7 35.5-13.9 5.7-1.4 15.2-4.3 21.8-4.1l28.6 5.2q24.8 4.1 30.5 8.3c5.7 4.2 8.6 22.7 18.9 39.7 10.3 17 12.5 34 2.7 52.7-8.6 16.2-7.1 10-8.2 36.7-1.4 32.5 32.7 53.5-11.5 68.1z"/><g style="opacity:.8"><path class="a" d="m1138.7 493.2q31-8 70.6-0.6l1 27.4q-43.6-4.9-71 2.1z"/></g><g style="opacity:.8"><path class="a" d="m1174.3 470.1q-0.6 0-1.3-0.1c-16.9-0.8-32.5-15.8-33.1-16.4-0.5-0.5-0.5-1.2 0-1.7 0.4-0.4 1.1-0.5 1.6 0 0.2 0.1 15.6 15 31.7 15.8 15.4 0.8 17.2-14.5 17.3-15.1 0.1-0.6 0.7-1.1 1.3-1 0.6 0 1.1 0.6 1 1.2 0 0.2-2 17.3-18.5 17.3z"/></g><g style="opacity:.8"><path class="a" d="m1126.2 607.1q-0.1-0.1-0.3-0.3c-0.3-0.6-0.1-1.3 0.4-1.7 22.1-13.3 43.3-18 57.1-19.6 15.1-1.8 24.8-0.3 25.2-0.3 0.7 0.1 1.1 0.7 1 1.4-0.1 0.6-0.7 1.1-1.4 1-0.1 0-9.8-1.4-24.6 0.3-13.6 1.6-34.4 6.2-56 19.3-0.4 0.3-1 0.2-1.4-0.1z"/></g><path class="o" d="m1155.1 656.8c-20.4-6.4-38.8-19.4-51.4-31q-1.5-1.4-2.9-2.7c-6.5-6.4-11.1-3.1-13.1-6.8-7.6-13.9-3.3-68.6 0-88.7 3.3-20.1-10.6-56.9-3.1-70q7.4-13.2 33.1-17.8-3.6-4.2 3.3-9.1 6.9-4.8 25.3-2.8c0.8 86.9 13.1 167.7 8.8 228.9z"/><path class="b" d="m1135 631.9c-0.5 0-1-0.4-1.1-1-9.3-60.3-0.1-173.7 0-174.8 0.1-0.7 0.6-1.1 1.2-1.1 0.7 0.1 1.1 0.6 1.1 1.3-0.1 1.1-9.3 114.3 0 174.3 0.1 0.6-0.4 1.2-1 1.3q-0.1 0-0.2 0z"/><path class="n" d="m1153.7 641c-0.5 0-1-0.4-1.1-1-12.2-69.3-13.1-188.8-13.1-190 0-0.6 0.5-1.1 1.1-1.1q0 0 0 0c0.6 0 1.1 0.5 1.1 1.1 0.1 1.2 1 120.5 13.1 189.6 0.1 0.6-0.3 1.2-0.9 1.3q-0.1 0.1-0.2 0.1z"/><path class="n" d="m1133.6 449.3q-0.2 0-0.3 0c-9.6-2.6-15.5-8.2-15.8-8.5-0.4-0.4-0.4-1.1 0-1.6 0.5-0.4 1.2-0.4 1.6 0 0.1 0.1 5.8 5.5 14.8 7.9 0.6 0.2 0.9 0.8 0.8 1.4-0.2 0.5-0.6 0.8-1.1 0.8z"/><path class="o" d="m1243.4 618.9q-7.3 24.4-34.3 36.1c-3.4-66.3-11-142.1-20.8-222.6q10.3-1.8 14.6 4.1 1.9 2.5 2.3 6.8 5.3 1 11.1 3.7c5.7 2.7 5.1 6.4 6.5 15.8 1.3 9.4 15.9 24 20.6 43.7 4.7 19.7-7.8 32.2-11.7 48.8q-3.9 16.5 11.7 63.6z"/><path class="b" d="m1220.2 629.1c-0.7 0-1.2-0.4-1.2-1.1-2.6-90.2-19.1-170.8-19.2-171.6-0.2-0.6 0.2-1.2 0.9-1.3 0.6-0.2 1.2 0.2 1.3 0.8 0.2 0.8 16.7 81.6 19.3 172.1 0 0.6-0.5 1.1-1.1 1.1q0 0 0 0z"/><path class="n" d="m1195.3 451.8c-0.6 0-1.1-0.3-1.1-0.9-0.2-0.6 0.3-1.2 0.9-1.3 0.1 0 7.3-1.3 9-6.6 0.2-0.6 0.8-0.9 1.4-0.8 0.6 0.2 1 0.9 0.8 1.5-2.1 6.6-10.5 8.1-10.8 8.1q-0.1 0-0.2 0z"/><path class="n" d="m1217.5 629.1c-0.6 0-1-0.4-1.1-1-8-66.5-20.7-172.8-20.8-173.8-0.1-0.7 0.4-1.2 1-1.3 0.6-0.1 1.2 0.4 1.3 1 0.1 1.1 12.7 107.4 20.7 173.9 0.1 0.6-0.3 1.2-0.9 1.2q-0.1 0-0.2 0z"/><path class="e" d="m1081.9 614.9q9.9-0.8 63.1 23.3 15.9 8.1 32.4 10.4c8.4 1.2 17.1 0.8 23.9-3 4.4-2.5 10.5-6.1 17.2-10.2q0 0 0 0c23.4-14.1 53.4-20.7 77.7-40.8l-42.7 44.3q0.9 2.3-0.4 4.2c4.2 5.2 5.8 19.7 3.3 32.4q-42.6 23.8-89 9.1c-8.2-2.6-13.6-5.2-17.1-7.7-34.5-17.8-76.2-61.4-68.4-62z"/><path class="g" d="m1237.5 738.2l-32.4-10.1 9.5-22.4q4.2 4.4 17.9 8.3 5.4 4.5 5 24.2z"/><path class="p" d="m1305.8 781.8c-4.3 1.1-11.8-0.2-23.8-11.4-9.2-8.7-19.3-19.3-29.2-23.7q-10-4.3-13.1-6.2c-7.3-4.1 0-22-12-28q-3.4-3.5 3-6.4c0.8-0.3 1.9-0.9 3.1-1.7q1.1-0.7 2.4-1.5c7.4-4.8 18.8-13 26.9-15.9 2.2-0.8 4.1-1.3 5.7-1.1l41.9 92.9q-1.4 2.2-4.9 3z"/><path class="m" d="m1305.8 781.8l-42.7-94.8c2.2-0.8 4.1-1.3 5.7-1.1l41.9 92.9q-1.4 2.2-4.9 3z"/><path class="m" d="m1260.1 706.5c-11.2 4.4-21.3 0.6-26.3-2.1q1.1-0.7 2.4-1.5c5 2.3 13.6 5.1 23 1.4 7.1-2.8 10.7-7.6 12.6-11.7l1.3 2.7c-2.3 4.2-6.3 8.6-13 11.2z"/><path class="b" d="m1257.7 743.1l1.1 6.4c0.2 1-0.4 1.8-1.3 2-0.9 0.2-1.8-0.4-2-1.4l-1.1-6.4c-0.2-0.9 0.4-1.8 1.3-2 0.8-0.1 1.5 0.3 1.8 1q0.1 0.2 0.2 0.4z"/><path class="b" d="m1250.2 739.5l1.2 6.5c0.2 0.9-0.4 1.7-1.3 1.9-1 0.2-1.8-0.4-2-1.3l-1.2-6.5c-0.1-0.9 0.5-1.8 1.4-2 0.8-0.1 1.5 0.3 1.8 1q0.1 0.2 0.1 0.4z"/><path class="b" d="m1263.7 747.4l1.1 6.4c0.2 0.9-0.4 1.8-1.3 2-0.9 0.1-1.8-0.5-2-1.4l-1.1-6.4c-0.2-0.9 0.4-1.8 1.3-2 0.8-0.1 1.5 0.3 1.8 1q0.1 0.2 0.2 0.4z"/><path class="b" d="m1269.5 751.7l1.2 6.5c0.2 0.9-0.5 1.8-1.4 1.9-0.9 0.2-1.8-0.4-1.9-1.3l-1.2-6.5c-0.2-0.9 0.4-1.8 1.4-1.9 0.7-0.2 1.5 0.2 1.8 0.9q0.1 0.2 0.1 0.4z"/><path class="b" d="m1275.4 756.7l1.1 6.4c0.2 1-0.4 1.8-1.3 2-0.9 0.2-1.8-0.4-2-1.4l-1.1-6.4c-0.2-0.9 0.4-1.8 1.3-2 0.8-0.1 1.5 0.3 1.8 1q0.1 0.2 0.2 0.4z"/><path class="b" d="m1281 762.4l1.2 6.5c0.2 0.9-0.5 1.7-1.4 1.9-0.9 0.2-1.8-0.4-1.9-1.3l-1.2-6.5c-0.2-0.9 0.4-1.8 1.4-2 0.7-0.1 1.5 0.3 1.8 1q0.1 0.2 0.1 0.4z"/><path class="e" d="m1163.5 671.2q20.7 15.9 60.6 31.1 5.3 24.3-9.7 28.5-22.5 3.3-91.6-20.9c-69.2-24.1-129.7-73.5-94.1-99.1q19.5-14.1 53.2 4.1c46.7 21 60.8 40.4 81.6 56.3z"/><path class="i" d="m1221.4 709.4c-14.5-3.5-44.1-17.1-79.1-36.3-26.2-14.4-56.4-32.8-60.8-39.2-2.4-3.4-3-6.2-1.8-8.3 1.8-3.2 7-3.5 9.3-3.5 0.7 0 1.1 0.5 1.1 1.1-0.1 0.6-0.5 1-1.1 1-2.3 0-6.3 0.4-7.5 2.4-0.9 1.7 0.4 4.3 1.7 6.1 3.6 5.2 28.9 21.4 60.1 38.5 26.9 14.8 61.7 32 78.6 36.1z"/><path class="i" d="m1227.8 700.5c3.2 10.7-5.1 30.7-9.5 33.2q-5.6 3.2-11.8-1.3c7.2-8.9 10.6-20.6 12.2-33.4 2.4-1.1 5.5-0.4 9.1 1.5z"/><path class="g" d="m1130.9 711.5q13.7-2.6 17.6-7.4l11 21.8-31.6 12.2q-2.1-21.8 3-26.6z"/><path class="p" d="m1057.6 783.5l35.6-95.5c1.5-0.2 3.5 0.1 5.7 0.7 8.3 2.4 20.3 9.8 27.9 14.1q1.4 0.8 2.5 1.4c1.3 0.6 2.4 1.2 3.2 1.5q6.7 2.4 3.9 4.3c-13.1 6.1-3.5 26-10.5 30.6q-3 2-12.7 7.1c-9.6 5-18.9 16.2-27.6 25.5-11.2 12-18.6 13.8-23 13q-3.4-0.5-5-2.7z"/><path class="m" d="m1057.6 783.5l35.6-95.5c1.5-0.2 3.5 0.1 5.7 0.7l-36.3 97.5q-3.4-0.5-5-2.7z"/><path class="m" d="m1089.5 697.7l1.1-2.8c2.2 4 6.1 8.5 13.4 10.8 9.6 3.1 18-0.2 22.8-2.9q1.4 0.8 2.5 1.4c-4.8 3-14.6 7.5-26.1 3.8-6.9-2.2-11.1-6.3-13.7-10.3z"/><path class="b" d="m1108.2 744c0.2-0.8 1-1.2 1.7-1.1 1 0.1 1.6 0.9 1.5 1.8l-0.7 6.5c-0.1 1-1 1.6-1.9 1.5-0.9-0.1-1.6-0.9-1.5-1.8l0.8-6.5q0-0.3 0.1-0.4z"/><path class="b" d="m1115.4 739.9c0.2-0.7 0.9-1.2 1.7-1.1 0.9 0.1 1.6 0.9 1.5 1.9l-0.7 6.5c-0.1 0.9-1 1.6-1.9 1.4-0.9-0.1-1.6-0.9-1.5-1.8l0.8-6.5q0-0.2 0.1-0.4z"/><path class="b" d="m1102.5 748.6c0.3-0.7 1-1.1 1.8-1.1 0.9 0.2 1.5 1 1.4 1.9l-0.7 6.5c-0.1 0.9-0.9 1.6-1.9 1.5-0.9-0.1-1.5-0.9-1.4-1.9l0.7-6.5q0-0.2 0.1-0.4z"/><path class="b" d="m1096.9 753.4c0.3-0.8 1-1.2 1.8-1.1 0.9 0.1 1.6 0.9 1.5 1.8l-0.8 6.5c-0.1 1-0.9 1.6-1.8 1.5-0.9-0.1-1.6-0.9-1.5-1.8l0.7-6.5q0.1-0.3 0.1-0.4z"/><path class="b" d="m1091.4 758.7c0.3-0.7 1-1.2 1.8-1.1 0.9 0.1 1.6 1 1.5 1.9l-0.8 6.5c-0.1 0.9-0.9 1.6-1.8 1.5-0.9-0.1-1.6-1-1.5-1.9l0.7-6.5q0.1-0.2 0.1-0.4z"/><path class="b" d="m1086.2 764.8c0.2-0.7 1-1.2 1.7-1.1 1 0.1 1.6 0.9 1.5 1.9l-0.7 6.5c-0.1 0.9-1 1.6-1.9 1.5-0.9-0.1-1.6-1-1.5-1.9l0.8-6.5q0-0.2 0.1-0.4z"/><path class="e" d="m1282.5 600.1q31.9-21.1 52.6-8.9c37.8 22.2-17.9 77-84.6 107.3q-66.7 30.4-89.3 29.2-15.4-2.8-12.3-27.5 38.3-18.8 57.5-36.5c19.2-17.7 31.5-38.4 76.1-63.6z"/><path class="i" d="m1224.2 712.2c-3.5 1.2-7.1 2.3-10.6 3.4-17.8 5.6-34.1 10.2-48 13.6v-2.2c15.4-3.8 32.5-8.7 47.4-13.4q5.8-1.8 11.3-3.6z"/><path class="i" d="m1151.5 705c16.5-5.6 49.5-25.9 75-43.1 29.5-20 53.2-38.4 56.3-43.9 1.1-2 2.2-4.7 1.1-6.2-1.3-1.9-5.4-2-7.7-1.7-0.5 0-1-0.4-1.1-0.9-0.1-0.6 0.3-1.2 0.9-1.2 2.4-0.3 7.6-0.4 9.7 2.6 1.4 1.9 1 4.8-1.1 8.5-3.8 6.7-32.2 27.8-56.9 44.5-33.2 22.4-61.4 38.6-75.5 43.4z"/><path class="i" d="m1154 696.5c2.8 12.6 7.2 23.9 15.2 32.1q-5.8 5-11.7 2.3c-4.5-2-14.7-21.2-12.5-32.1 3.4-2.3 6.5-3.3 9-2.3z"/><path class="o" d="m1149.7 595.4l-2.6 36.6q-43.4-6.2-64.8-11.7c-6.2-1.5-13.1-3.6-19.5-7-11.8-6.2-21.6-17.1-20.9-38.4 0.3-6.8 1.6-14.7 4.3-23.8q15.5-53.1 41.5-97.6 33.4 14.3 30.6 38.1-9.5 25.5-30.6 79.7 12.2 15 62 24.1z"/><path class="n" d="m1087.7 572.4q-0.3 0-0.6-0.1c-3.7-2.3-13.8-4.7-13.9-4.7-0.6-0.2-1-0.8-0.8-1.4 0.1-0.6 0.7-1 1.3-0.8 0.4 0.1 7.5 1.7 12.1 3.7q-1-2.3-3.3-4.9c-0.4-0.5-0.4-1.2 0.1-1.6 0.5-0.4 1.2-0.4 1.6 0.1 2.7 3 4.2 5.8 4.6 8.4 0.1 0.5-0.1 0.9-0.5 1.1q-0.3 0.2-0.6 0.2z"/><path class="n" d="m1062.8 613.3c-11.8-6.2-21.6-17.1-20.9-38.4 9.4 4.9 25.6 16.7 20.9 38.4z"/><path class="n" d="m1122.4 589.8q-0.2 0-0.3 0c-21.6-5.5-34.6-17.2-35.2-17.7-0.4-0.3-0.5-0.9-0.2-1.3 15.3-30.2 25-54.2 30.5-75.4 0.2-0.6 0.8-1 1.4-0.9 0.6 0.2 1 0.8 0.8 1.4-5.5 21.3-15.1 45.2-30.3 75.1 2.9 2.4 15.2 11.9 33.5 16.6 0.6 0.2 1 0.8 0.9 1.4-0.2 0.5-0.6 0.8-1.1 0.8z"/><path class="n" d="m1113.7 512.3q-0.3 0-0.7-0.3c-0.5-0.3-0.5-1.1-0.2-1.6l8-10c0.4-0.5 1.1-0.6 1.6-0.2 0.5 0.4 0.6 1.1 0.2 1.6l-8 10.1c-0.2 0.2-0.5 0.4-0.9 0.4z"/><path class="c" d="m1125.4 374.1c2.3-22.5 12.4-33.1 12.9-33.6q0 0 0 0c16.5-20 41.6-17.6 49.1-14.2q15-0.8 31.9 19.7c3.7 4.5 5.5 11.3 6.1 19.2 2 7 3.4 16.4 1.3 27-4.1 21-12.1 31-37.2 33.5l-38.6-5.5c-13.5 2.5-27.8-24.8-25.5-46.1z"/><path class="c" d="m1130.4 344.5c-18.9-12.7-6.1-40.7 14.5-43.6q31.6-4.6 27.6 31-23.3 25.3-42.1 12.6z"/><path class="p" d="m1133.5 348.1q-0.2 0-0.4-0.1c-0.5-0.3-0.7-0.9-0.4-1.4 7.3-13.3 17.7-19.1 25.2-21.7 8.1-2.8 14.4-2.5 14.7-2.5 0.5 0.1 0.9 0.5 0.9 1.1 0 0.5-0.5 0.9-1.1 0.9-0.2 0-24.6-1.1-38 23.2-0.2 0.3-0.5 0.5-0.9 0.5z"/><path class="c" d="m1154 412.2q-24.7-13.8-19.8-42.5c4.8-28.7 23.7-45.9 52.6-37.6q-2.8 82.9-32.8 80.1z"/><path class="c" d="m1222.4 359.4q2.6 24.6-1.9 28.2-4.5 3.6-8.9-6.2 6.1-21.7 10.8-22z"/><path class="h" d="m1211.1 389.8q7.3-6.4 9.8 1.5c2.4 7.9-2.5 22.4-11.7 18.6z"/><path class="e" d="m1220.1 408.1q-1.5 1.4-3.3 2.4c-4.6 2.4-10.6 2.7-17.9-1.1q-9.2-12 4.5-33.2 12.5-3.3 19.7 4.2 1.2 1.3 2.1 3 0.6 1 1.1 2.2c2.5 6.4 0.2 16.7-6.2 22.5z"/><path class="b" d="m1217.1 376.6c0.5-2.7 1.1-6 1.4-9.7 0.7 0.6 1.5 0.9 2.3 0.9q0.3-0.1 0.5-0.2c-0.3 3.9-0.9 7.4-1.5 10.3z"/><path class="i" d="m1220.1 408.1q-1.5 1.4-3.3 2.4c6.4-13.2 6.5-25.2 6.3-30.1q1.2 1.3 2.1 3c0 5.5-0.8 14.6-5.1 24.7z"/><path class="g" d="m1189.7 425.4l-3 20.3q-12.5 16-41.3-10.1c3.2-8.3 8.3-18.9 7-27.1q2.1 2 5.7 4.3 1.1 0.7 2.4 1.5c7.5 4.5 18.9 10.3 29.2 11.1z"/><path class="c" d="m1189.7 425.4l-1.4 9.5c-8.4-3.2-23-10.3-30.2-22.1q1.1 0.7 2.4 1.5c7.5 4.5 18.9 10.3 29.2 11.1z"/><path class="g" d="m1217.4 390.7q-0.5 3.2-1 6c-2.3 14-4.4 21.6-8.3 24.6-19.8 15.1-54.6-11.6-55.7-12.5q0 0 0 0-0.2-2.5-0.3-4.9c-0.4-13.5 1.3-25.7 4.3-37.1 1.2-12.4 10.2-22.7 22.3-25.2 12.6-2.5 22.5 4.3 28.7 7.2 9.2 4.5 13.5 17.9 10.9 35.8q-0.5 3.2-0.9 6.1z"/><path class="c" d="m1199.7 407.1c-11 0-15.4-10.6-15.5-10.7-0.2-0.5 0.1-1.1 0.6-1.3 0.5-0.2 1.1 0.1 1.3 0.6 0.2 0.4 4.8 11.4 16.8 9.1 0.6-0.1 1.1 0.2 1.2 0.8 0.1 0.5-0.2 1-0.8 1.1q-1.9 0.4-3.6 0.4z"/><path class="c" d="m1191 369c-6 2.1-15.5 4.6-14.5-1.5 0.7-4.1 8.9-4.2 14-3.9 3 0.2 3.6 4.4 0.7 5.4q-0.1 0-0.2 0z"/><path class="c" d="m1206.3 370.8c-2.2-2.1 0-5.7 2.8-4.7 4.8 1.8 12.3 5.2 11.2 9.3-1.5 5.9-9.2-0.3-13.9-4.5q-0.1-0.1-0.1-0.1z"/><path class="h" d="m1188.4 410.4c-0.3-0.3-0.3-0.7-0.1-1 0.3-0.3 0.7-0.3 1 0 2.5 2.2 5.8 1.4 5.8 1.4 0.4-0.1 0.7 0.2 0.8 0.5 0.1 0.4-0.1 0.7-0.5 0.8-0.1 0-1.8 0.4-3.8-0.1-1.1-0.2-2.2-0.7-3.2-1.6z"/><path class="c" d="m1198.5 398.3q-0.3-0.1-0.4-0.4c-0.1-0.4 0.1-0.8 0.5-0.9l4.8-1.6-2.8-2.9c-0.2-0.2-0.3-0.4-0.3-0.6l0.9-8c0.1-0.4 0.4-0.7 0.8-0.6 0.4 0 0.7 0.4 0.7 0.8l-0.9 7.6 3.5 3.5c0.2 0.2 0.2 0.4 0.2 0.7-0.1 0.2-0.3 0.4-0.5 0.5l-5.9 1.9q-0.3 0.1-0.6 0z"/><path class="h" d="m1186 390.7c-0.2 1.6-3.8 2.5-8 1.8-4.3-0.6-7.5-2.4-7.2-4.1 0.2-1.6 3.8-2.5 8-1.8 4.2 0.6 7.5 2.4 7.2 4.1z"/><g style="opacity:.8"><path class="h" d="m1217.4 392.7q-0.5 3.1-1 5.9c-3.8-0.7-6.6-2.4-6.4-4 0.2-1.5 3.5-2.4 7.4-1.9z"/></g><path class="c" d="m1190.1 384.8c-0.3 2.2-1.6 3.9-2.9 3.7-1.3-0.2-2-2.2-1.7-4.4 0.3-2.3 1.7-4 2.9-3.8 1.3 0.2 2.1 2.2 1.7 4.5z"/><path class="c" d="m1212.6 388.1c-0.3 2.3-1.6 4-2.9 3.8-1.3-0.2-2-2.2-1.7-4.5 0.3-2.3 1.6-3.9 2.9-3.8 1.3 0.2 2 2.2 1.7 4.5z"/><path class="c" d="m1161.2 400.7c-0.2 0.2-4.2 6.7-8.8 8.1q0 0 0 0 0 0 0 0-0.2-2.5-0.3-4.9c0.2 0 4.7-0.1 9.1-3.2z"/><path class="g" d="m1156.8 403c-12.2 6-19.4-16.6-12.8-23.7q8.1-8.6 15.4 5z"/><path class="c" d="m1155.9 399.3c-0.5-0.1-0.8-0.5-0.8-1 0.3-9.4-6.9-13.8-7.2-14-0.5-0.2-0.6-0.8-0.4-1.3 0.3-0.4 0.9-0.6 1.3-0.3 0.4 0.2 8.6 5.1 8.2 15.7-0.1 0.5-0.5 0.9-1 0.9q-0.1 0-0.1 0z"/><path class="c" d="m1148 392.3c-0.3-0.1-0.5-0.2-0.7-0.5-0.2-0.4-0.1-1 0.4-1.3 0.4-0.2 4.1-2.4 6.8-1.2 0.5 0.2 0.7 0.7 0.5 1.2-0.2 0.5-0.7 0.7-1.2 0.5-1.6-0.6-4.3 0.7-5.2 1.2q-0.3 0.1-0.6 0.1z"/><path fill-rule="evenodd" class="b" d="m1181.9 396.7c-7.1-2.7-10.7-10.7-8-17.8 2.8-7.2 10.8-10.7 17.9-8 7.1 2.7 10.7 10.7 8 17.8-2.8 7.1-10.8 10.7-17.9 8zm9.2-23.9c-6.1-2.4-13 0.7-15.3 6.8-2.3 6.1 0.8 12.9 6.8 15.2 6.1 2.3 13-0.7 15.3-6.8 2.3-6.1-0.8-12.9-6.8-15.2z"/><path class="b" d="m1174.4 380.7q-0.2 0-0.4-0.1c-7.5-3.4-14.5-0.8-14.6-0.8-0.5 0.2-1.1 0-1.3-0.6-0.2-0.5 0.1-1.1 0.6-1.3 0.3-0.1 7.9-2.9 16.1 0.9 0.6 0.2 0.8 0.8 0.5 1.3-0.1 0.4-0.5 0.6-0.9 0.6z"/><path fill-rule="evenodd" class="b" d="m1212.5 400.2c-7.1-2.8-10.7-10.8-8-17.9 2.7-7.1 10.7-10.7 17.9-8 7.1 2.8 10.7 10.8 8 17.9-2.8 7.1-10.8 10.7-17.9 8zm9.1-24c-6-2.3-12.9 0.8-15.2 6.8-2.3 6.1 0.7 13 6.8 15.3 6.1 2.3 12.9-0.8 15.3-6.8 2.3-6.1-0.8-13-6.9-15.3z"/><path class="b" d="m1199.1 382.9q-0.2-0.2-0.4-0.4c-0.3-0.5-0.1-1.1 0.3-1.4 0.2-0.1 3.6-2.1 7 0.6 0.5 0.3 0.6 0.9 0.2 1.4-0.3 0.4-0.9 0.5-1.4 0.2-2.4-1.9-4.7-0.5-4.7-0.5-0.3 0.2-0.7 0.2-1 0.1z"/><path class="c" d="m1206.5 336.4c8.4 3.8 15 10.8 17.9 19.5 1.9 5.5 3.4 12.7-4.2 11.8q-21-2.6-32.2-24.3-4.1 20-20.6 17.6c-16.4-2.5-15.9-14.9-6.6-21.9 7.7-5.7 27.1-11.1 45.7-2.7z"/><path class="c" d="m1168.1 358.7q-9.4 10-6 20.8c3.3 10.9 3.6 19.5 0.1 25.4q-1-11.4-5.1-20.1c-3.4-7.1-6.6-12.5-4.2-20.7 1.7-5.6 5.8-11 15.2-5.4z"/><path class="e" d="m1152.9 407.7c-7.3 1.8-12.9 0.8-17.1-1.8q-1-0.7-1.9-1.4c-8.7-7.3-9.3-22.4-4-29.9 1.9-2.6 4.1-4.3 6.4-5.5q1-0.5 2.1-0.8 9-3 18.8 2.4 10.2 28.2-4.3 37z"/><path class="b" d="m1178.4 420.1c-21.2-4.4-30.2-19.7-30.7-20.4-0.3-0.6-0.1-1.3 0.5-1.7 0.6-0.3 1.3-0.1 1.7 0.5 0.1 0.2 11.1 18.7 36.9 20.1 0.6 0.1 1.2 0.7 1.1 1.3 0 0.7-0.6 1.2-1.3 1.2q-4.4-0.2-8.2-1z"/><path class="q" d="m1193.5 420.8c-0.4 2.1-2.5 3.5-4.6 3-2.1-0.4-3.5-2.5-3.1-4.6 0.5-2.1 2.5-3.5 4.7-3.1 2.1 0.5 3.5 2.5 3 4.7z"/><path class="i" d="m1135.8 405.9q-1-0.7-1.9-1.4c6.8-15.2 4.5-28.5 2.4-35.4q1-0.5 2.1-0.8c2.2 7.3 4.7 21.5-2.6 37.6z"/><path class="b" d="m1222 350.2c-1.8-3.3-3.8-5.5-4.8-6.6-0.8-2.4-1.7-4.7-3-6.8-4.4-7-11.5-11.3-20.9-12.8-10.2-1.5-19 0.5-26.3 6-2.2 1.7-4.2 3.7-6 5.9-2.5 3-4.5 6.4-6.2 9.7-5.9 11.7-7.3 23.7-7.3 23.9l-2.8-0.3c0.2-1.2 3.3-28.1 20.6-41.4 7.9-6 17.5-8.2 28.4-6.5 10.3 1.6 18 6.3 22.9 14.1 2.8 4.5 4.5 9.6 5.4 14.8z"/><path class="c" d="m1116.4 658l-9.6-18.4c-2.4-4.6 0.9-10.1 6.1-10l152 1.6-4.4 23.6z"/><path class="c" d="m1257.8 652.8h-136c-3.3 0-5.7-2.6-5.3-5.9l9.3-84.1c0.3-3.3 3.3-5.9 6.6-5.9h136c3.3 0 5.7 2.6 5.3 5.9l-9.3 84.1c-0.3 3.3-3.3 5.9-6.6 5.9z"/><path class="r" d="m1119.7 656.5q0 0-0.1 0c-0.6-0.1-1.1-0.7-1-1.3l11.3-90.1c0.1-0.6 0.6-1.1 1.3-1 0.6 0.1 1 0.7 1 1.3l-11.3 90.1c-0.1 0.5-0.6 1-1.2 1z"/><path class="j" d="m1198.9 594.9c6.7 0.4 11.7 6.2 11.1 13-0.5 6.7-6.3 11.9-13 11.4-6.6-0.4-11.6-6.2-11.1-12.9 0.6-6.8 6.4-11.9 13-11.5z"/><path class="c" d="m1258.5 660.2h-138c-3 0-5.3-2.7-4.9-5.7l1.3-9.6h148l-1.4 10.9c-0.4 2.5-2.5 4.4-5 4.4z"/><path fill-rule="evenodd" class="p" d="m1158.5 633l-1 4.8h4.6l-0.5 5.7h-5.3l-1.1 5.2h-6l1.1-5.2h-3.7l-1.1 5.2h-6l1.1-5.2h-4.6l0.5-5.7h5.3l1-4.8h-4.6l0.5-5.7h5.3l1.1-5.2h6l-1.1 5.2h3.7l1.1-5.2h6.1l-1.2 5.2h4.6l-0.5 5.7zm-6 0h-3.7l-1 4.8h3.7z"/><circle class="d" cx="1333.5" cy="500.1" r="37.5"/><path class="d" d="m1314.3 530.8l-20.1 4.3 8.7-17.4z"/><path class="b" d="m1336.7 492.1c0-1.8-1.7-2.7-3.8-2.7-2.4 0-4.7 1.5-5.9 3.9l-10.1-5.1c2.9-5.4 8.6-9.2 17.7-9.2 8.9 0 15.6 3.8 15.6 10.9 0 8.6-9.1 10.2-9.1 14.5h-11.7c0-6.8 7.3-8.9 7.3-12.3zm-8.9 21.3c0-3.8 3-6.7 7.4-6.7 4.5 0 7.5 2.9 7.5 6.7 0 3.7-3 6.8-7.5 6.8-4.4 0-7.4-3.1-7.4-6.8z"/><path class="e" d="m922.9 713.4q-15.3-24-52.5-45.9-26.3-15.5-41.7-59.2 50.4 2.2 72.3 32.9 21.9 30.6 21.9 72.2z"/><path class="c" d="m923.1 714.1c-0.3 0-0.6-0.2-0.7-0.6-7.1-26.7-22.6-46.1-34.4-57.6-12.7-12.6-23.9-18.8-24-18.9-0.4-0.2-0.5-0.7-0.3-1 0.2-0.4 0.6-0.5 1-0.3 0.1 0.1 11.5 6.4 24.4 19.1 11.9 11.7 27.5 31.3 34.7 58.4 0.1 0.4-0.1 0.8-0.5 0.9q-0.1 0-0.2 0z"/><path class="e" d="m916.3 712.9q-4.4-8.8-24.1-6.6c-19.7 2.2-30.6 13.2-65.7-6.5q26.3-21.9 54.8-17.6c28.4 4.4 30.6 15.4 35 30.7z"/><path class="c" d="m916.4 713.6c-0.2 0-0.5-0.1-0.6-0.3-0.1-0.1-8.9-14-23.1-16.6-24.8-4.5-41.7 3.4-41.8 3.5-0.4 0.2-0.8 0-1-0.3-0.2-0.4 0-0.8 0.3-1 0.2-0.1 17.5-8.2 42.8-3.7 14.8 2.7 23.7 16.7 24.1 17.3 0.2 0.4 0.1 0.8-0.3 1q-0.2 0.1-0.4 0.1z"/><path class="e" d="m934.7 665.3q20.2-20.6 54.4-18.7c-16.3 36.7-31.7 34.5-48.8 44.5q-17.1 10-15.4 19.7c-5.6-14.9-10.4-25 9.8-45.5z"/><path class="c" d="m924.8 711.6c-0.3 0-0.7-0.3-0.7-0.7-0.1-0.7-1.3-17.2 9-28.2 17.6-18.8 36.3-22.6 36.5-22.6 0.4-0.1 0.8 0.1 0.8 0.6 0.1 0.4-0.1 0.8-0.6 0.8-0.1 0.1-18.4 3.8-35.6 22.2-9.8 10.5-8.6 26.9-8.6 27.1 0 0.4-0.3 0.8-0.7 0.8q0 0-0.1 0z"/><rect class="d" x="891.9" y="710.2" width="58.3" height="12.5" rx="5.1"></rect><path class="d" d="m921.3 829.9c-39.2 0-64.1-6.2-60.1-33.8 2.6-17.5 16.2-34.6 25.9-44.8q2-2.2 3.7-3.9 3.6-3.5 6-5.6l0.1-0.6 0.7-3.9 0.8-4.4 1.8-10.2 0.6-3.6 20.5-0.9 21.4 0.9 0.5 3.6 0.7 5.6 1.3 9 0.5 3.9 0.1 0.6q2.4 2.1 6 5.6 1.7 1.7 3.8 3.9c9.6 10.2 23.2 27.3 25.8 44.8 4 27.6-20.9 33.8-60.1 33.8z"/><path class="k" d="m945.7 741.2h-48.8l0.7-3.9h47.6z"/><path class="k" d="m955.6 751.3h-68.5q2-2.2 3.7-3.9h61q1.7 1.7 3.8 3.9z"/><path class="k" d="m943.9 728.3l-45.5 4.6 1.8-10.2h43z"/><rect class="b" x="498.4" y="446.1" width="25.1" height="19.4" rx="3.3"></rect><path class="b" d="m530.8 446.1v19.4l-7.8-6.6v-6.2z"/><circle class="s" cx="564.6" cy="455.8" r="16.1"/><path class="b" d="m555.8 464.6c-0.7-0.7-0.7-1.7 0-2.4l15.2-15.2c0.6-0.7 1.7-0.7 2.4 0 0.6 0.6 0.6 1.7 0 2.4l-15.2 15.2c-0.4 0.3-0.8 0.5-1.2 0.5-0.5 0-0.9-0.2-1.2-0.5z"/><path class="b" d="m571 464.6l-15.2-15.2c-0.7-0.7-0.7-1.8 0-2.4 0.6-0.7 1.7-0.7 2.4 0l15.2 15.2c0.6 0.7 0.6 1.7 0 2.4-0.3 0.3-0.8 0.5-1.2 0.5-0.4 0-0.9-0.2-1.2-0.5z"/><rect class="b" x="469.5" y="440.8" width="8.9" height="23.1" rx="3.7"></rect><rect class="b" x="473.1" y="458.6" width="1.8" height="10.9" rx=".8"></rect><rect class="b" x="465" y="466.5" width="17.8" height="3.8" rx="1.6"></rect><path class="k" d="m403.9 398.8l-1.6 0.4q0-0.5 0-1.1-0.1-1-0.4-1.9c-0.8-3.4-2.6-6.4-5.2-8.7-2.6-2.3-5.9-3.8-9.5-4.2-11.3-1.3-19.7-0.6-24.4 1.9l-0.3-1.5c1.3-0.7 2.8-1.2 4.4-1.6 6-1.4 13.8-1.1 20.4-0.3 8.6 0.9 15.5 7.7 16.5 16.1q0 0.4 0.1 0.9zm-17.2 3.1q0.7 0.6 1.3 1.2l-1.7 0.5q-0.3-0.3-0.6-0.6c-4.5-4.1-8.8-8-15.3-3.3q-2.1 1.5-3.9 2.4l-0.3-1.5q1.5-0.8 3.3-2.1c7.5-5.4 12.7-0.7 17.2 3.4z"/></svg>